<svg width="31" height="31" viewBox="0 0 31 31" fill="none" xmlns="http://www.w3.org/2000/svg">
<path d="M15.1902 1.42285C9.79967 1.42285 5.41406 5.80846 5.41406 11.199C5.41406 17.9743 15.1998 29.5478 15.1998 29.5478C15.1998 29.5478 24.9663 17.6411 24.9663 11.199C24.9663 5.80846 20.5809 1.42285 15.1902 1.42285ZM18.1398 14.0614C17.3265 14.8746 16.2584 15.2812 15.1902 15.2812C14.1221 15.2812 13.0537 14.8746 12.2407 14.0614C10.6142 12.4351 10.6142 9.78877 12.2407 8.16228C13.0283 7.37435 14.0759 6.94039 15.1902 6.94039C16.3044 6.94039 17.3519 7.37452 18.1398 8.16228C19.7663 9.78877 19.7663 12.4351 18.1398 14.0614Z" fill="#F2F2F2"/>
</svg>
