<svg width="21" height="21" viewBox="0 0 21 21" fill="none" xmlns="http://www.w3.org/2000/svg">
<path d="M10.7399 7.18634C8.93016 7.18634 7.45328 8.66324 7.45328 10.473C7.45328 12.2828 8.93016 13.7597 10.7399 13.7597C12.5496 13.7597 14.0265 12.2828 14.0265 10.473C14.0265 8.66324 12.5496 7.18634 10.7399 7.18634ZM20.5973 10.473C20.5973 9.11199 20.6096 7.76329 20.5332 6.40474C20.4567 4.82674 20.0968 3.42626 18.9429 2.27235C17.7865 1.11598 16.3885 0.758461 14.8106 0.682027C13.4496 0.605593 12.1009 0.617921 10.7424 0.617921C9.38136 0.617921 8.03269 0.605593 6.67416 0.682027C5.09619 0.758461 3.69574 1.11844 2.54185 2.27235C1.3855 3.42873 1.02799 4.82674 0.951557 6.40474C0.875124 7.76576 0.887452 9.11445 0.887452 10.473C0.887452 11.8316 0.875124 13.1827 0.951557 14.5413C1.02799 16.1193 1.38796 17.5198 2.54185 18.6737C3.69821 19.83 5.09619 20.1876 6.67416 20.264C8.03516 20.3404 9.38383 20.3281 10.7424 20.3281C12.1034 20.3281 13.452 20.3404 14.8106 20.264C16.3885 20.1876 17.789 19.8276 18.9429 18.6737C20.0992 17.5173 20.4567 16.1193 20.5332 14.5413C20.6121 13.1827 20.5973 11.834 20.5973 10.473ZM10.7399 15.53C7.94146 15.53 5.683 13.2715 5.683 10.473C5.683 7.67453 7.94146 5.41602 10.7399 5.41602C13.5383 5.41602 15.7968 7.67453 15.7968 10.473C15.7968 13.2715 13.5383 15.53 10.7399 15.53ZM16.0039 6.38994C15.3505 6.38994 14.8229 5.8623 14.8229 5.20891C14.8229 4.55552 15.3505 4.02788 16.0039 4.02788C16.6573 4.02788 17.1849 4.55552 17.1849 5.20891C17.1851 5.36406 17.1547 5.51772 17.0954 5.6611C17.0361 5.80448 16.9491 5.93475 16.8394 6.04446C16.7297 6.15417 16.5995 6.24115 16.4561 6.30044C16.3127 6.35972 16.159 6.39014 16.0039 6.38994Z" fill="white"/>
</svg>
