<svg width="31" height="31" viewBox="0 0 31 31" fill="none" xmlns="http://www.w3.org/2000/svg">
<circle cx="15" cy="15" r="15" transform="matrix(-1 0 0 1 30.0801 0.5)" fill="#333333"/>
<path d="M18.0801 7.5H12.0801C9.31908 7.5 7.08008 9.739 7.08008 12.5V18.5C7.08008 21.261 9.31908 23.5 12.0801 23.5H18.0801C20.8411 23.5 23.0801 21.261 23.0801 18.5V12.5C23.0801 9.739 20.8411 7.5 18.0801 7.5ZM21.5801 18.5C21.5801 20.43 20.0101 22 18.0801 22H12.0801C10.1501 22 8.58008 20.43 8.58008 18.5V12.5C8.58008 10.57 10.1501 9 12.0801 9H18.0801C20.0101 9 21.5801 10.57 21.5801 12.5V18.5Z" fill="white"/>
<path d="M15.0801 11.5C12.8711 11.5 11.0801 13.291 11.0801 15.5C11.0801 17.709 12.8711 19.5 15.0801 19.5C17.2891 19.5 19.0801 17.709 19.0801 15.5C19.0801 13.291 17.2891 11.5 15.0801 11.5ZM15.0801 18C13.7021 18 12.5801 16.878 12.5801 15.5C12.5801 14.121 13.7021 13 15.0801 13C16.4581 13 17.5801 14.121 17.5801 15.5C17.5801 16.878 16.4581 18 15.0801 18Z" fill="white"/>
<path d="M19.38 11.733C19.6743 11.733 19.913 11.4944 19.913 11.2C19.913 10.9057 19.6743 10.667 19.38 10.667C19.0856 10.667 18.847 10.9057 18.847 11.2C18.847 11.4944 19.0856 11.733 19.38 11.733Z" fill="white"/>
</svg>
