<svg width="50" height="50" viewBox="0 0 50 50" fill="none" xmlns="http://www.w3.org/2000/svg">
<circle cx="25" cy="25" r="25" fill="#11AEAE"/>
<g clip-path="url(#clip0_520_4452)">
<path d="M16.8496 11.02C15.9121 11.3774 14.166 13.1001 12.543 15.2563C11.8984 16.1177 11.3945 16.8911 11.1309 17.4419L10.9141 17.8755L10.9844 18.4673C11.5234 23.1255 15.4023 29.2134 20.6055 33.561C24.2793 36.6255 28.2402 38.6118 31.5039 39.0102C32.043 39.0806 32.0723 39.0747 32.4121 38.9399C33.7949 38.3716 37.0645 35.7466 38.3008 34.2056C39.0859 33.227 39.2031 32.7524 38.8398 32.0141C38.5938 31.5102 38.3301 31.2817 36.9355 30.3442C34.1055 28.4341 32.0781 27.4028 31.1699 27.4028C30.4961 27.4028 30.1152 27.6841 29.0137 28.979C28.627 29.4302 28.2754 29.8052 28.2344 29.8052C28.1055 29.8052 27.1562 29.4184 26.5879 29.1372C24.5781 28.1235 22.8906 26.6352 21.6484 24.7661C21.1855 24.0747 20.5293 22.7798 20.3184 22.1528L20.1777 21.7368L20.4062 21.5317C20.5293 21.4204 20.9102 21.0923 21.25 20.7993C22.2988 19.9087 22.5449 19.563 22.5859 18.9184C22.6035 18.6489 22.5801 18.4497 22.4805 18.1391C22.2988 17.5825 21.666 16.2934 21.0742 15.3032C20.4062 14.1782 18.9648 12.0102 18.6367 11.647C18.1621 11.1196 17.3418 10.8325 16.8496 11.02Z" fill="#333333"/>
</g>
<defs>
<clipPath id="clip0_520_4452">
<rect width="30" height="30" fill="white" transform="translate(10 10)"/>
</clipPath>
</defs>
</svg>
