<svg width="28" height="18" viewBox="0 0 28 18" fill="none" xmlns="http://www.w3.org/2000/svg">
<path d="M26.5561 1.70729H22.0773C21.8945 1.70729 21.7151 1.76046 21.5582 1.86114C21.4014 1.96182 21.2729 2.10624 21.1864 2.27904C21.1864 2.27904 19.4001 5.80818 18.8263 6.99687C17.2827 10.1946 16.2831 9.1907 16.2831 7.70662V2.58949C16.2831 2.16188 16.1248 1.75179 15.8429 1.44943C15.5611 1.14707 15.1788 0.977205 14.7802 0.977205H11.4128C10.9542 0.940627 10.4945 1.03042 10.0774 1.23807C9.66023 1.44571 9.29951 1.76431 9.02945 2.1636C9.02945 2.1636 10.7394 1.86701 10.7394 4.33865C10.7394 4.95154 10.7688 6.71469 10.7956 8.19351C10.8007 8.41144 10.7433 8.62577 10.6312 8.80759C10.5191 8.98941 10.3577 9.12995 10.1688 9.21024C9.97984 9.29052 9.77251 9.30669 9.57475 9.25656C9.377 9.20643 9.19834 9.09241 9.06291 8.9299C7.68456 6.87336 6.54284 4.64575 5.66253 2.29545C5.58693 2.11964 5.46591 1.97077 5.31382 1.86652C5.16173 1.76227 4.98495 1.70701 4.80447 1.70729C3.83316 1.70729 1.8895 1.70729 0.735221 1.70729C0.62329 1.70648 0.512848 1.73482 0.413381 1.7899C0.313915 1.84497 0.2284 1.92513 0.164181 2.02348C0.0999622 2.12183 0.0589605 2.23543 0.0446984 2.35453C0.0304363 2.47363 0.0433401 2.59467 0.0823013 2.70724C1.31792 6.34316 6.64057 17.7692 12.7159 17.7692H15.2729C15.5409 17.7692 15.7978 17.6551 15.9873 17.4518C16.1767 17.2486 16.2831 16.9729 16.2831 16.6855V15.0291C16.2831 14.8213 16.3398 14.6181 16.4462 14.4444C16.5525 14.2707 16.7039 14.1342 16.8817 14.0517C17.0595 13.9692 17.2559 13.9443 17.4467 13.9801C17.6375 14.0159 17.8144 14.1107 17.9555 14.253L21.0162 17.3379C21.291 17.615 21.654 17.7692 22.0312 17.7692H26.0503C27.9888 17.7692 27.9888 16.3262 26.9319 15.2096C26.1881 14.4238 23.5042 11.3889 23.5042 11.3889C23.2743 11.1335 23.1372 10.7982 23.1177 10.4438C23.0981 10.0894 23.1974 9.7392 23.3975 9.45645C24.265 8.23171 25.684 6.2269 26.2858 5.36806C27.1084 4.19416 28.5971 1.70729 26.5561 1.70729Z" fill="white"/>
</svg>
