<svg width="31" height="31" viewBox="0 0 31 31" fill="none" xmlns="http://www.w3.org/2000/svg">
<circle cx="15" cy="15" r="15" transform="matrix(-1 0 0 1 30.0801 0.5)" fill="#333333"/>
<path d="M15.7942 21.6707C10.3242 21.6707 7.20422 17.9207 7.07422 11.6807H9.81422C9.90422 16.2607 11.9242 18.2007 13.5242 18.6007V11.6807H16.1042V15.6307C17.6842 15.4607 19.3442 13.6607 19.9042 11.6807H22.4842C22.2732 12.7075 21.8526 13.6798 21.2486 14.5367C20.6446 15.3936 19.8704 16.1167 18.9742 16.6607C19.9745 17.1577 20.8581 17.8613 21.5665 18.7249C22.275 19.5885 22.7923 20.5925 23.0842 21.6707H20.2442C19.9821 20.7342 19.4495 19.8959 18.713 19.2608C17.9766 18.6257 17.0691 18.2222 16.1042 18.1007V21.6707H15.7942Z" fill="white"/>
</svg>
