<svg width="174" height="111" viewBox="0 0 174 111" fill="none" xmlns="http://www.w3.org/2000/svg">
<path d="M152.605 36.0069C152.879 36.1942 153.149 36.3815 153.416 36.5724C153.48 36.6207 153.543 36.6689 153.606 36.7171C153.542 36.7542 153.477 36.7931 153.416 36.8339C153.323 36.7597 153.227 36.6874 153.126 36.6132C152.866 36.426 152.608 36.2368 152.337 36.0551C150.185 34.5903 147.545 33.372 144.562 32.5358C147.648 33.3183 150.386 34.5309 152.605 36.0069ZM168.857 70.8146C168.944 72.0922 169.006 73.379 169.032 74.6714C169.054 75.9638 169.039 77.2655 168.978 78.5746C168.92 79.8819 168.809 81.1984 168.628 82.526C168.449 83.8518 168.204 85.1868 167.869 86.5293C167.533 87.8736 167.103 89.2272 166.534 90.5901C165.965 91.9492 165.262 93.3177 164.354 94.6787C163.446 96.0378 162.333 97.3951 160.927 98.6949C159.529 99.9929 157.797 101.23 155.775 102.285C157.444 101.367 158.908 100.306 160.14 99.1845C161.377 98.0626 162.39 96.8797 163.23 95.6818C164.075 94.4858 164.733 93.2731 165.278 92.0642C165.824 90.8552 166.255 89.65 166.61 88.4521C167.298 86.062 167.696 83.709 167.972 81.419C168.116 80.275 168.212 79.1476 168.312 78.0369C168.398 76.9299 168.483 75.8359 168.565 74.7623C168.667 71.7047 168.44 68.7527 168.051 65.8842C167.888 64.6975 167.696 63.5256 167.485 62.3649C167.64 62.3871 167.793 62.4057 167.945 62.4187C168.335 65.187 168.659 67.9851 168.857 70.8146ZM137.352 42.2205C137.364 42.2409 137.375 42.2612 137.386 42.2816C137.078 42.2631 136.748 42.252 136.409 42.2501C136.732 42.2334 137.048 42.2242 137.352 42.2205ZM166.484 57.5068C166.447 57.3399 166.406 57.1749 166.368 57.008C166.506 57.4085 166.634 57.8146 166.745 58.2299C166.958 59.0384 167.127 59.8783 167.182 60.7777C166.963 59.6781 166.729 58.5878 166.484 57.5068ZM153.234 67.3546C153.2 67.0394 153.166 66.7223 153.129 66.4053C152.918 65.0535 152.666 63.6981 152.383 62.3389C152.381 62.3167 152.378 62.2926 152.376 62.2685C152.434 62.2796 152.491 62.2907 152.547 62.3018C152.771 63.6721 152.968 65.0405 153.129 66.4053C153.168 66.6537 153.205 66.904 153.24 67.1525C153.237 67.2211 153.237 67.2879 153.234 67.3546ZM136.746 52.9917C136.799 53.2977 136.849 53.6055 136.898 53.9133C136.89 53.9615 136.882 54.0115 136.873 54.0598C136.814 53.8113 136.753 53.561 136.688 53.3125C136.708 53.2031 136.727 53.0974 136.746 52.9917ZM134.115 29.0276C133.702 29.0368 133.286 29.048 132.875 29.0628C132.476 29.0832 132.076 29.1073 131.678 29.1314C131.267 29.1555 130.914 29.1907 130.537 29.2223C130.156 29.2575 129.819 29.2834 129.361 29.3409L128.716 29.4225C128.5 29.4503 128.289 29.4763 128.063 29.5134C127.619 29.582 127.176 29.6543 126.734 29.7322C124.967 30.053 123.227 30.4961 121.582 31.0357C119.934 31.5753 118.385 32.2131 116.971 32.9177C115.555 33.6205 114.275 34.3882 113.131 35.1855C111.986 35.9847 110.988 36.8135 110.101 37.6479C108.333 39.3241 107.015 41.0263 105.994 42.6877C104.664 45 103.634 47.2436 102.789 49.4464C101.95 51.6493 101.323 53.8094 100.934 55.9196C100.547 58.0297 100.404 60.086 100.584 62.046C100.717 63.4756 101.023 64.8551 101.539 66.1587C101.518 66.752 101.492 67.5883 101.478 68.4301C101.473 68.8844 101.466 69.3387 101.462 69.7559C101.459 70.1731 101.457 70.5513 101.46 70.8573C101.475 74.436 101.673 78.0536 102.278 81.7565C102.582 83.607 102.979 85.4779 103.55 87.386C104.124 89.2958 104.848 91.2372 105.859 93.225C106.13 93.7275 106.375 94.2207 106.686 94.7287C106.836 94.9809 106.981 95.2312 107.139 95.4834L107.637 96.2474C107.725 96.3753 107.802 96.4995 107.895 96.6293L108.174 97.0132C108.365 97.2709 108.54 97.5231 108.745 97.7827C109.161 98.3 109.566 98.8118 110.05 99.331C110.498 99.8446 111.037 100.366 111.559 100.877C111.838 101.137 112.131 101.395 112.42 101.649C112.57 101.777 112.706 101.905 112.867 102.033L113.344 102.413L113.828 102.793L114.073 102.98L114.336 103.167C114.686 103.418 115.042 103.662 115.4 103.907C116.164 104.391 116.921 104.87 117.783 105.318C118.204 105.544 118.623 105.769 119.083 105.978C119.536 106.19 119.983 106.403 120.452 106.601C120.929 106.798 121.41 106.989 121.893 107.178C122.132 107.275 122.384 107.36 122.635 107.443L123.392 107.699C125.415 108.357 127.565 108.882 129.7 109.212C129.967 109.255 130.237 109.299 130.504 109.34L131.299 109.438C131.828 109.501 132.365 109.572 132.889 109.618C133.929 109.698 134.989 109.785 135.991 109.804L136.754 109.824C137.007 109.831 137.267 109.841 137.507 109.837C137.999 109.833 138.489 109.828 138.979 109.82C139.225 109.815 139.471 109.817 139.713 109.804L140.437 109.77C140.919 109.746 141.402 109.722 141.884 109.694C142.379 109.653 142.874 109.609 143.367 109.563L144.107 109.492C144.359 109.464 144.61 109.431 144.862 109.398C145.365 109.331 145.868 109.262 146.368 109.192C146.876 109.106 147.384 109.016 147.889 108.923C148.142 108.877 148.393 108.834 148.646 108.78L149.406 108.61L150.162 108.435C150.414 108.376 150.665 108.318 150.915 108.248C151.415 108.111 151.913 107.97 152.408 107.827C152.657 107.758 152.9 107.677 153.144 107.595L153.871 107.351L154.595 107.1C154.832 107.013 155.064 106.918 155.298 106.828C155.762 106.64 156.235 106.459 156.683 106.258C157.128 106.054 157.57 105.849 158.007 105.639C158.229 105.537 158.436 105.426 158.644 105.316L159.265 104.983L159.879 104.645L160.458 104.293L161.032 103.939C161.219 103.818 161.416 103.7 161.587 103.577C161.941 103.332 162.291 103.084 162.638 102.835C162.817 102.711 162.972 102.585 163.133 102.459L163.61 102.077L164.083 101.693L164.517 101.308C164.802 101.048 165.099 100.788 165.363 100.527L166.134 99.7426L166.324 99.5442L166.498 99.3476L166.842 98.9545C167.316 98.4279 167.701 97.9069 168.108 97.3784C168.298 97.117 168.472 96.8574 168.653 96.5959L168.92 96.2028L169.16 95.8153L169.633 95.0365L170.052 94.267L170.259 93.8813L170.444 93.5012L170.807 92.7373C171.247 91.7304 171.645 90.7273 171.952 89.7445C172.587 87.7735 172.998 85.8525 173.266 83.9704C173.535 82.0847 173.672 80.236 173.72 78.4096C173.816 74.7568 173.558 71.1948 173.138 67.668C173.574 72.2183 173.711 76.7742 173.187 81.4598C173.052 82.6335 172.882 83.8128 172.639 85.007C172.4 86.2011 172.112 87.4045 171.726 88.6283C170.971 91.0685 169.896 93.5865 168.157 96.1658C167.292 97.4545 166.218 98.7617 164.899 100.049C163.578 101.334 161.988 102.602 160.092 103.761C158.2 104.921 155.999 105.962 153.619 106.785C151.243 107.61 148.708 108.215 146.205 108.604C145.583 108.693 144.962 108.775 144.336 108.854C144.022 108.897 143.717 108.925 143.411 108.953L142.49 109.036L142.029 109.075C141.874 109.088 141.721 109.099 141.572 109.106L140.671 109.153C140.071 109.183 139.473 109.214 138.858 109.216L137.941 109.225C137.633 109.227 137.336 109.236 137.015 109.225C136.384 109.21 135.75 109.19 135.118 109.168C134.471 109.129 133.818 109.081 133.17 109.03C132.847 109.01 132.513 108.966 132.183 108.93L131.191 108.812C128.54 108.465 125.83 107.864 123.317 107.009C120.8 106.158 118.509 105.062 116.569 103.861C116.819 103.848 117.19 103.891 117.387 103.829C117.583 103.77 117.601 103.612 117.172 103.203C119.152 104.323 121.429 105.329 123.888 106.103C126.346 106.881 128.961 107.414 131.512 107.71L132.465 107.812C132.783 107.842 133.104 107.881 133.413 107.896C134.037 107.935 134.663 107.975 135.284 108.005C135.892 108.02 136.5 108.031 137.108 108.042C137.261 108.046 137.409 108.046 137.556 108.04L137.997 108.035L138.879 108.018C139.471 108.012 140.045 107.972 140.624 107.944L141.492 107.894C141.784 107.873 142.08 107.844 142.375 107.818C143.546 107.723 144.744 107.567 145.936 107.388C148.327 107.017 150.743 106.429 153.002 105.641C155.262 104.855 157.355 103.863 159.158 102.756C160.967 101.649 162.494 100.438 163.773 99.203C165.055 97.9681 166.098 96.7072 166.975 95.4556C167.858 94.2003 168.548 92.9542 169.138 91.7193C169.723 90.4844 170.21 89.2569 170.586 88.0479C171.355 85.6226 171.79 83.2417 172.002 80.8906C172.102 79.7168 172.158 78.5468 172.147 77.3861C172.14 76.2253 172.086 75.0683 171.974 73.9205C171.926 73.3438 171.852 72.7727 171.779 72.1979C171.695 71.6268 171.615 71.0538 171.508 70.4864C171.307 69.3442 171.052 68.2113 170.754 67.0802C171.326 67.0413 172.463 66.9634 173.045 66.9244C172.629 63.6777 172.066 60.4606 171.418 57.2565C171.091 55.6544 170.744 54.056 170.384 52.4614C170.017 50.8853 169.649 49.3036 169.28 47.7164C169.228 47.5588 169.172 47.3956 169.115 47.2473C169.065 47.1212 169.012 46.9951 168.956 46.8709C168.93 46.8171 168.906 46.7633 168.881 46.7114C168.857 46.6651 168.835 46.6187 168.811 46.5724C168.785 46.526 168.761 46.4796 168.735 46.4351L168.714 46.4018L168.691 46.3554L168.646 46.2608C168.583 46.1366 168.517 46.0124 168.449 45.8918C168.38 45.7695 168.307 45.6323 168.233 45.5062C168.154 45.3764 168.077 45.2484 167.999 45.1223C167.919 44.9888 167.835 44.8572 167.748 44.7292C167.059 43.6816 166.197 42.6265 165.229 41.6475C165.337 42.9751 165.373 44.2101 165.416 45.3504C165.427 45.6137 165.439 45.877 165.45 46.1385C165.302 45.8362 165.152 45.5358 165 45.241C164.784 44.8219 164.568 44.401 164.35 43.9783L164.313 43.9059C164.302 43.8818 164.284 43.8485 164.291 43.8522C164.292 43.8411 164.291 43.8262 164.302 43.8318L164.315 43.8318L164.317 43.8318L164.31 43.8207L164.297 43.7947L164.273 43.7428L164.17 43.5388C164.039 43.2681 163.883 42.99 163.733 42.7155C163.67 42.5969 163.599 42.4745 163.528 42.354C163.505 42.1685 163.483 41.9831 163.462 41.7995C163.428 41.4751 163.393 41.1487 163.357 40.8224L163.288 40.3143C163.264 40.1456 163.241 39.9768 163.207 39.8007C162.965 39.6004 162.725 39.4094 162.49 39.224C162.245 39.0349 161.999 38.8513 161.761 38.6752C161.64 38.588 161.522 38.5027 161.405 38.4174C161.282 38.3303 161.161 38.245 161.04 38.1597C160.8 37.9928 160.566 37.8333 160.34 37.6813C160.071 37.5311 159.8 37.3939 159.531 37.2659C159.529 37.2641 159.527 37.2641 159.527 37.2622C158.978 36.7393 158.387 36.2127 157.709 35.688C157.343 35.3913 156.893 35.0742 156.459 34.7683C156.238 34.6162 155.99 34.4586 155.753 34.3047C155.514 34.1508 155.272 33.9988 155.019 33.8523C154.769 33.7058 154.518 33.5593 154.263 33.4147C154.003 33.2738 153.74 33.1366 153.476 32.9993C153.344 32.9326 153.213 32.8621 153.077 32.7972L152.668 32.6025C152.394 32.4727 152.121 32.3429 151.841 32.2206C150.717 31.7292 149.537 31.2916 148.313 30.9077C148.006 30.8113 147.693 30.726 147.382 30.637C147.071 30.5462 146.758 30.4609 146.441 30.3849C146.121 30.307 145.802 30.231 145.483 30.1531C145.162 30.0808 144.838 30.014 144.512 29.9473L144.023 29.849C143.86 29.8193 143.696 29.7915 143.532 29.7618C143.201 29.7062 142.871 29.6524 142.54 29.5968C142.208 29.5468 141.874 29.5022 141.54 29.4559C141.205 29.4132 140.871 29.3669 140.532 29.3354C140.194 29.302 139.857 29.2686 139.52 29.2334L139.265 29.2111L139.025 29.1926L138.547 29.1574C138.23 29.1351 137.907 29.111 137.593 29.0925C137.29 29.0795 136.987 29.0647 136.685 29.0498C136.466 29.0424 136.242 29.0331 136.024 29.0276L135.384 29.0201C134.96 29.0183 134.519 29.0146 134.115 29.0276Z" fill="#11AEAE"/>
<path d="M25.7685 74.9507C25.9004 75.0408 26.03 75.1308 26.1587 75.2227C26.1897 75.2459 26.22 75.269 26.2502 75.2922C26.2193 75.3101 26.1881 75.3288 26.1587 75.3484C26.1137 75.3127 26.068 75.2779 26.019 75.2423C25.8942 75.1522 25.77 75.0613 25.6398 74.9739C24.6043 74.2696 23.3344 73.6838 21.8995 73.2817C23.3842 73.658 24.7012 74.241 25.7685 74.9507ZM33.5867 91.6875C33.6285 92.3018 33.6579 92.9205 33.6704 93.542C33.6812 94.1634 33.6742 94.7893 33.6448 95.4187C33.6169 96.0473 33.5634 96.6803 33.4765 97.3187C33.3904 97.9562 33.2725 98.5981 33.1111 99.2436C32.9497 99.89 32.7426 100.541 32.4689 101.196C32.1951 101.85 31.8569 102.508 31.4202 103.162C30.9834 103.816 30.4482 104.468 29.7718 105.093C29.0994 105.717 28.2662 106.312 27.2936 106.819C28.0964 106.378 28.8007 105.868 29.3932 105.329C29.9883 104.789 30.4754 104.22 30.8795 103.644C31.286 103.069 31.6024 102.486 31.8646 101.905C32.1275 101.324 32.3346 100.744 32.5054 100.168C32.8366 99.0189 33.0281 97.8875 33.1608 96.7864C33.2299 96.2363 33.2764 95.6942 33.3245 95.1602C33.3656 94.6279 33.4067 94.1019 33.4462 93.5856C33.4952 92.1154 33.3858 90.696 33.1988 89.3168C33.1205 88.7462 33.0281 88.1827 32.9266 87.6245C33.0011 87.6352 33.0747 87.6442 33.1476 87.6504C33.3353 88.9815 33.4912 90.3269 33.5867 91.6875ZM18.4313 77.9384C18.4368 77.9482 18.4422 77.958 18.4477 77.9678C18.2995 77.9589 18.1405 77.9536 17.9776 77.9527C18.1328 77.9447 18.2848 77.9402 18.4313 77.9384ZM32.4448 85.2886C32.427 85.2084 32.4077 85.129 32.389 85.0488C32.4558 85.2414 32.5169 85.4366 32.5705 85.6363C32.673 86.025 32.7543 86.4289 32.7806 86.8614C32.6752 86.3326 32.5628 85.8084 32.4448 85.2886ZM26.0711 90.0238C26.0548 89.8722 26.0385 89.7198 26.0206 89.5673C25.9191 88.9173 25.7981 88.2656 25.6615 87.6121C25.6608 87.6014 25.6591 87.5898 25.6584 87.5782C25.6863 87.5835 25.7135 87.5889 25.7406 87.5942C25.8484 88.2531 25.943 88.9111 26.0206 89.5673C26.0392 89.6868 26.0572 89.8071 26.0741 89.9266C26.0726 89.9596 26.0726 89.9917 26.0711 90.0238ZM18.1397 83.1176C18.1653 83.2647 18.1893 83.4127 18.2126 83.5607C18.2088 83.5839 18.2049 83.608 18.2009 83.6312C18.1723 83.5117 18.1429 83.3913 18.1118 83.2719C18.1211 83.2193 18.1304 83.1684 18.1397 83.1176ZM16.8738 71.5948C16.6751 71.5993 16.475 71.6046 16.2773 71.6118C16.0857 71.6216 15.8933 71.6332 15.7018 71.6448C15.5039 71.6564 15.334 71.6733 15.1526 71.6885C14.9694 71.7054 14.8074 71.7179 14.5871 71.7455L14.2768 71.7847C14.1729 71.7981 14.0712 71.8106 13.9626 71.8284C13.7493 71.8614 13.5361 71.8962 13.3235 71.9336C12.4734 72.0879 11.6363 72.301 10.8452 72.5604C10.0525 72.8199 9.30696 73.1266 8.62679 73.4654C7.94564 73.8033 7.32983 74.1724 6.77978 74.5558C6.22902 74.94 5.74894 75.3386 5.32227 75.7398C4.47146 76.5458 3.8377 77.3643 3.34668 78.1631C2.70675 79.2749 2.2111 80.3537 1.80462 81.4129C1.40123 82.4721 1.09949 83.5108 0.912589 84.5254C0.726386 85.54 0.657397 86.5288 0.744189 87.4712C0.807849 88.1586 0.955211 88.8219 1.20339 89.4487C1.19329 89.734 1.18096 90.1361 1.17395 90.5409C1.1717 90.7593 1.16848 90.9778 1.16623 91.1784C1.16469 91.379 1.16385 91.5609 1.16539 91.708C1.1724 93.4287 1.26789 95.1682 1.55869 96.9487C1.70535 97.8385 1.89618 98.7381 2.17071 99.6555C2.44693 100.574 2.79508 101.507 3.28147 102.463C3.41187 102.705 3.52966 102.942 3.6794 103.186C3.75161 103.307 3.82144 103.428 3.89743 103.549L4.13705 103.916C4.17898 103.978 4.21613 104.038 4.26114 104.1L4.39533 104.285C4.48689 104.409 4.57143 104.53 4.67 104.655C4.87009 104.903 5.06484 105.149 5.29745 105.399C5.5131 105.646 5.77221 105.897 6.02347 106.143C6.1578 106.267 6.29885 106.391 6.43781 106.514C6.50987 106.575 6.57507 106.637 6.65261 106.698L6.88214 106.881L7.11489 107.064L7.2328 107.154L7.35928 107.244C7.52753 107.364 7.69901 107.482 7.87119 107.599C8.23883 107.832 8.60268 108.062 9.01771 108.278C9.22018 108.387 9.4218 108.495 9.64292 108.595C9.86081 108.697 10.0758 108.8 10.3014 108.895C10.531 108.989 10.7622 109.081 10.9948 109.172C11.1097 109.219 11.2307 109.26 11.3517 109.3L11.7155 109.423C12.689 109.739 13.723 109.992 14.75 110.15C14.8787 110.171 15.0083 110.192 15.137 110.212L15.5194 110.259C15.7738 110.289 16.0321 110.323 16.2842 110.346C16.7846 110.384 17.2942 110.426 17.7766 110.435L18.1436 110.445C18.2653 110.448 18.3902 110.453 18.5058 110.451C18.7424 110.449 18.9783 110.446 19.214 110.443C19.3319 110.44 19.4506 110.441 19.567 110.435L19.9153 110.419C20.1472 110.407 20.3791 110.395 20.611 110.382C20.8491 110.362 21.0873 110.341 21.3247 110.319L21.6807 110.285C21.8017 110.272 21.9227 110.256 22.0437 110.239C22.2857 110.207 22.5277 110.174 22.7682 110.14C23.0126 110.099 23.2568 110.056 23.4997 110.011C23.6214 109.989 23.7424 109.968 23.8643 109.943L24.2296 109.861L24.5934 109.777C24.7144 109.748 24.8354 109.721 24.9557 109.687C25.1961 109.621 25.4358 109.553 25.674 109.484C25.7934 109.451 25.9105 109.412 26.0276 109.373L26.3774 109.255L26.7257 109.135C26.8397 109.093 26.9514 109.047 27.0639 109.004C27.2873 108.914 27.5145 108.826 27.7302 108.73C27.9443 108.632 28.1569 108.533 28.367 108.432C28.4742 108.383 28.5734 108.33 28.6734 108.277L28.9721 108.117L29.2676 107.954L29.5461 107.785L29.8223 107.615C29.9122 107.557 30.0068 107.5 30.0891 107.441C30.2598 107.323 30.428 107.204 30.5949 107.084C30.681 107.024 30.7554 106.964 30.833 106.903L31.0626 106.72L31.2899 106.535L31.4985 106.349C31.6358 106.225 31.7785 106.1 31.9057 105.974L32.2766 105.597L32.368 105.502L32.4518 105.407L32.617 105.218C32.8451 104.965 33.0305 104.714 33.226 104.46C33.3175 104.335 33.4012 104.21 33.4882 104.084L33.6169 103.895L33.7324 103.709L33.9597 103.334L34.1615 102.964L34.2607 102.779L34.3499 102.596L34.5245 102.229C34.7362 101.744 34.9279 101.262 35.0752 100.79C35.3807 99.8419 35.5786 98.9182 35.7073 98.0132C35.8369 97.1065 35.9029 96.2176 35.926 95.3394C35.9719 93.583 35.8478 91.8702 35.646 90.1745C35.8555 92.3624 35.9214 94.553 35.6693 96.806C35.6042 97.3704 35.5228 97.9374 35.4057 98.5116C35.2909 99.0858 35.1521 99.6644 34.9666 100.253C34.6035 101.426 34.0862 102.637 33.2499 103.877C32.8335 104.497 32.3168 105.125 31.6824 105.744C31.0471 106.362 30.2822 106.972 29.37 107.529C28.4601 108.087 27.4014 108.587 26.2564 108.983C25.1131 109.38 23.8937 109.671 22.6898 109.858C22.3905 109.901 22.0918 109.94 21.7908 109.978C21.6395 109.999 21.493 110.012 21.3456 110.025L20.9027 110.066L20.6809 110.084C20.6064 110.091 20.5327 110.096 20.4613 110.099L20.0278 110.122C19.7392 110.136 19.4513 110.151 19.1558 110.152L18.7145 110.157C18.5663 110.157 18.4236 110.162 18.2692 110.157C17.9652 110.149 17.6604 110.14 17.3563 110.129C17.0452 110.11 16.7311 110.087 16.4192 110.063C16.2642 110.053 16.1035 110.032 15.9445 110.015L15.4675 109.958C14.1923 109.791 12.8883 109.502 11.6798 109.091C10.4689 108.682 9.3667 108.155 8.43358 107.577C8.55389 107.571 8.73223 107.591 8.82688 107.562C8.92152 107.534 8.92994 107.458 8.72368 107.261C9.67629 107.799 10.7715 108.283 11.9545 108.655C13.1366 109.03 14.3947 109.285 15.6219 109.428L16.0802 109.477C16.233 109.491 16.3874 109.51 16.5363 109.517C16.8365 109.536 17.1376 109.556 17.4362 109.57C17.7286 109.577 18.021 109.582 18.3135 109.588C18.3871 109.59 18.4585 109.59 18.529 109.587L18.7416 109.584L19.1659 109.576C19.4506 109.573 19.7267 109.554 20.0052 109.54L20.4226 109.516C20.5629 109.507 20.7057 109.492 20.8476 109.48C21.4108 109.434 21.9871 109.359 22.5603 109.273C23.7107 109.095 24.8727 108.812 25.9593 108.433C27.0468 108.055 28.0537 107.578 28.9209 107.046C29.7912 106.514 30.5257 105.931 31.1409 105.338C31.7577 104.744 32.2595 104.137 32.6814 103.536C33.1058 102.932 33.4377 102.333 33.7216 101.739C34.0032 101.145 34.2374 100.555 34.4182 99.9738C34.7882 98.8076 34.9975 97.6628 35.0992 96.5323C35.1473 95.9679 35.1745 95.4054 35.169 94.8472C35.1659 94.2891 35.1396 93.7328 35.086 93.1809C35.0627 92.9036 35.0271 92.629 34.9922 92.3526C34.9518 92.078 34.9131 91.8025 34.8618 91.5297C34.7649 90.9804 34.6424 90.4357 34.4988 89.8918C34.7742 89.8731 35.321 89.8357 35.6012 89.8169C35.4009 88.2558 35.1303 86.7089 34.8183 85.1682C34.661 84.3979 34.4942 83.6294 34.3212 82.8626C34.1443 82.1048 33.9675 81.3443 33.7899 80.5811C33.7651 80.5053 33.7379 80.4268 33.7108 80.3555C33.6867 80.2949 33.661 80.2342 33.634 80.1745C33.6215 80.1486 33.6099 80.1228 33.5982 80.0978C33.5867 80.0755 33.5758 80.0533 33.5641 80.031C33.5518 80.0087 33.5402 79.9864 33.5277 79.965L33.5176 79.9489L33.5068 79.9266L33.4851 79.8812C33.4548 79.8214 33.423 79.7617 33.3904 79.7038C33.3571 79.6449 33.3221 79.5789 33.2864 79.5183C33.2484 79.4559 33.2112 79.3944 33.1739 79.3337C33.1352 79.2696 33.0949 79.2062 33.0529 79.1447C32.7218 78.641 32.3067 78.1337 31.8414 77.6629C31.8934 78.3013 31.9103 78.8951 31.9314 79.4434C31.9367 79.57 31.9422 79.6966 31.9476 79.8223C31.8763 79.677 31.8041 79.5326 31.7312 79.3908C31.6273 79.1893 31.5234 78.9869 31.4186 78.7836L31.4008 78.7489C31.3953 78.7373 31.3868 78.7212 31.3899 78.723C31.3907 78.7177 31.3899 78.7105 31.3953 78.7132L31.4015 78.7132L31.4024 78.7132L31.3993 78.7079L31.393 78.6954L31.3813 78.6704L31.3317 78.5723C31.2689 78.4422 31.1937 78.3084 31.1215 78.1765C31.0912 78.1194 31.0572 78.0606 31.0231 78.0026C31.0121 77.9135 31.0013 77.8243 30.9913 77.736C30.9748 77.58 30.9579 77.4231 30.9408 77.2662L30.9074 77.0219C30.8958 76.9408 30.885 76.8596 30.8687 76.7749C30.7523 76.6786 30.6368 76.5868 30.5235 76.4976C30.4056 76.4067 30.2877 76.3184 30.1728 76.2337C30.1146 76.1918 30.058 76.1508 30.0015 76.1098C29.9425 76.0679 29.8843 76.0269 29.8261 75.9859C29.7105 75.9056 29.5981 75.8289 29.4896 75.7558C29.3599 75.6836 29.2296 75.6176 29.1001 75.5561C29.0994 75.5552 29.0985 75.5552 29.0985 75.5543C28.8341 75.3029 28.5501 75.0497 28.2236 74.7974C28.0475 74.6547 27.8311 74.5023 27.6224 74.3552C27.5161 74.2821 27.3968 74.2063 27.2826 74.1323C27.1679 74.0583 27.0516 73.9852 26.9297 73.9147C26.8095 73.8443 26.6885 73.7739 26.566 73.7043C26.4411 73.6366 26.3146 73.5706 26.1874 73.5046C26.1238 73.4725 26.061 73.4386 25.9958 73.4074L25.7988 73.3138C25.667 73.2514 25.5359 73.189 25.4008 73.1301C24.8602 72.8939 24.2925 72.6834 23.7037 72.4989C23.5563 72.4525 23.4058 72.4115 23.2561 72.3687C23.1064 72.325 22.956 72.284 22.8031 72.2475C22.6496 72.21 22.4959 72.1735 22.3424 72.136C22.188 72.1013 22.0321 72.0692 21.8753 72.0371L21.6403 71.9898C21.562 71.9755 21.4829 71.9622 21.4038 71.9479C21.2448 71.9212 21.0858 71.8953 20.9267 71.8686C20.767 71.8445 20.6064 71.8231 20.4459 71.8008C20.2845 71.7803 20.1239 71.758 19.961 71.7428C19.7981 71.7268 19.636 71.7107 19.4739 71.6938L19.3514 71.6831L19.2357 71.6742L19.0062 71.6572C18.8533 71.6465 18.6981 71.635 18.547 71.626C18.4011 71.6198 18.2553 71.6127 18.1102 71.6055C18.0048 71.602 17.8969 71.5975 17.7922 71.5948L17.4843 71.5913C17.2803 71.5904 17.0684 71.5886 16.8738 71.5948Z" fill="#11AEAE"/>
<g clip-path="url(#clip0_464_1678)">
<path fill-rule="evenodd" clip-rule="evenodd" d="M78.1549 0.696919C79.1602 0.661294 80.1626 0.697102 81.1627 0.804341C86.313 1.90602 91.4692 2.98024 96.6315 4.027C99.2607 5.02282 100.299 6.9206 99.7467 9.72036C99.4064 10.6173 98.9049 11.405 98.2428 12.0836C96.6315 13.8382 95.0201 15.5927 93.4088 17.3473C102.645 23.6128 111.955 29.7717 121.339 35.8239C122.519 36.7831 122.698 37.8932 121.876 39.1539C121.195 39.6911 120.515 40.2282 119.835 40.7653C118.958 41.1219 118.099 41.0504 117.256 40.5504C108.001 34.3292 98.7268 28.1344 89.4342 21.9665C87.6796 23.8642 85.9252 25.7621 84.1705 27.6598C82.0732 29.2761 79.7099 29.8491 77.0807 29.3786C74.7911 28.6992 72.5711 27.8398 70.4205 26.8004C69.0453 25.4663 68.5798 23.8549 69.024 21.9665C71.1725 15.6644 73.3209 9.36228 75.4694 3.0602C76.1457 1.988 77.0407 1.20024 78.1549 0.696919ZM78.5846 2.63051C84.4945 3.50445 90.3668 4.61449 96.2018 5.96059C97.9689 6.86134 98.3627 8.18622 97.3834 9.9352C92.5494 15.3421 87.7155 20.749 82.8815 26.1559C80.9197 27.5655 78.7713 27.9236 76.4362 27.2301C74.7054 26.5611 73.0223 25.8091 71.3873 24.9743C71.0219 24.4586 70.8429 23.8857 70.8502 23.2555C72.8536 16.8514 74.9662 10.4777 77.1881 4.13442C77.5521 3.52048 78.0176 3.01917 78.5846 2.63051ZM91.9049 18.9586C101.165 24.9566 110.403 31.0082 119.62 37.1129C119.997 37.2676 120.176 37.5183 120.157 37.8649C119.727 38.5926 119.118 38.9148 118.331 38.8317C109.272 32.7628 100.177 26.7472 91.0455 20.7848C90.827 20.5593 90.7912 20.3087 90.9381 20.0329C91.3048 19.7025 91.6271 19.3445 91.9049 18.9586Z" fill="#F2F2F2"/>
<path fill-rule="evenodd" clip-rule="evenodd" d="M23.1544 8.00202C23.8 7.94896 24.3371 8.1638 24.7657 8.64656C28.5467 12.9839 32.378 17.2808 36.2598 21.5372C40.3399 21.7878 44.422 21.8236 48.5059 21.6446C51.4987 19.1154 54.578 16.7163 57.7442 14.4473C58.0727 14.4535 58.3234 14.5968 58.4962 14.877C58.6395 15.4499 58.6395 16.0229 58.4962 16.5958C57.0365 23.1066 55.6041 29.6235 54.1993 36.1466C54.056 40.0853 54.056 44.0242 54.1993 47.963C56.7059 50.3262 59.2122 52.6895 61.7188 55.0528C63.4206 47.8332 65.0678 40.6 66.6602 33.3536C67.1419 31.976 68.1087 31.3315 69.5606 31.42C71.4762 31.6643 73.2308 32.3088 74.8243 33.3536C75.4505 34.5326 75.5221 35.7502 75.0391 37.0059C71.6781 44.0107 68.2763 50.9931 64.834 57.9532C66.6243 59.6004 68.4148 61.2474 70.2051 62.8946C80.3135 63.0297 90.4112 63.2802 100.498 63.6465C100.749 66.5085 100.784 69.373 100.606 72.2403C100.104 72.8133 99.6028 72.8133 99.1016 72.2403C99.0301 70.3067 98.9583 68.3731 98.8868 66.4395C95.4329 69.1511 91.9596 71.8366 88.4669 74.4962C90.6153 75.1407 92.7637 75.7852 94.9122 76.4297C95.1986 76.931 95.1986 77.4324 94.9122 77.9337C92.354 77.7064 89.8474 77.1692 87.3926 76.3223C87.2139 78.1803 87.1065 80.0421 87.0704 81.9083C86.4974 82.4813 85.9246 82.4813 85.3516 81.9083C85.2442 79.9044 85.2085 77.8991 85.2442 75.8926C76.8651 75.9285 68.4862 75.8926 60.1075 75.7852C59.5345 75.284 59.5345 74.7825 60.1075 74.2813C68.7012 74.2098 77.295 74.138 85.8887 74.0665C89.5022 71.15 93.1545 68.2855 96.8458 65.4727C87.9001 65.0778 78.9484 64.9345 69.9903 65.043C67.4122 66.9766 64.834 68.9102 62.2559 70.8438C62.0411 70.9871 61.8262 70.9871 61.6114 70.8438C60.3223 70.2708 59.0333 69.6981 57.7442 69.1251C57.1315 68.6625 57.024 68.1254 57.4219 67.5137C57.8654 67.2793 58.3309 67.2435 58.8184 67.4063C59.7889 67.8725 60.7557 68.3381 61.7188 68.8028C63.8982 67.231 66.0107 65.584 68.0567 63.8614C66.8357 62.4613 65.5108 61.1722 64.0821 59.9942C63.7149 60.6211 63.3211 61.23 62.9004 61.8204C61.6823 62.3087 60.8945 61.9147 60.5372 60.6387C60.8992 59.5117 61.0781 58.3659 61.0743 57.2012C58.8543 55.1243 56.6341 53.0477 54.4141 50.9708C54.725 59.0717 55.2262 67.164 55.918 75.2481C58.1677 80.7799 60.4594 86.2941 62.793 91.7911C62.9363 97.6634 62.9363 103.536 62.793 109.408C62.6319 109.543 62.4527 109.65 62.2559 109.731C48.5059 109.874 34.7559 109.874 21.0059 109.731C20.756 99.9704 20.7202 90.195 20.8985 80.4044C21.5229 76.228 22.2391 72.0744 23.0469 67.9434C24.1383 67.4686 24.6754 67.8268 24.6583 69.0176C24.0729 72.8881 23.4642 76.7552 22.8321 80.6192C22.6889 81.2637 22.6889 81.9083 22.8321 82.5528C25.377 90.369 27.9551 98.1752 30.5665 105.971C38.1151 95.7797 45.742 85.6461 53.4473 75.5704C48.05 71.391 42.7148 67.1298 37.4415 62.7872C36.5821 70.8079 35.7227 78.8289 34.8633 86.8497C33.6703 87.6173 33.0615 87.295 33.0372 85.8829C33.9253 77.4674 34.8204 69.0527 35.7227 60.6387C35.8031 60.4419 35.9105 60.2628 36.045 60.1016C41.4416 56.066 46.7769 51.9481 52.0508 47.7481C52.1941 44.0242 52.1941 40.3001 52.0508 36.5762C51.025 34.5962 50.0582 32.5909 49.1504 30.5606C51.1423 27.6001 53.1833 24.6638 55.2735 21.752C55.6632 20.5546 55.8781 19.3372 55.918 18.0997C53.7855 19.8286 51.6729 21.5832 49.5801 23.3633C44.782 23.5067 39.9837 23.5067 35.1856 23.3633C32.5001 20.3914 29.8145 17.4193 27.129 14.4473C28.4551 17.9554 29.8516 21.4645 31.3184 24.9747C30.7781 27.3182 30.3484 29.6815 30.0294 32.0645C31.8927 32.0289 33.7547 32.0645 35.6153 32.1719C36.2482 32.9346 36.105 33.5074 35.1856 33.8907C33.0372 34.034 30.8887 34.034 28.7403 33.8907C28.4683 33.8243 28.2177 33.7169 27.9883 33.5684C28.1356 30.7858 28.5295 28.0285 29.17 25.2969C27.7332 21.5993 26.2651 17.9112 24.7657 14.2325C24.6224 21.752 24.6224 29.2716 24.7657 36.7911C25.3626 43.5956 25.9713 50.3989 26.5919 57.2012C26.2679 59.6479 25.874 62.0829 25.4102 64.5059C24.8373 65.0789 24.2644 65.0789 23.6915 64.5059C23.9067 62.0307 24.229 59.56 24.6583 57.0938C24.0366 50.1842 23.4279 43.2733 22.8321 36.3614C22.6889 27.0516 22.6889 17.7416 22.8321 8.43171C22.9862 8.31479 23.0936 8.17156 23.1544 8.00202ZM54.0919 26.6934C53.871 28.9057 53.4054 31.1257 52.6954 33.3536C52.2573 32.4416 51.7917 31.5463 51.2989 30.668C52.3112 29.3934 53.2421 28.0684 54.0919 26.6934ZM68.9161 33.3536C70.3293 33.49 71.6899 33.8482 72.9981 34.4278C73.3932 34.8633 73.5006 35.3645 73.3204 35.9317C70.2279 42.4748 67.0768 48.9918 63.8672 55.4825C65.2141 48.8208 66.6465 42.1607 68.1641 35.502C68.2857 34.7232 68.5362 34.0071 68.9161 33.3536ZM36.045 40.0137C37.0077 39.7671 38.0103 39.7312 39.0528 39.9063C38.5781 40.6768 38.0768 41.4287 37.5489 42.1622C37.0428 41.4317 36.5415 40.7156 36.045 40.0137ZM51.9434 50.3262C52.076 50.3501 52.1834 50.4216 52.2657 50.5411C52.7581 58.063 53.1878 65.5825 53.5547 73.0997C48.4148 69.0793 43.2942 65.0332 38.1934 60.961C42.8781 57.5276 47.4613 53.9827 51.9434 50.3262ZM54.3067 77.3965C56.5527 82.3006 58.7011 87.2776 60.752 92.3282C57.1871 97.5947 53.4632 102.751 49.5801 107.797C43.6361 107.94 37.6921 107.94 31.7481 107.797C39.3196 97.6857 46.8392 87.5524 54.3067 77.3965ZM22.5098 88.1387C24.7886 94.6524 27.0086 101.205 29.17 107.797C26.9477 107.883 24.7277 107.99 22.5098 108.119C22.5098 101.459 22.5098 94.7989 22.5098 88.1387ZM60.752 95.8731C60.9662 99.8462 61.0378 103.856 60.9669 107.904C58.0271 107.976 55.0909 107.904 52.1583 107.69C55.0281 103.747 57.8927 99.808 60.752 95.8731Z" fill="#F2F2F2"/>
<path fill-rule="evenodd" clip-rule="evenodd" d="M92.5487 8.43202C93.8752 8.1469 94.3408 8.6482 93.9452 9.93593C91.8993 12.2036 89.9298 14.5311 88.037 16.9183C86.8386 17.4395 86.3015 17.0456 86.4257 15.7367C88.4313 13.2662 90.4723 10.8313 92.5487 8.43202Z" fill="#F2F2F2"/>
<path fill-rule="evenodd" clip-rule="evenodd" d="M40.9857 32.0641C42.7775 32.0285 44.5678 32.0641 46.3568 32.1716C46.5912 32.615 46.6271 33.0806 46.4642 33.5681C44.6507 33.8506 42.8246 33.8506 40.9857 33.5681C40.7339 33.069 40.7339 32.5677 40.9857 32.0641Z" fill="#F2F2F2"/>
<path fill-rule="evenodd" clip-rule="evenodd" d="M33.4666 37.8656C36.1917 37.7942 38.9131 37.8658 41.6307 38.0804C41.8498 38.4955 41.8857 38.9252 41.7381 39.3695C40.5565 41.2672 39.3748 43.1651 38.1932 45.0628C37.3391 45.3591 36.7303 45.1086 36.367 44.3109C35.4184 42.628 34.4157 40.9808 33.3592 39.3695C33.2081 38.8476 33.2439 38.3464 33.4666 37.8656ZM36.0447 40.014C36.5413 40.7159 37.0426 41.432 37.5486 42.1624C38.0766 41.429 38.5779 40.677 39.0525 39.9066C38.0101 39.7315 37.0075 39.7674 36.0447 40.014Z" fill="#F2F2F2"/>
<path fill-rule="evenodd" clip-rule="evenodd" d="M58.6035 45.3847C59.8898 45.2723 60.3195 45.8094 59.8926 46.996C58.9904 47.5119 58.4175 47.2611 58.1738 46.2441C58.228 45.9061 58.3711 45.6197 58.6035 45.3847Z" fill="#F2F2F2"/>
<path fill-rule="evenodd" clip-rule="evenodd" d="M86.5324 50.1113C87.7706 50.1721 88.1287 50.7808 87.6067 51.9375C86.0463 52.1139 85.6883 51.5052 86.5324 50.1113Z" fill="#F2F2F2"/>
<path fill-rule="evenodd" clip-rule="evenodd" d="M78.3683 50.9704C79.3811 50.9002 80.3835 50.9719 81.3761 51.1853C81.6625 51.6149 81.6625 52.0446 81.3761 52.4743C78.4199 52.6453 76.0209 53.8626 74.1788 56.1267C73.8334 56.7458 73.547 57.3904 73.3195 58.0603C72.0194 58.8352 71.4465 58.4773 71.6007 56.986C72.8223 53.7939 75.0782 51.7887 78.3683 50.9704Z" fill="#F2F2F2"/>
<path fill-rule="evenodd" clip-rule="evenodd" d="M81.8072 55.4826C84.9917 55.0362 87.749 55.8956 90.0787 58.0608C90.3295 59.2424 89.8639 59.708 88.6822 59.4572C87.2649 58.0414 85.5462 57.361 83.526 57.4162C81.9488 57.5069 80.4449 57.8292 79.0143 58.383C78.4015 57.9205 78.2941 57.3834 78.692 56.7717C79.6762 56.1469 80.7145 55.7172 81.8072 55.4826Z" fill="#F2F2F2"/>
<path fill-rule="evenodd" clip-rule="evenodd" d="M66.9819 69.8774C70.2793 69.8058 73.5735 69.8776 76.8647 70.0922C77.1511 70.5219 77.1511 70.9516 76.8647 71.3813C73.5729 71.6318 70.2785 71.6677 66.9819 71.4887C66.4409 70.9561 66.4409 70.419 66.9819 69.8774Z" fill="#F2F2F2"/>
<path fill-rule="evenodd" clip-rule="evenodd" d="M79.8724 69.8766C80.949 69.841 82.0232 69.8768 83.0951 69.984C83.3295 70.4275 83.3654 70.893 83.2025 71.3805C82.1038 71.6607 80.9937 71.6607 79.8724 71.3805C79.6206 70.8814 79.6206 70.3802 79.8724 69.8766Z" fill="#F2F2F2"/>
<path fill-rule="evenodd" clip-rule="evenodd" d="M99.2088 77.3968C99.7012 77.3418 100.167 77.4134 100.605 77.6117C100.749 83.7706 100.749 89.9293 100.605 96.0882C95.9922 100.486 91.4448 104.962 86.9627 109.516C80.0162 109.659 73.0694 109.659 66.1229 109.516C65.5529 108.788 65.6962 108.215 66.5526 107.797C68.0616 107.761 69.5655 107.653 71.0643 107.475C73.0928 102.917 75.0623 98.3334 76.9725 93.725C78.2615 92.9371 78.8345 93.2953 78.6912 94.7992C76.8651 99.0245 75.0389 103.25 73.2127 107.475C77.2206 107.69 81.2309 107.761 85.244 107.69C85.2081 101.459 85.244 95.2284 85.3514 88.9984C85.9244 88.4254 86.4971 88.4254 87.0701 88.9984C87.1417 94.0113 87.2134 99.0245 87.285 104.037C91.2037 95.1262 95.1783 86.246 99.2088 77.3968ZM89.5408 104.037C92.5504 96.9083 95.6656 89.8185 98.8865 82.7679C99.0298 86.7784 99.0298 90.7887 98.8865 94.7992C95.7997 97.9219 92.6844 101.002 89.5408 104.037Z" fill="#F2F2F2"/>
<path fill-rule="evenodd" clip-rule="evenodd" d="M67.8417 82.9827C68.3047 82.9552 68.7344 83.0626 69.1308 83.305C70.8136 84.8448 72.4967 86.3843 74.1796 87.9241C74.5717 89.1028 74.1779 89.6399 72.9979 89.5355C71.1718 87.8526 69.3456 86.1695 67.5194 84.4866C67.3405 83.9128 67.4479 83.4115 67.8417 82.9827Z" fill="#F2F2F2"/>
<path fill-rule="evenodd" clip-rule="evenodd" d="M52.8024 85.5605C53.1917 85.6188 53.5497 85.7621 53.8767 85.9902C54.9266 87.8035 55.8575 89.6656 56.6696 91.5762C55.2495 94.1107 53.6023 96.5098 51.7282 98.7734C50.6544 99.0592 50.1891 98.6652 50.3317 97.5918C51.8092 95.603 53.2057 93.562 54.5212 91.4688C53.7435 90.0207 52.9915 88.5527 52.2653 87.0645C52.0324 86.3858 52.2116 85.8845 52.8024 85.5605Z" fill="#F2F2F2"/>
<path fill-rule="evenodd" clip-rule="evenodd" d="M80.3027 86.8496C81.0583 86.8176 81.488 87.1758 81.5918 87.9238C81.1864 89.093 80.7208 90.2388 80.1953 91.3613C79.2805 92.0233 78.6719 91.8084 78.3691 90.7168C78.8001 89.2817 79.4446 87.9926 80.3027 86.8496Z" fill="#F2F2F2"/>
<path fill-rule="evenodd" clip-rule="evenodd" d="M104.581 87.4942C111.95 87.1341 118.753 88.8888 124.991 92.7579C126.188 94.0547 126.116 95.272 124.776 96.4102C123.966 96.887 123.107 97.2449 122.198 97.4845C118.611 98.2448 115.031 99.0326 111.456 99.8477C110.003 100.212 108.642 100.785 107.374 101.566C106.924 101.836 106.709 102.23 106.729 102.748C106.823 103.508 107.145 104.153 107.696 104.682C108.369 106.17 108.046 107.352 106.729 108.227C105.134 108.803 103.487 109.054 101.788 108.979C98.7507 108.917 95.7429 108.594 92.7645 108.012C92.3572 107.623 92.2498 107.158 92.4423 106.615C92.6477 106.316 92.9341 106.173 93.3016 106.186C96.077 106.64 98.87 106.926 101.681 107.045C103.037 107.083 104.362 106.904 105.655 106.508C105.839 106.36 105.982 106.181 106.085 105.971C105.636 105.289 105.242 104.573 104.903 103.822C104.507 101.857 105.188 100.389 106.944 99.4181C107.994 98.9289 109.068 98.4992 110.167 98.129C113.437 97.3031 116.731 96.5871 120.05 95.9806C121.276 95.7013 122.458 95.3074 123.595 94.7989C123.553 94.3166 123.302 93.9228 122.843 93.6173C117.068 90.6168 110.945 89.077 104.474 88.9981C104.322 88.4763 104.358 87.975 104.581 87.4942Z" fill="#F2F2F2"/>
<path fill-rule="evenodd" clip-rule="evenodd" d="M80.088 99.7398C81.2696 99.5961 81.7352 100.098 81.4845 101.244C80.9244 102.292 80.4232 103.366 79.9806 104.466C78.5089 105 78.0077 104.499 78.4767 102.962C78.9034 101.823 79.4405 100.749 80.088 99.7398Z" fill="#F2F2F2"/>
<path fill-rule="evenodd" clip-rule="evenodd" d="M118.116 99.9551C122.288 99.9914 123.541 101.925 121.875 105.756C120.273 107.276 118.375 107.813 116.182 107.367C113.966 107.1 111.997 106.276 110.274 104.896C109.678 103.686 109.928 102.719 111.026 101.996C113.309 100.943 115.672 100.263 118.116 99.9551ZM117.686 101.889C118.568 101.832 119.427 101.939 120.264 102.211C120.946 103.571 120.588 104.574 119.19 105.219C116.552 105.732 114.117 105.23 111.885 103.715C113.772 102.869 115.705 102.26 117.686 101.889Z" fill="#F2F2F2"/>
</g>
<defs>
<clipPath id="clip0_464_1678">
<rect width="110" height="110" fill="white" transform="translate(18.3203 0.375)"/>
</clipPath>
</defs>
</svg>
