<svg width="324" height="197" viewBox="0 0 324 197" fill="none" xmlns="http://www.w3.org/2000/svg">
<path d="M234.193 60.1399C234.585 60.5208 234.641 61.517 234.641 66.3811C234.641 72.7102 234.557 73.1204 233.1 72.7395L232.4 72.5637L232.4 67.4359L232.4 62.3082L184.933 62.3082L137.438 62.3082L137.522 65.4434L137.606 68.608L141.919 68.7545C145.615 68.8717 146.259 68.9596 146.539 69.4284C146.763 69.78 146.763 70.073 146.539 70.454C146.259 70.8935 145.671 70.9521 141.835 71.04L137.438 71.1279L137.522 74.2631L137.606 77.3984L149.928 77.5449C156.705 77.6328 162.278 77.75 162.306 77.7793C162.362 77.8086 162.418 86.2474 162.446 96.5029L162.53 115.197L180.985 115.197L199.439 115.197L199.803 113.879C200.027 113.146 200.195 112.472 200.195 112.326C200.195 112.208 193.727 112.121 185.801 112.121C170.147 112.121 170.511 112.15 170.903 110.509L171.071 109.776L186.277 109.776L201.456 109.776L202.828 108.487C207.028 104.444 213.329 104.385 217.418 108.341C219.182 110.04 219.77 110.978 220.499 113.234L221.143 115.197L226.687 115.197L232.26 115.197L232.344 110.157C232.4 105.616 232.456 105.059 232.932 104.825C233.296 104.619 233.604 104.649 234.025 104.971C234.613 105.411 234.641 105.616 234.641 111.212C234.641 115.695 234.557 117.102 234.277 117.366C234.025 117.571 231.644 117.717 227.5 117.746L221.115 117.834L220.751 119.358C220.246 121.409 219.434 123.021 218.202 124.427L217.222 125.599L225.315 125.599C232.176 125.599 233.492 125.658 234.025 126.068C234.753 126.595 234.809 127.152 234.193 127.768C233.8 128.178 228.088 128.236 175.412 128.236C122.736 128.236 117.023 128.178 116.631 127.768C116.127 127.24 116.071 126.83 116.463 126.185C116.687 125.804 118.115 125.716 125.592 125.599L134.442 125.453L133.826 124.867C132.425 123.548 131.109 120.94 130.633 118.479L130.465 117.688L125.9 117.688C123.408 117.688 121.168 117.541 120.944 117.395C120.608 117.16 120.496 116.135 120.44 111.564C120.328 102.861 120.776 100.547 123.128 97.968C124.388 96.5908 125.676 95.8876 130.437 93.9537L134.078 92.4593L137.886 86.599C139.986 83.3759 141.779 80.5629 141.863 80.3285C141.975 79.9476 141.499 79.889 138.95 79.889C136.962 79.889 135.786 79.7718 135.562 79.5374C135.31 79.2737 135.226 76.6952 135.226 69.7214C135.226 60.6966 135.254 60.2571 135.758 59.9641C136.122 59.7589 151.972 59.671 185.045 59.671C228.956 59.671 233.8 59.7296 234.193 60.1399ZM157.349 83.7861C157.349 88.3278 157.013 89.7343 155.473 91.6096C154.885 92.3128 153.793 93.1625 153.036 93.5435C151.636 94.2174 151.412 94.2467 143.823 94.2467L136.038 94.2467L131.277 96.2099C126.348 98.2317 124.864 99.1986 123.8 101.074C123.492 101.572 123.184 102.363 123.072 102.803L122.904 103.623L125.004 103.623C128.253 103.623 128.225 103.565 128.225 107.813C128.225 110.216 128.113 111.535 127.889 111.769C127.693 111.974 126.656 112.121 125.228 112.121L122.904 112.121L122.904 113.732L122.904 115.373L126.712 115.285L130.521 115.197L131.025 113.527C131.669 111.3 132.425 110.099 134.246 108.341C138.53 104.268 145.027 104.531 149.144 108.956C150.432 110.362 151.608 112.589 151.888 114.23L152.084 115.344L156.117 115.344L160.149 115.344L160.149 97.6164L160.149 79.889L158.749 79.889L157.349 79.889L157.349 83.7861ZM141.443 85.5149C139.454 88.6208 137.746 91.3459 137.634 91.551C137.466 91.8733 138.754 91.9026 144.523 91.844C151.58 91.7561 151.664 91.7561 152.672 91.0235C154.549 89.6757 154.969 88.5036 155.053 83.9033L155.165 79.889L150.096 79.889L145.027 79.889L141.443 85.5149ZM122.904 108.018L122.904 109.776L124.444 109.776L125.984 109.776L125.984 108.018L125.984 106.26L124.444 106.26L122.904 106.26L122.904 108.018ZM206.972 108.634C204.956 109.542 203.64 110.831 202.688 112.853C199.887 118.801 203.92 125.599 210.249 125.599C212.461 125.599 214.226 124.896 215.822 123.402C217.642 121.673 218.51 119.827 218.622 117.248C218.958 110.626 212.741 106.026 206.972 108.634ZM137.55 108.927C134.61 110.392 132.901 113.293 132.901 116.809C132.901 121.966 136.822 125.804 141.807 125.541C146.231 125.306 149.508 121.907 149.732 117.336C149.872 114.728 149.256 112.853 147.632 110.948C146.147 109.19 145.167 108.604 143.067 108.165C141.023 107.696 139.622 107.901 137.55 108.927ZM151.748 119.622C151.272 121.526 150.46 123.079 149.144 124.632L148.332 125.599L175.832 125.599L203.332 125.599L202.212 124.281C200.98 122.816 199.971 120.823 199.747 119.358C199.663 118.831 199.551 118.245 199.467 118.039C199.383 117.746 194.511 117.688 175.804 117.746L152.224 117.834L151.748 119.622Z" fill="#F2F2F2"/>
<path d="M154.772 98.9938C155.276 99.5213 155.164 100.342 154.576 100.693C154.268 100.84 153.26 100.986 152.336 100.986C150.936 100.986 150.6 100.869 150.235 100.342C149.927 99.9022 149.899 99.5799 150.095 99.1696C150.319 98.7301 150.712 98.6422 152.392 98.6422C153.624 98.6422 154.576 98.7887 154.772 98.9938Z" fill="#F2F2F2"/>
<path d="M149.592 84.8992C150.488 85.4266 150.124 86.4228 148.416 88.2102C147.016 89.6753 146.652 89.9097 146.036 89.7339C144.831 89.4116 145.056 88.1809 146.624 86.5693C148.276 84.8992 148.948 84.5475 149.592 84.8992Z" fill="#F2F2F2"/>
<path d="M212.07 111.388C216.971 113.205 216.831 120.677 211.874 122.23C207.198 123.695 203.165 118.655 205.377 114.143C205.965 113 207.59 111.593 208.794 111.271C210.166 110.861 210.726 110.89 212.07 111.388ZM208.066 114.494C206.666 115.959 206.946 118.508 208.598 119.534C209.914 120.354 211.314 120.179 212.406 119.036C213.499 117.893 213.667 116.428 212.882 115.051C212.294 113.996 211.566 113.644 210.082 113.615C209.158 113.586 208.766 113.762 208.066 114.494Z" fill="#F2F2F2"/>
<path d="M143.179 111.358C145.363 112.208 146.707 114.259 146.707 116.779C146.707 121.995 140.826 124.485 137.41 120.705C136.457 119.68 135.785 118.01 135.785 116.72C135.785 115.109 137.074 112.794 138.418 111.974C139.93 111.036 141.75 110.801 143.179 111.358ZM139.174 114.493C137.69 116.046 137.97 118.654 139.762 119.621C141.862 120.764 144.131 119.504 144.383 117.013C144.523 115.753 144.467 115.578 143.543 114.611C142.702 113.732 142.366 113.585 141.302 113.585C140.266 113.585 139.874 113.732 139.174 114.493Z" fill="#F2F2F2"/>
<path d="M250.127 77.1637C250.435 77.486 250.351 78.5702 249.987 78.9511C249.763 79.1855 248.363 79.3027 245.535 79.3027C242.146 79.3027 241.334 79.2148 240.97 78.8339C240.438 78.2772 240.41 77.7791 240.858 77.3102C241.222 76.9293 249.791 76.7828 250.127 77.1637Z" fill="#F2F2F2"/>
<path d="M236.265 77.3102C236.713 77.7791 236.685 78.2772 236.153 78.8339C235.761 79.2441 234.08 79.3027 221.871 79.3027C212.853 79.3027 207.812 79.1855 207.448 79.0097C206.86 78.6581 206.748 77.8377 207.252 77.3102C207.728 76.8121 235.789 76.8121 236.265 77.3102Z" fill="#F2F2F2"/>
<path d="M259.228 87.8591C259.424 88.0642 259.564 88.4158 259.564 88.6795C259.564 89.793 259.116 89.8516 250.967 89.8516C243.434 89.8516 243.042 89.8223 242.762 89.2948C242.398 88.5623 242.398 88.5037 242.93 87.9763C243.294 87.5661 244.442 87.5075 251.135 87.5075C256.792 87.5075 258.976 87.5954 259.228 87.8591Z" fill="#F2F2F2"/>
<path d="M240.185 87.859C240.381 88.0641 240.521 88.445 240.521 88.7087C240.521 89.7343 239.877 89.8808 235.173 89.7929C230.608 89.705 230.58 89.705 230.496 89.031C230.3 87.6539 230.748 87.5074 235.453 87.5074C238.505 87.5074 239.961 87.6246 240.185 87.859Z" fill="#F2F2F2"/>
<path d="M225.064 87.8591C225.512 88.3279 225.484 89.119 225.008 89.5293C224.756 89.7637 222.151 89.8516 216.018 89.793C208.149 89.7051 207.365 89.6465 207.085 89.1776C206.861 88.826 206.861 88.533 207.085 88.1521C207.365 87.7126 208.149 87.654 216.046 87.5661C222.571 87.5075 224.812 87.5954 225.064 87.8591Z" fill="#F2F2F2"/>
<path d="M254.384 97.5573C255.056 98.0847 254.776 99.374 253.908 99.6377C253.544 99.7256 252.368 99.8135 251.304 99.8135C248.559 99.8135 247.355 98.8758 248.531 97.6452C249.091 97.0298 253.6 96.9712 254.384 97.5573Z" fill="#F2F2F2"/>
<path d="M243.265 97.528C243.854 98.1433 243.658 99.2274 242.873 99.5205C242.453 99.6963 237.945 99.8135 232.036 99.8135C223.298 99.8135 221.786 99.7549 221.254 99.3447C220.526 98.8172 220.47 98.2605 221.086 97.6452C221.45 97.235 222.878 97.1764 232.232 97.1764C240.185 97.1764 243.013 97.2643 243.265 97.528Z" fill="#F2F2F2"/>
<path d="M245.898 125.921C246.57 126.331 246.542 127.562 245.842 127.943C245.534 128.119 244.133 128.236 242.593 128.177C240.185 128.089 239.849 128.031 239.485 127.445C239.121 126.888 239.149 126.741 239.653 126.214C240.157 125.687 240.577 125.599 242.817 125.599C244.245 125.599 245.646 125.745 245.898 125.921Z" fill="#F2F2F2"/>
<path d="M216.997 133.012C217.838 133.452 218.006 134.155 217.417 134.8C216.997 135.21 215.541 135.269 203.723 135.269C193.81 135.269 190.421 135.181 190.169 134.917C189.581 134.302 189.777 133.217 190.561 132.924C191.682 132.456 216.129 132.544 216.997 133.012Z" fill="#F2F2F2"/>
<path d="M180.872 133.012C181.713 133.452 181.881 134.155 181.292 134.8C180.9 135.181 180.116 135.269 176.28 135.269C171.239 135.269 170.567 135.063 170.875 133.745C170.987 133.305 171.323 132.924 171.687 132.807C172.919 132.485 180.144 132.631 180.872 133.012Z" fill="#F2F2F2"/>
<path d="M161.745 132.924C162.445 133.217 162.614 134.331 162.053 134.917C161.801 135.181 159.057 135.269 151.44 135.269C142.31 135.269 141.106 135.21 140.686 134.8C140.098 134.155 140.266 133.452 141.106 133.012C141.946 132.573 160.737 132.485 161.745 132.924Z" fill="#F2F2F2"/>
<path d="M322.177 165.375L35.0834 165.375" stroke="#F2F2F2" stroke-width="2.48681" stroke-linecap="round" stroke-dasharray="2.49 8.29"/>
<path d="M4.22597 164.684C10.5786 164.684 16.9309 164.685 23.2835 164.685C26.0923 160.405 28.9016 156.124 31.7094 151.845C22.5483 156.125 13.3871 160.405 4.22597 164.684ZM0.876252 166.022C0.275023 165.796 0.310351 164.967 0.876413 164.728C11.6929 159.675 22.5089 154.623 33.3256 149.57C33.9508 149.277 34.5565 150.017 34.1943 150.571C30.9547 155.506 27.7175 160.441 24.479 165.376C27.7173 170.31 30.9559 175.244 34.1945 180.179C34.556 180.732 33.9508 181.473 33.3258 181.181C22.5096 176.128 11.6929 171.074 0.876252 166.022ZM23.2832 166.066C16.9317 166.066 10.5786 166.066 4.22597 166.066C13.3872 170.346 22.5482 174.625 31.7094 178.905C28.9016 174.625 26.0926 170.345 23.2832 166.066Z" fill="#F2F2F2"/>
<path d="M247.772 116.376C247.721 116.358 247.676 116.34 247.629 116.321L247.489 116.265L247.347 116.203L247.276 116.171L247.205 116.137L247.063 116.067L246.921 115.991L246.885 115.971C246.874 115.965 246.862 115.958 246.849 115.951L246.774 115.905L246.699 115.86L246.662 115.837L246.621 115.809C246.566 115.773 246.512 115.736 246.459 115.698C246.406 115.659 246.354 115.618 246.301 115.578C246.095 115.413 245.902 115.228 245.732 115.021C245.563 114.814 245.416 114.586 245.302 114.34C245.187 114.094 245.104 113.831 245.059 113.559C244.97 113.014 245.033 112.442 245.225 111.91C245.321 111.644 245.447 111.386 245.596 111.142L245.653 111.051C245.672 111.021 245.692 110.991 245.712 110.961L245.773 110.873C245.794 110.844 245.813 110.818 245.833 110.79L245.894 110.709L245.951 110.637L246.008 110.566L246.066 110.497C246.379 110.132 246.726 109.823 247.096 109.554C247.466 109.286 247.862 109.06 248.281 108.875C248.637 108.718 249.004 108.598 249.381 108.514L249.251 108.557L249.11 108.611C249.062 108.628 249.018 108.65 248.971 108.67C248.926 108.691 248.88 108.71 248.836 108.733L248.703 108.801L248.574 108.874C248.319 109.02 248.082 109.192 247.863 109.381C247.727 109.466 247.593 109.555 247.464 109.65C247.24 109.798 247.049 109.958 246.895 110.111C246.688 110.272 246.488 110.448 246.298 110.646C246.251 110.697 246.204 110.746 246.158 110.799L246.09 110.878L246.018 110.967C245.97 111.024 245.921 111.092 245.873 111.157C245.849 111.189 245.827 111.223 245.804 111.256C245.782 111.29 245.759 111.323 245.737 111.358C245.564 111.632 245.418 111.927 245.32 112.239C245.22 112.55 245.167 112.877 245.166 113.206C245.166 113.206 245.166 113.226 245.166 113.257C245.166 113.287 245.166 113.328 245.168 113.369C245.17 113.409 245.173 113.45 245.175 113.48C245.176 113.496 245.177 113.508 245.177 113.517C245.178 113.526 245.179 113.531 245.179 113.531C245.202 113.746 245.261 113.952 245.333 114.12C245.367 114.205 245.408 114.279 245.445 114.344C245.484 114.407 245.522 114.459 245.554 114.5C245.598 114.551 245.63 114.577 245.653 114.586L245.688 114.644C245.701 114.663 245.714 114.681 245.727 114.699C245.752 114.736 245.778 114.773 245.805 114.809L245.889 114.915C245.903 114.932 245.917 114.95 245.932 114.967L245.976 115.017C246.006 115.05 246.036 115.083 246.067 115.116L246.163 115.21L246.211 115.257C246.227 115.272 246.244 115.287 246.261 115.302L246.362 115.39C246.395 115.419 246.431 115.446 246.466 115.473C246.501 115.501 246.536 115.528 246.572 115.555L246.681 115.631L246.735 115.669L246.763 115.688L246.788 115.704L246.89 115.767L246.942 115.799C246.959 115.81 246.975 115.818 246.991 115.827L247.089 115.882C247.122 115.9 247.155 115.918 247.188 115.935L247.286 115.984C247.319 116.001 247.351 116.018 247.384 116.032C247.45 116.062 247.516 116.093 247.581 116.121L247.663 116.155C247.672 116.164 247.681 116.172 247.69 116.18C247.801 116.282 247.919 116.377 248.039 116.467C247.95 116.439 247.86 116.409 247.772 116.376ZM246.083 114.857L246.168 114.946L246.211 114.99L246.255 115.033L246.345 115.116C246.375 115.144 246.407 115.169 246.438 115.196C246.47 115.222 246.501 115.249 246.533 115.273C246.566 115.298 246.598 115.322 246.631 115.346L246.68 115.383C246.697 115.395 246.714 115.406 246.731 115.418C246.764 115.44 246.798 115.463 246.832 115.485C246.849 115.496 246.866 115.509 246.882 115.518L246.931 115.547C246.963 115.566 246.995 115.586 247.028 115.605C247.06 115.625 247.091 115.64 247.123 115.658C247.154 115.674 247.185 115.691 247.217 115.708C247.227 115.714 247.238 115.72 247.249 115.725C247.273 115.753 247.297 115.781 247.321 115.809C247.333 115.822 247.345 115.835 247.357 115.848C247.3 115.82 247.244 115.79 247.188 115.76L247.096 115.708C247.065 115.69 247.035 115.675 247.003 115.654L246.908 115.594C246.876 115.574 246.845 115.555 246.811 115.53L246.711 115.46L246.661 115.424L246.612 115.386C246.548 115.335 246.483 115.285 246.422 115.229L246.33 115.146L246.241 115.059C246.182 115.001 246.128 114.937 246.073 114.875C245.967 114.747 245.867 114.613 245.783 114.467C245.871 114.606 245.975 114.734 246.083 114.857ZM251.336 111.744C251.376 111.736 251.404 111.731 251.404 111.731C251.404 111.731 251.411 111.736 251.419 111.742C251.426 111.747 251.433 111.753 251.433 111.753C251.433 111.753 251.404 111.755 251.36 111.762C251.338 111.765 251.314 111.769 251.287 111.774C251.261 111.779 251.232 111.785 251.205 111.792C251.177 111.799 251.15 111.807 251.124 111.815C251.099 111.823 251.076 111.831 251.057 111.838C251.037 111.846 251.021 111.852 251.01 111.857C250.999 111.862 250.992 111.864 250.992 111.864C250.992 111.864 250.998 111.861 251.009 111.856C251.019 111.851 251.034 111.844 251.052 111.836C251.088 111.819 251.138 111.8 251.189 111.783C251.241 111.766 251.294 111.753 251.336 111.744ZM251.833 112.455C251.83 112.46 251.828 112.465 251.825 112.47C251.783 112.533 251.721 112.58 251.652 112.608C251.584 112.635 251.511 112.647 251.44 112.649C251.422 112.65 251.403 112.649 251.384 112.648C251.386 112.642 251.387 112.637 251.388 112.632C251.39 112.617 251.39 112.601 251.388 112.583C251.401 112.579 251.414 112.574 251.427 112.569C251.432 112.569 251.437 112.571 251.442 112.571C251.475 112.574 251.508 112.576 251.542 112.573C251.61 112.567 251.682 112.546 251.741 112.498C251.759 112.483 251.776 112.465 251.79 112.446C251.805 112.449 251.819 112.453 251.833 112.455ZM250.376 113.187C250.377 113.187 250.378 113.187 250.379 113.187C250.38 113.188 250.38 113.188 250.381 113.188C250.38 113.188 250.38 113.188 250.38 113.188C250.379 113.187 250.377 113.187 250.376 113.187ZM250.429 113.198C250.429 113.198 250.429 113.198 250.429 113.198C250.43 113.198 250.43 113.198 250.43 113.198C250.43 113.198 250.429 113.198 250.429 113.198ZM250.328 113.181L250.329 113.181L250.329 113.181L250.328 113.181C250.328 113.181 250.328 113.181 250.328 113.181ZM250.3 113.182C250.3 113.182 250.3 113.182 250.3 113.182L250.301 113.181L250.301 113.182L250.3 113.182ZM250.3 113.182C250.3 113.182 250.3 113.182 250.299 113.182L250.299 113.182C250.299 113.182 250.299 113.182 250.3 113.182ZM250.622 113.272C250.623 113.272 250.623 113.272 250.623 113.272C250.623 113.272 250.624 113.273 250.624 113.273C250.622 113.272 250.62 113.271 250.618 113.27C250.62 113.27 250.621 113.271 250.622 113.272ZM250.793 113.369C250.793 113.369 250.792 113.369 250.792 113.369C250.792 113.369 250.792 113.369 250.792 113.369L250.792 113.369L250.792 113.369C250.792 113.369 250.793 113.369 250.793 113.369C250.793 113.369 250.793 113.369 250.794 113.37C250.793 113.369 250.793 113.369 250.793 113.369C250.793 113.369 250.793 113.369 250.793 113.369ZM250.787 113.365C250.787 113.365 250.787 113.365 250.786 113.365C250.786 113.365 250.787 113.365 250.787 113.365L250.787 113.365ZM250.769 113.353C250.77 113.354 250.77 113.354 250.771 113.354C250.771 113.354 250.77 113.354 250.77 113.354C250.77 113.354 250.769 113.353 250.769 113.353C250.769 113.353 250.769 113.353 250.769 113.353ZM250.342 113.182L250.342 113.182C250.342 113.182 250.342 113.182 250.342 113.182C250.342 113.182 250.342 113.182 250.342 113.182ZM252.061 112.515C252.048 112.59 252.025 112.664 251.992 112.732C251.958 112.8 251.913 112.862 251.859 112.915C251.839 112.935 251.818 112.952 251.796 112.97C251.776 112.968 251.755 112.966 251.734 112.963C251.733 112.963 251.731 112.963 251.73 112.963C251.749 112.952 251.768 112.94 251.786 112.927C251.845 112.883 251.898 112.828 251.941 112.765C252.004 112.671 252.04 112.559 252.051 112.444C252.053 112.443 252.055 112.442 252.057 112.442C252.057 112.45 252.057 112.458 252.056 112.468C252.055 112.479 252.054 112.491 252.053 112.5C252.052 112.519 252.053 112.53 252.061 112.515ZM252.055 112.319C252.056 112.336 252.057 112.352 252.058 112.368C252.057 112.365 252.056 112.362 252.055 112.359C252.056 112.346 252.055 112.333 252.055 112.319ZM251.82 111.975L251.816 111.961C251.819 111.968 251.822 111.975 251.825 111.982C251.823 111.98 251.822 111.978 251.82 111.977C251.82 111.976 251.82 111.975 251.82 111.975ZM251.752 111.845C251.755 111.85 251.757 111.854 251.76 111.858C251.782 111.896 251.801 111.933 251.816 111.972C251.809 111.964 251.801 111.956 251.793 111.948C251.783 111.915 251.769 111.881 251.752 111.845ZM252.799 111.805C252.799 111.805 252.799 111.805 252.799 111.805C252.797 111.811 252.795 111.818 252.794 111.825C252.793 111.83 252.79 111.836 252.789 111.843C252.768 111.859 252.755 111.87 252.761 111.864L252.761 111.863L252.761 111.86L252.761 111.855L252.759 111.834L252.758 111.822C252.758 111.821 252.758 111.821 252.758 111.82C252.773 111.815 252.787 111.809 252.799 111.805ZM245.636 113.681C245.675 113.809 245.728 113.931 245.786 114.049L245.832 114.136L245.856 114.179L245.882 114.221L245.934 114.303C245.952 114.33 245.971 114.356 245.99 114.383C246.141 114.593 246.321 114.776 246.515 114.933C246.563 114.972 246.614 115.008 246.663 115.046C246.688 115.065 246.714 115.081 246.739 115.099L246.816 115.15L246.843 115.167C246.892 115.246 246.943 115.323 246.996 115.398C247.05 115.474 247.106 115.548 247.164 115.621C247.049 115.558 246.933 115.489 246.808 115.402C246.724 115.346 246.643 115.282 246.562 115.218C246.483 115.151 246.403 115.085 246.33 115.011C246.181 114.865 246.043 114.704 245.925 114.525C245.808 114.347 245.711 114.153 245.639 113.946C245.568 113.74 245.523 113.521 245.511 113.297L245.507 113.192C245.506 113.174 245.506 113.157 245.507 113.139L245.508 113.086C245.509 113.016 245.517 112.947 245.523 112.877C245.519 113.153 245.554 113.426 245.636 113.681ZM255.952 111.641L255.952 111.639L255.951 111.636L255.95 111.628L255.949 111.613L255.947 111.584L255.942 111.531L255.934 111.449L255.924 111.368L255.915 111.302C255.902 111.215 255.885 111.127 255.866 111.039C255.788 110.689 255.654 110.339 255.478 110.028C255.302 109.717 255.088 109.449 254.867 109.227C254.645 109.004 254.415 108.827 254.189 108.679C253.963 108.532 253.74 108.414 253.522 108.315C253.413 108.266 253.305 108.222 253.197 108.181C253.09 108.14 252.984 108.103 252.879 108.069C252.472 107.953 252.085 107.884 251.703 107.843C251.512 107.822 251.323 107.809 251.133 107.802C251.038 107.798 250.944 107.797 250.848 107.797C250.8 107.797 250.752 107.797 250.704 107.798L250.632 107.8L250.595 107.801L250.558 107.803C250.342 107.811 250.131 107.832 249.926 107.862C249.72 107.893 249.521 107.935 249.325 107.984C249.131 108.035 248.941 108.094 248.755 108.16C248.57 108.227 248.389 108.3 248.212 108.381C248.037 108.463 247.864 108.55 247.696 108.645C247.528 108.741 247.363 108.84 247.203 108.95C246.882 109.167 246.577 109.411 246.289 109.689C246.145 109.828 246.005 109.974 245.87 110.132C245.836 110.171 245.803 110.212 245.77 110.253C245.737 110.293 245.704 110.335 245.672 110.377L245.624 110.44L245.612 110.456L245.598 110.475L245.572 110.511L245.519 110.585C245.502 110.61 245.485 110.633 245.467 110.661C245.175 111.09 244.949 111.562 244.818 112.055C244.709 112.47 244.672 112.886 244.708 113.283C244.711 113.308 244.713 113.333 244.716 113.357C244.718 113.382 244.72 113.407 244.725 113.431C244.732 113.48 244.739 113.529 244.747 113.577C244.755 113.625 244.766 113.673 244.777 113.72C244.782 113.744 244.786 113.768 244.793 113.791C244.799 113.815 244.806 113.838 244.812 113.861C244.819 113.884 244.825 113.907 244.832 113.931L244.842 113.965L244.853 113.999C244.868 114.044 244.884 114.089 244.9 114.134C244.916 114.179 244.935 114.222 244.953 114.265L244.98 114.33C244.99 114.352 245 114.373 245.01 114.394C245.03 114.436 245.051 114.477 245.072 114.519C245.094 114.559 245.117 114.6 245.14 114.639L245.175 114.699L245.212 114.757C245.236 114.795 245.261 114.833 245.287 114.87C245.312 114.908 245.34 114.944 245.367 114.98C245.394 115.015 245.421 115.052 245.45 115.086C245.508 115.154 245.564 115.223 245.627 115.285C245.871 115.541 246.145 115.756 246.429 115.935C246.465 115.957 246.501 115.978 246.537 116.001L246.55 116.009L246.562 116.016L246.587 116.029L246.635 116.055C246.699 116.089 246.767 116.127 246.826 116.154C246.886 116.182 246.947 116.212 247.007 116.238C247.067 116.263 247.127 116.288 247.187 116.313C247.246 116.336 247.306 116.357 247.365 116.38C247.395 116.39 247.425 116.402 247.454 116.411L247.541 116.44L247.629 116.469L247.673 116.483L247.72 116.497C247.781 116.516 247.843 116.535 247.906 116.551C248.033 116.585 248.159 116.615 248.286 116.64C248.367 116.693 248.451 116.745 248.536 116.793C249.142 117.138 249.83 117.35 250.539 117.385C250.801 117.398 251.064 117.387 251.323 117.35C251.582 117.313 251.838 117.253 252.087 117.167C252.338 117.082 252.581 116.971 252.816 116.837C252.875 116.803 252.933 116.769 252.991 116.732L253.078 116.677C253.107 116.659 253.135 116.639 253.164 116.619L253.249 116.559C253.277 116.54 253.305 116.517 253.333 116.496C253.388 116.453 253.445 116.412 253.498 116.365C253.608 116.275 253.715 116.177 253.819 116.078C253.871 116.027 253.923 115.976 253.974 115.925C254.025 115.871 254.075 115.818 254.125 115.765C254.323 115.548 254.511 115.317 254.688 115.077C254.731 115.016 254.776 114.957 254.818 114.895C254.861 114.834 254.903 114.772 254.944 114.709C254.984 114.647 255.025 114.584 255.064 114.521L255.079 114.497L255.09 114.478L255.111 114.443L255.153 114.372C255.181 114.324 255.206 114.278 255.233 114.23L255.272 114.16L255.31 114.087C255.336 114.038 255.361 113.99 255.386 113.939L255.423 113.863L255.442 113.825L255.46 113.786C255.557 113.579 255.649 113.358 255.732 113.106C255.753 113.041 255.772 112.976 255.792 112.911C255.811 112.841 255.829 112.771 255.847 112.7L255.871 112.586L255.883 112.529C255.887 112.51 255.891 112.491 255.894 112.47C255.901 112.428 255.908 112.387 255.914 112.345C255.921 112.303 255.927 112.263 255.932 112.216C255.936 112.17 255.941 112.124 255.945 112.078L255.948 112.044L255.949 112.027L255.95 112.007L255.953 111.932C255.955 111.881 255.956 111.83 255.956 111.78C255.96 111.899 255.951 111.612 255.952 111.641Z" fill="#11AEAE"/>
<path d="M262.492 117.985C262.419 117.959 262.354 117.933 262.287 117.906L262.088 117.827L261.886 117.738L261.785 117.693L261.684 117.644L261.481 117.545L261.278 117.435L261.228 117.408C261.211 117.399 261.194 117.389 261.176 117.378L261.069 117.314L260.962 117.249L260.908 117.216L260.85 117.177C260.773 117.125 260.696 117.072 260.619 117.018C260.543 116.962 260.469 116.904 260.395 116.847C260.101 116.612 259.826 116.348 259.584 116.053C259.342 115.759 259.133 115.433 258.97 115.082C258.807 114.732 258.688 114.356 258.624 113.969C258.498 113.192 258.588 112.377 258.861 111.619C258.997 111.239 259.177 110.872 259.39 110.524L259.47 110.394C259.498 110.351 259.527 110.309 259.556 110.267L259.643 110.14C259.671 110.1 259.699 110.062 259.728 110.023L259.815 109.907L259.896 109.805L259.977 109.703L260.06 109.605C260.506 109.085 261 108.644 261.528 108.261C262.055 107.878 262.619 107.557 263.217 107.293C263.724 107.069 264.247 106.898 264.785 106.778L264.599 106.84L264.398 106.917C264.33 106.941 264.267 106.973 264.201 107.001C264.136 107.03 264.07 107.058 264.008 107.091L263.819 107.187L263.635 107.291C263.271 107.5 262.933 107.745 262.621 108.013C262.426 108.134 262.237 108.263 262.052 108.398C261.733 108.608 261.46 108.836 261.241 109.054C260.946 109.283 260.66 109.535 260.39 109.818C260.324 109.889 260.256 109.959 260.191 110.035L260.093 110.147L259.99 110.274C259.923 110.356 259.853 110.453 259.785 110.545C259.751 110.591 259.719 110.64 259.686 110.687C259.654 110.735 259.621 110.782 259.591 110.832C259.344 111.223 259.136 111.643 258.996 112.088C258.853 112.531 258.777 112.998 258.776 113.466C258.776 113.466 258.776 113.495 258.776 113.538C258.777 113.582 258.776 113.64 258.779 113.698C258.783 113.756 258.786 113.814 258.789 113.857C258.791 113.879 258.792 113.897 258.793 113.91C258.794 113.923 258.795 113.93 258.795 113.93C258.828 114.236 258.912 114.529 259.014 114.769C259.063 114.89 259.122 114.995 259.174 115.088C259.229 115.178 259.284 115.253 259.33 115.31C259.392 115.383 259.438 115.42 259.47 115.434L259.521 115.515C259.539 115.542 259.557 115.568 259.576 115.594C259.612 115.647 259.649 115.699 259.687 115.751L259.807 115.901C259.827 115.926 259.847 115.951 259.868 115.976L259.932 116.047C259.975 116.094 260.017 116.142 260.061 116.188L260.197 116.323L260.266 116.39C260.289 116.411 260.313 116.432 260.337 116.453L260.481 116.579C260.529 116.621 260.58 116.658 260.629 116.698C260.679 116.737 260.729 116.776 260.78 116.814L260.936 116.923L261.014 116.977L261.052 117.003L261.089 117.026L261.234 117.117L261.308 117.162C261.332 117.177 261.355 117.189 261.378 117.202L261.518 117.28C261.565 117.307 261.612 117.332 261.658 117.355L261.798 117.426C261.845 117.45 261.892 117.474 261.939 117.495C262.032 117.537 262.126 117.581 262.219 117.621L262.336 117.67C262.348 117.682 262.361 117.694 262.374 117.706C262.533 117.85 262.7 117.986 262.872 118.115C262.744 118.075 262.616 118.031 262.492 117.985ZM260.084 115.82L260.205 115.947L260.266 116.01L260.329 116.07L260.457 116.189C260.5 116.228 260.546 116.265 260.59 116.302C260.635 116.339 260.679 116.378 260.725 116.412C260.772 116.447 260.818 116.482 260.865 116.517L260.935 116.569C260.958 116.586 260.983 116.602 261.007 116.618C261.055 116.651 261.103 116.683 261.152 116.715C261.175 116.731 261.2 116.748 261.223 116.762L261.292 116.803C261.338 116.83 261.384 116.858 261.43 116.885C261.477 116.914 261.521 116.936 261.565 116.961C261.61 116.985 261.655 117.009 261.7 117.033C261.715 117.041 261.73 117.049 261.745 117.056C261.779 117.097 261.814 117.137 261.848 117.177C261.865 117.195 261.882 117.213 261.899 117.232C261.819 117.192 261.739 117.15 261.658 117.106L261.528 117.032C261.483 117.007 261.441 116.985 261.395 116.955L261.259 116.87C261.214 116.841 261.17 116.814 261.121 116.779L260.978 116.678L260.907 116.627L260.838 116.573C260.746 116.501 260.653 116.429 260.567 116.35L260.435 116.232L260.31 116.107C260.225 116.025 260.148 115.934 260.069 115.845C259.919 115.663 259.776 115.471 259.657 115.263C259.781 115.462 259.93 115.644 260.084 115.82ZM267.571 111.382C267.628 111.37 267.668 111.363 267.668 111.363C267.668 111.363 267.679 111.371 267.689 111.379C267.7 111.387 267.71 111.395 267.71 111.395C267.71 111.395 267.668 111.398 267.606 111.407C267.575 111.412 267.54 111.417 267.501 111.425C267.464 111.432 267.424 111.441 267.384 111.451C267.345 111.46 267.306 111.472 267.27 111.483C267.234 111.494 267.201 111.506 267.173 111.517C267.145 111.527 267.122 111.536 267.106 111.543C267.091 111.55 267.082 111.553 267.082 111.553C267.082 111.553 267.09 111.549 267.105 111.542C267.119 111.534 267.14 111.524 267.166 111.513C267.218 111.49 267.289 111.462 267.362 111.438C267.436 111.414 267.512 111.395 267.571 111.382ZM268.28 112.396C268.276 112.403 268.272 112.41 268.268 112.417C268.208 112.507 268.12 112.574 268.022 112.613C267.925 112.653 267.821 112.669 267.72 112.672C267.693 112.673 267.667 112.673 267.64 112.67C267.642 112.663 267.644 112.656 267.645 112.648C267.649 112.627 267.648 112.604 267.645 112.578C267.664 112.572 267.683 112.565 267.701 112.557C267.709 112.559 267.716 112.56 267.723 112.561C267.769 112.565 267.817 112.568 267.865 112.563C267.962 112.555 268.065 112.526 268.149 112.456C268.175 112.435 268.198 112.41 268.219 112.383C268.24 112.388 268.26 112.392 268.28 112.396ZM266.203 113.439C266.204 113.439 266.206 113.439 266.207 113.439C266.208 113.44 266.209 113.44 266.21 113.44C266.209 113.44 266.208 113.44 266.208 113.44C266.207 113.439 266.205 113.439 266.203 113.439ZM266.278 113.454C266.279 113.454 266.279 113.454 266.279 113.454C266.28 113.454 266.28 113.455 266.28 113.455C266.28 113.454 266.279 113.454 266.278 113.454ZM266.135 113.431L266.136 113.431L266.136 113.431L266.134 113.431C266.135 113.431 266.135 113.431 266.135 113.431ZM266.095 113.431C266.095 113.431 266.095 113.431 266.095 113.431L266.097 113.431L266.096 113.431L266.095 113.431ZM266.095 113.431C266.095 113.431 266.094 113.431 266.094 113.431L266.093 113.431C266.094 113.431 266.094 113.431 266.095 113.431ZM266.554 113.56C266.554 113.56 266.555 113.56 266.555 113.56C266.556 113.561 266.556 113.561 266.557 113.561C266.554 113.56 266.551 113.559 266.548 113.557C266.55 113.558 266.552 113.559 266.554 113.56ZM266.797 113.699C266.797 113.698 266.796 113.698 266.796 113.698C266.796 113.698 266.796 113.698 266.796 113.698L266.796 113.698L266.796 113.698C266.796 113.698 266.797 113.698 266.797 113.698C266.798 113.699 266.798 113.699 266.799 113.7C266.798 113.699 266.797 113.699 266.797 113.698C266.797 113.698 266.797 113.698 266.797 113.699ZM266.789 113.693C266.789 113.693 266.788 113.692 266.788 113.692C266.788 113.692 266.789 113.693 266.789 113.693L266.789 113.693ZM266.764 113.676C266.764 113.677 266.765 113.677 266.766 113.677C266.765 113.677 266.765 113.677 266.765 113.677C266.764 113.676 266.764 113.676 266.763 113.676C266.763 113.676 266.764 113.676 266.764 113.676ZM266.154 113.432L266.155 113.432C266.155 113.432 266.155 113.432 266.155 113.432C266.155 113.432 266.155 113.432 266.154 113.432ZM268.604 112.481C268.587 112.588 268.554 112.693 268.506 112.79C268.458 112.887 268.393 112.975 268.317 113.051C268.289 113.079 268.259 113.105 268.228 113.129C268.198 113.127 268.169 113.124 268.139 113.12C268.137 113.12 268.135 113.12 268.133 113.12C268.16 113.103 268.187 113.086 268.212 113.068C268.297 113.005 268.373 112.927 268.433 112.837C268.524 112.703 268.574 112.544 268.591 112.379C268.594 112.378 268.597 112.377 268.599 112.376C268.599 112.388 268.598 112.4 268.598 112.414C268.596 112.43 268.594 112.446 268.593 112.46C268.592 112.487 268.593 112.502 268.604 112.481ZM268.596 112.202C268.598 112.225 268.6 112.249 268.6 112.272C268.599 112.267 268.598 112.263 268.597 112.259C268.597 112.24 268.597 112.221 268.596 112.202ZM268.261 111.711L268.256 111.692C268.26 111.702 268.264 111.711 268.268 111.721C268.266 111.719 268.264 111.716 268.262 111.714C268.261 111.713 268.261 111.712 268.261 111.711ZM268.164 111.526C268.168 111.533 268.172 111.539 268.176 111.545C268.207 111.598 268.235 111.652 268.256 111.707C268.245 111.696 268.234 111.684 268.223 111.673C268.208 111.626 268.188 111.577 268.164 111.526ZM269.656 111.468C269.656 111.469 269.656 111.469 269.656 111.469C269.654 111.478 269.651 111.487 269.649 111.497C269.648 111.505 269.645 111.514 269.642 111.523C269.613 111.547 269.593 111.562 269.603 111.554L269.603 111.552L269.602 111.548L269.602 111.541L269.599 111.511L269.598 111.493C269.598 111.492 269.598 111.492 269.598 111.491C269.619 111.483 269.639 111.475 269.656 111.468ZM259.446 114.143C259.501 114.326 259.577 114.5 259.66 114.668L259.726 114.792L259.76 114.853L259.797 114.912L259.871 115.03C259.897 115.069 259.925 115.106 259.951 115.143C260.167 115.442 260.423 115.704 260.7 115.927C260.769 115.984 260.841 116.035 260.911 116.088C260.946 116.115 260.983 116.139 261.019 116.164L261.128 116.237L261.167 116.262C261.236 116.374 261.309 116.483 261.385 116.591C261.462 116.699 261.542 116.805 261.624 116.909C261.461 116.819 261.296 116.721 261.118 116.597C260.997 116.516 260.882 116.425 260.766 116.334C260.654 116.239 260.54 116.144 260.436 116.038C260.223 115.83 260.026 115.601 259.859 115.347C259.692 115.093 259.553 114.816 259.451 114.521C259.349 114.227 259.285 113.915 259.268 113.596L259.263 113.446C259.262 113.421 259.262 113.396 259.263 113.371L259.265 113.296C259.265 113.196 259.276 113.096 259.285 112.998C259.28 113.391 259.329 113.779 259.446 114.143ZM274.151 111.235L274.15 111.233L274.15 111.228L274.149 111.217L274.147 111.196L274.144 111.154L274.137 111.079L274.126 110.962L274.112 110.846L274.098 110.751C274.08 110.628 274.055 110.503 274.028 110.378C273.917 109.878 273.726 109.379 273.475 108.936C273.224 108.493 272.92 108.111 272.604 107.794C272.287 107.477 271.96 107.225 271.638 107.013C271.316 106.804 270.998 106.636 270.687 106.495C270.532 106.425 270.377 106.361 270.225 106.303C270.072 106.245 269.921 106.193 269.771 106.144C269.191 105.979 268.638 105.881 268.094 105.821C267.823 105.792 267.553 105.772 267.283 105.763C267.147 105.758 267.012 105.756 266.876 105.756C266.808 105.756 266.739 105.757 266.671 105.758L266.568 105.76L266.516 105.762L266.462 105.764C266.154 105.776 265.854 105.806 265.561 105.849C265.269 105.893 264.984 105.953 264.705 106.023C264.428 106.095 264.157 106.18 263.892 106.273C263.629 106.369 263.371 106.473 263.119 106.589C262.868 106.705 262.622 106.829 262.382 106.965C262.143 107.101 261.908 107.243 261.68 107.399C261.223 107.709 260.788 108.057 260.377 108.452C260.171 108.651 259.972 108.86 259.78 109.085C259.732 109.141 259.685 109.199 259.637 109.256C259.59 109.313 259.544 109.374 259.498 109.434L259.429 109.524L259.412 109.547L259.393 109.573L259.355 109.625L259.28 109.73C259.255 109.765 259.231 109.799 259.205 109.839C258.79 110.45 258.467 111.123 258.28 111.826C258.125 112.416 258.073 113.01 258.124 113.576C258.128 113.611 258.131 113.646 258.135 113.682C258.138 113.717 258.142 113.752 258.147 113.787C258.157 113.857 258.168 113.926 258.179 113.995C258.191 114.064 258.207 114.131 258.222 114.199C258.229 114.233 258.236 114.267 258.245 114.3C258.254 114.333 258.263 114.367 258.272 114.4C258.282 114.433 258.291 114.466 258.3 114.499L258.315 114.548L258.33 114.596C258.352 114.661 258.375 114.725 258.397 114.789C258.42 114.852 258.447 114.914 258.473 114.976L258.512 115.068C258.525 115.099 258.54 115.129 258.555 115.159C258.583 115.219 258.613 115.278 258.643 115.337C258.674 115.395 258.707 115.452 258.739 115.509L258.789 115.594L258.842 115.676C258.877 115.731 258.912 115.785 258.949 115.839C258.985 115.892 259.025 115.943 259.063 115.994C259.102 116.045 259.14 116.097 259.181 116.145C259.264 116.243 259.344 116.34 259.433 116.43C259.781 116.795 260.171 117.1 260.578 117.355C260.629 117.387 260.679 117.418 260.731 117.449L260.749 117.461L260.767 117.471L260.802 117.49L260.871 117.527C260.962 117.576 261.058 117.63 261.142 117.668C261.228 117.708 261.315 117.75 261.401 117.787C261.486 117.823 261.571 117.858 261.657 117.894C261.742 117.928 261.827 117.958 261.911 117.99C261.953 118.005 261.996 118.022 262.038 118.035L262.163 118.076L262.287 118.117L262.35 118.137L262.417 118.157C262.505 118.184 262.593 118.211 262.683 118.234C262.863 118.283 263.043 118.325 263.224 118.361C263.34 118.437 263.459 118.51 263.58 118.579C264.444 119.071 265.425 119.373 266.435 119.423C266.809 119.442 267.184 119.426 267.553 119.373C267.922 119.321 268.287 119.235 268.641 119.113C269 118.992 269.346 118.832 269.681 118.641C269.765 118.593 269.848 118.544 269.931 118.492L270.055 118.414C270.096 118.388 270.136 118.359 270.177 118.331L270.298 118.246C270.338 118.218 270.378 118.186 270.418 118.155C270.497 118.094 270.577 118.035 270.654 117.968C270.81 117.841 270.962 117.701 271.111 117.56C271.185 117.487 271.258 117.414 271.332 117.341C271.404 117.265 271.475 117.189 271.547 117.113C271.829 116.804 272.097 116.476 272.349 116.133C272.411 116.047 272.475 115.962 272.535 115.874C272.596 115.787 272.655 115.698 272.714 115.609C272.772 115.52 272.83 115.43 272.886 115.34L272.906 115.306L272.922 115.28L272.952 115.229L273.012 115.128C273.052 115.06 273.088 114.993 273.126 114.926L273.182 114.825L273.237 114.721C273.273 114.652 273.309 114.583 273.344 114.511L273.397 114.403L273.424 114.349L273.45 114.293C273.588 113.997 273.719 113.683 273.837 113.324C273.867 113.232 273.895 113.138 273.923 113.045C273.95 112.946 273.976 112.846 274.001 112.745L274.036 112.582L274.053 112.501C274.059 112.473 274.064 112.447 274.069 112.417C274.079 112.358 274.088 112.298 274.097 112.239C274.106 112.179 274.115 112.122 274.122 112.054C274.129 111.989 274.135 111.924 274.141 111.859L274.145 111.81L274.146 111.785L274.148 111.758L274.152 111.649C274.155 111.578 274.156 111.505 274.157 111.433C274.162 111.603 274.149 111.194 274.151 111.235Z" fill="#11AEAE"/>
<path d="M273.029 119.139C272.941 119.108 272.862 119.076 272.781 119.044L272.539 118.947L272.293 118.839L272.171 118.785L272.048 118.725L271.802 118.605L271.555 118.472L271.494 118.438C271.474 118.427 271.453 118.416 271.431 118.403L271.301 118.324L271.171 118.246L271.107 118.206L271.036 118.158C270.942 118.095 270.848 118.031 270.755 117.965C270.664 117.897 270.574 117.828 270.483 117.757C270.126 117.472 269.792 117.152 269.499 116.794C269.205 116.436 268.951 116.041 268.753 115.615C268.555 115.19 268.411 114.734 268.333 114.263C268.18 113.321 268.289 112.331 268.621 111.41C268.787 110.949 269.004 110.504 269.263 110.081L269.361 109.923C269.395 109.871 269.429 109.82 269.464 109.768L269.57 109.615C269.605 109.566 269.639 109.52 269.674 109.472L269.779 109.332L269.877 109.208L269.976 109.084L270.077 108.965C270.618 108.334 271.218 107.798 271.858 107.333C272.499 106.869 273.183 106.478 273.909 106.158C274.525 105.886 275.161 105.679 275.814 105.533L275.588 105.608L275.344 105.702C275.261 105.731 275.184 105.769 275.104 105.803C275.025 105.839 274.945 105.872 274.869 105.913L274.64 106.03L274.417 106.156C273.975 106.409 273.565 106.707 273.186 107.033C272.95 107.18 272.719 107.335 272.495 107.5C272.108 107.755 271.776 108.032 271.511 108.297C271.152 108.575 270.806 108.88 270.478 109.223C270.397 109.31 270.315 109.395 270.236 109.487L270.117 109.623L269.992 109.777C269.91 109.877 269.825 109.994 269.743 110.106C269.701 110.162 269.663 110.221 269.623 110.279C269.584 110.337 269.544 110.395 269.507 110.455C269.208 110.93 268.955 111.44 268.785 111.98C268.611 112.518 268.52 113.084 268.518 113.653C268.518 113.653 268.518 113.688 268.518 113.741C268.519 113.793 268.518 113.864 268.522 113.935C268.526 114.005 268.53 114.075 268.534 114.128C268.535 114.154 268.537 114.176 268.538 114.192C268.539 114.207 268.541 114.216 268.541 114.216C268.581 114.588 268.683 114.944 268.807 115.235C268.866 115.382 268.938 115.51 269.001 115.622C269.068 115.732 269.134 115.822 269.191 115.892C269.266 115.98 269.322 116.025 269.36 116.042L269.422 116.141C269.444 116.174 269.466 116.205 269.489 116.237C269.533 116.301 269.578 116.365 269.624 116.428L269.769 116.61C269.794 116.64 269.818 116.671 269.843 116.7L269.921 116.787C269.973 116.844 270.025 116.902 270.078 116.958L270.243 117.122L270.326 117.202C270.355 117.229 270.384 117.254 270.413 117.28L270.588 117.432C270.646 117.483 270.708 117.529 270.768 117.577C270.829 117.624 270.889 117.672 270.951 117.717L271.14 117.85L271.234 117.915L271.282 117.948L271.326 117.975L271.503 118.085L271.591 118.14C271.622 118.159 271.648 118.173 271.677 118.189L271.847 118.284C271.904 118.316 271.96 118.347 272.017 118.375L272.187 118.461C272.244 118.49 272.301 118.519 272.358 118.544C272.471 118.596 272.585 118.649 272.698 118.698L272.839 118.757C272.855 118.771 272.87 118.786 272.886 118.801C273.079 118.976 273.282 119.141 273.491 119.297C273.336 119.248 273.181 119.196 273.029 119.139ZM270.106 116.511L270.252 116.665L270.326 116.741L270.403 116.814L270.558 116.959C270.611 117.006 270.666 117.051 270.72 117.096C270.775 117.141 270.828 117.188 270.885 117.23C270.941 117.273 270.997 117.315 271.054 117.357L271.139 117.42C271.167 117.441 271.197 117.46 271.226 117.48C271.285 117.519 271.343 117.558 271.402 117.598C271.431 117.617 271.461 117.638 271.489 117.654L271.573 117.705C271.628 117.738 271.684 117.771 271.74 117.804C271.797 117.839 271.85 117.866 271.905 117.896C271.959 117.925 272.013 117.954 272.068 117.983C272.086 117.993 272.104 118.003 272.123 118.012C272.164 118.061 272.206 118.11 272.248 118.158C272.268 118.181 272.289 118.203 272.309 118.225C272.212 118.176 272.115 118.126 272.017 118.073L271.858 117.983C271.805 117.952 271.753 117.925 271.697 117.889L271.533 117.785C271.478 117.751 271.425 117.718 271.365 117.675L271.192 117.553L271.105 117.491L271.021 117.426C270.91 117.338 270.797 117.25 270.692 117.154L270.532 117.011L270.38 116.859C270.277 116.76 270.184 116.649 270.088 116.542C269.905 116.32 269.731 116.087 269.587 115.835C269.739 116.076 269.919 116.298 270.106 116.511ZM279.195 111.123C279.266 111.108 279.314 111.1 279.314 111.1C279.314 111.1 279.326 111.11 279.339 111.119C279.352 111.129 279.364 111.138 279.364 111.138C279.364 111.138 279.314 111.142 279.238 111.154C279.201 111.159 279.158 111.165 279.111 111.175C279.066 111.183 279.017 111.194 278.969 111.206C278.921 111.218 278.874 111.231 278.83 111.245C278.787 111.259 278.746 111.273 278.713 111.286C278.679 111.299 278.651 111.309 278.632 111.318C278.612 111.326 278.602 111.331 278.602 111.331C278.602 111.331 278.612 111.326 278.63 111.317C278.647 111.308 278.673 111.296 278.704 111.282C278.767 111.253 278.853 111.22 278.943 111.191C279.032 111.162 279.124 111.138 279.195 111.123ZM280.056 112.354C280.052 112.362 280.047 112.371 280.043 112.379C279.969 112.489 279.862 112.57 279.744 112.617C279.626 112.666 279.5 112.685 279.377 112.689C279.344 112.691 279.312 112.69 279.28 112.686C279.282 112.678 279.285 112.669 279.286 112.66C279.29 112.634 279.289 112.606 279.285 112.575C279.309 112.568 279.332 112.559 279.354 112.55C279.363 112.551 279.371 112.553 279.38 112.554C279.436 112.559 279.494 112.562 279.553 112.557C279.67 112.547 279.795 112.511 279.898 112.427C279.929 112.402 279.957 112.371 279.982 112.338C280.007 112.344 280.032 112.349 280.056 112.354ZM277.535 113.62C277.537 113.62 277.539 113.62 277.54 113.621C277.541 113.621 277.542 113.621 277.543 113.621C277.542 113.621 277.541 113.621 277.541 113.621C277.539 113.621 277.537 113.62 277.535 113.62ZM277.626 113.639C277.627 113.639 277.627 113.639 277.627 113.639C277.628 113.639 277.629 113.639 277.629 113.639C277.628 113.639 277.627 113.639 277.626 113.639ZM277.452 113.61L277.454 113.61L277.453 113.61L277.451 113.61C277.452 113.61 277.452 113.61 277.452 113.61ZM277.403 113.611C277.404 113.611 277.404 113.611 277.404 113.611L277.406 113.61L277.405 113.611L277.403 113.611ZM277.403 113.611C277.403 113.611 277.403 113.611 277.402 113.611L277.401 113.611C277.402 113.611 277.402 113.611 277.403 113.611ZM277.961 113.767C277.962 113.767 277.962 113.767 277.962 113.768C277.963 113.768 277.964 113.768 277.964 113.769C277.961 113.767 277.958 113.765 277.954 113.763C277.957 113.765 277.959 113.766 277.961 113.767ZM278.257 113.935C278.256 113.935 278.255 113.935 278.255 113.935C278.255 113.934 278.255 113.934 278.255 113.934L278.255 113.934L278.255 113.935C278.255 113.935 278.256 113.935 278.256 113.935C278.257 113.935 278.257 113.936 278.258 113.937C278.257 113.936 278.257 113.935 278.256 113.935C278.256 113.935 278.256 113.935 278.257 113.935ZM278.247 113.929C278.246 113.929 278.246 113.928 278.245 113.927C278.245 113.928 278.246 113.928 278.246 113.929L278.247 113.929ZM278.216 113.908C278.217 113.909 278.217 113.909 278.218 113.91C278.218 113.91 278.217 113.909 278.217 113.909C278.216 113.908 278.216 113.908 278.215 113.908C278.215 113.908 278.216 113.908 278.216 113.908ZM277.476 113.612L277.477 113.612C277.477 113.612 277.477 113.612 277.477 113.612C277.477 113.612 277.476 113.612 277.476 113.612ZM280.45 112.457C280.429 112.587 280.389 112.715 280.331 112.833C280.272 112.95 280.194 113.057 280.102 113.149C280.067 113.183 280.031 113.214 279.993 113.244C279.957 113.241 279.921 113.237 279.885 113.233C279.883 113.233 279.88 113.233 279.878 113.232C279.911 113.213 279.943 113.192 279.974 113.169C280.078 113.093 280.17 112.999 280.243 112.889C280.352 112.727 280.414 112.534 280.434 112.333C280.438 112.332 280.441 112.331 280.444 112.33C280.444 112.344 280.443 112.359 280.442 112.375C280.441 112.395 280.438 112.415 280.437 112.431C280.435 112.464 280.437 112.483 280.45 112.457ZM280.441 112.119C280.442 112.147 280.445 112.175 280.445 112.203C280.444 112.198 280.443 112.193 280.441 112.187C280.442 112.164 280.441 112.141 280.441 112.119ZM280.034 111.522L280.027 111.499C280.033 111.511 280.038 111.523 280.043 111.534C280.04 111.531 280.037 111.528 280.034 111.526C280.034 111.524 280.034 111.523 280.034 111.522ZM279.916 111.298C279.921 111.305 279.925 111.313 279.931 111.321C279.968 111.385 280.002 111.45 280.027 111.518C280.014 111.504 280.001 111.49 279.987 111.476C279.969 111.419 279.945 111.359 279.916 111.298ZM281.728 111.228C281.728 111.228 281.728 111.228 281.728 111.228C281.725 111.239 281.722 111.251 281.719 111.263C281.717 111.272 281.713 111.283 281.71 111.294C281.675 111.323 281.651 111.341 281.663 111.331L281.663 111.329L281.662 111.324L281.662 111.315L281.658 111.279L281.656 111.257C281.656 111.256 281.657 111.256 281.657 111.255C281.683 111.245 281.706 111.236 281.728 111.228ZM269.332 114.475C269.399 114.697 269.491 114.908 269.591 115.113L269.672 115.263L269.713 115.337L269.757 115.409L269.847 115.552C269.878 115.599 269.912 115.644 269.945 115.689C270.207 116.053 270.517 116.369 270.853 116.641C270.937 116.71 271.025 116.772 271.11 116.837C271.152 116.869 271.197 116.898 271.241 116.928L271.374 117.017L271.421 117.047C271.505 117.183 271.593 117.316 271.685 117.446C271.779 117.578 271.875 117.706 271.976 117.833C271.778 117.724 271.577 117.604 271.361 117.454C271.214 117.356 271.074 117.246 270.934 117.136C270.798 117.02 270.66 116.905 270.533 116.776C270.275 116.524 270.036 116.245 269.833 115.936C269.63 115.628 269.461 115.292 269.338 114.934C269.214 114.577 269.136 114.198 269.115 113.811L269.109 113.629C269.107 113.598 269.108 113.568 269.109 113.537L269.111 113.446C269.112 113.325 269.125 113.204 269.136 113.084C269.129 113.561 269.19 114.033 269.332 114.475ZM287.184 110.945L287.184 110.942L287.183 110.935L287.182 110.922L287.18 110.897L287.176 110.845L287.168 110.755L287.154 110.613L287.137 110.471L287.12 110.357C287.098 110.207 287.068 110.055 287.036 109.904C286.9 109.297 286.668 108.691 286.363 108.154C286.059 107.616 285.69 107.151 285.307 106.767C284.922 106.381 284.525 106.075 284.133 105.819C283.742 105.565 283.356 105.36 282.979 105.189C282.79 105.104 282.603 105.027 282.418 104.956C282.232 104.886 282.049 104.822 281.866 104.764C281.163 104.562 280.492 104.444 279.831 104.371C279.501 104.335 279.174 104.312 278.846 104.3C278.681 104.294 278.517 104.292 278.352 104.292C278.269 104.292 278.186 104.293 278.103 104.294L277.978 104.297L277.914 104.3L277.849 104.302C277.475 104.316 277.112 104.353 276.756 104.405C276.4 104.459 276.055 104.532 275.717 104.617C275.379 104.704 275.051 104.806 274.729 104.92C274.41 105.036 274.097 105.163 273.791 105.303C273.486 105.445 273.187 105.595 272.896 105.76C272.606 105.925 272.321 106.098 272.044 106.287C271.489 106.663 270.961 107.085 270.461 107.566C270.212 107.807 269.97 108.06 269.736 108.333C269.678 108.401 269.621 108.472 269.564 108.542C269.506 108.611 269.45 108.684 269.394 108.757L269.311 108.867L269.29 108.895L269.267 108.926L269.221 108.99L269.13 109.117C269.1 109.16 269.071 109.201 269.039 109.249C268.535 109.992 268.143 110.808 267.916 111.662C267.728 112.379 267.664 113.099 267.727 113.787C267.731 113.829 267.735 113.872 267.739 113.915C267.743 113.957 267.747 114 267.755 114.042C267.767 114.127 267.78 114.211 267.793 114.295C267.808 114.378 267.827 114.461 267.845 114.543C267.854 114.584 267.862 114.625 267.873 114.665C267.884 114.706 267.895 114.746 267.906 114.786C267.918 114.827 267.929 114.867 267.94 114.907L267.958 114.966L267.977 115.025C268.004 115.104 268.03 115.182 268.058 115.259C268.086 115.336 268.119 115.411 268.149 115.486L268.197 115.598C268.213 115.636 268.232 115.672 268.249 115.708C268.284 115.781 268.32 115.853 268.356 115.925C268.394 115.995 268.434 116.065 268.473 116.133L268.533 116.237L268.598 116.336C268.64 116.403 268.684 116.469 268.727 116.533C268.772 116.598 268.82 116.66 268.866 116.723C268.914 116.784 268.959 116.847 269.01 116.906C269.111 117.024 269.208 117.143 269.316 117.251C269.738 117.694 270.212 118.065 270.705 118.375C270.767 118.413 270.829 118.451 270.891 118.489L270.914 118.503L270.935 118.515L270.977 118.538L271.061 118.584C271.172 118.643 271.289 118.709 271.391 118.754C271.495 118.803 271.6 118.854 271.704 118.899C271.808 118.943 271.912 118.986 272.016 119.029C272.119 119.07 272.222 119.107 272.324 119.145C272.375 119.164 272.427 119.185 272.478 119.2L272.629 119.25L272.781 119.3L272.857 119.324L272.938 119.349C273.045 119.381 273.152 119.414 273.261 119.442C273.48 119.501 273.699 119.552 273.918 119.595C274.059 119.688 274.203 119.777 274.351 119.86C275.4 120.458 276.59 120.824 277.817 120.885C278.271 120.908 278.726 120.888 279.174 120.825C279.623 120.761 280.065 120.657 280.495 120.508C280.931 120.362 281.351 120.168 281.758 119.936C281.859 119.877 281.961 119.818 282.061 119.755L282.211 119.66C282.261 119.629 282.31 119.594 282.359 119.56L282.506 119.456C282.556 119.422 282.603 119.383 282.652 119.346C282.748 119.272 282.845 119.201 282.939 119.119C283.129 118.964 283.313 118.795 283.494 118.623C283.583 118.534 283.673 118.446 283.762 118.358C283.849 118.266 283.936 118.173 284.023 118.081C284.366 117.705 284.691 117.307 284.997 116.891C285.072 116.786 285.15 116.683 285.223 116.577C285.296 116.47 285.369 116.363 285.44 116.255C285.51 116.147 285.58 116.038 285.648 115.928L285.673 115.887L285.692 115.855L285.729 115.794L285.801 115.671C285.85 115.588 285.894 115.507 285.94 115.426L286.008 115.303L286.074 115.177C286.118 115.093 286.162 115.009 286.205 114.921L286.27 114.791L286.301 114.725L286.333 114.657C286.501 114.298 286.66 113.916 286.804 113.48C286.839 113.368 286.874 113.255 286.908 113.142C286.94 113.021 286.972 112.9 287.002 112.777L287.045 112.58L287.066 112.481C287.072 112.448 287.079 112.416 287.085 112.379C287.097 112.307 287.108 112.235 287.12 112.163C287.13 112.091 287.141 112.021 287.149 111.939C287.158 111.86 287.165 111.781 287.172 111.701L287.177 111.642L287.179 111.612L287.181 111.579L287.186 111.447C287.189 111.36 287.191 111.272 287.192 111.185C287.198 111.39 287.182 110.894 287.184 110.945Z" fill="#11AEAE"/>
</svg>
