<svg width="96" height="106" viewBox="0 0 96 106" fill="none" xmlns="http://www.w3.org/2000/svg">
<path d="M68.1325 9.92341C68.4895 10.167 68.8399 10.4106 69.1881 10.6591C69.272 10.7218 69.3539 10.7845 69.4358 10.8472C69.352 10.8954 69.2678 10.9461 69.1881 10.9991C69.0664 10.9027 68.9427 10.8086 68.8103 10.7121C68.4728 10.4685 68.1367 10.2225 67.7843 9.98614C64.9831 8.08072 61.5478 6.4961 57.666 5.40832C61.6824 6.42615 65.2453 8.00353 68.1325 9.92341ZM89.2826 55.2C89.3957 56.8618 89.4753 58.5357 89.5091 60.2168C89.5383 61.8979 89.5193 63.5911 89.4397 65.2939C89.3642 66.9943 89.2197 68.7068 88.9845 70.4337C88.7516 72.1582 88.4326 73.8948 87.996 75.641C87.5594 77.3897 86.9992 79.1504 86.2588 80.9231C85.518 82.6911 84.6031 84.4711 83.4216 86.2414C82.2401 88.0093 80.7923 89.7749 78.9625 91.4656C77.1433 93.154 74.8895 94.7627 72.2582 96.1351C74.4302 94.9412 76.3354 93.5616 77.9384 92.1024C79.5481 90.6432 80.8658 89.1044 81.959 87.5463C83.0586 85.9906 83.9147 84.4132 84.624 82.8406C85.3352 81.268 85.8954 79.7003 86.3574 78.1422C87.2533 75.0332 87.7715 71.9725 88.1303 68.9938C88.3173 67.5056 88.4432 66.0392 88.5733 64.5944C88.6845 63.1545 88.7956 61.7315 88.9026 60.335C89.0349 56.3577 88.7391 52.518 88.2331 48.7867C88.0214 47.2431 87.7715 45.7187 87.4969 44.2089C87.6983 44.2378 87.8974 44.2619 88.0946 44.2788C88.6025 47.8798 89.0243 51.5194 89.2826 55.2ZM48.2838 18.0058C48.2986 18.0323 48.3134 18.0588 48.3282 18.0854C47.9273 18.0612 47.4972 18.0468 47.0564 18.0444C47.4763 18.0226 47.8875 18.0106 48.2838 18.0058ZM86.1936 37.8896C86.1454 37.6726 86.093 37.4579 86.0426 37.2408C86.2231 37.7618 86.3885 38.29 86.5334 38.8303C86.8107 39.8819 87.0307 40.9745 87.102 42.1443C86.8168 40.714 86.5126 39.2958 86.1936 37.8896ZM68.9511 50.6994C68.9071 50.2893 68.8631 49.8769 68.8145 49.4645C68.5399 47.7062 68.2126 45.9431 67.8431 44.1751C67.8412 44.1462 67.8367 44.1148 67.8348 44.0835C67.9103 44.0979 67.9838 44.1124 68.0571 44.1269C68.3487 45.9093 68.6048 47.6893 68.8145 49.4645C68.865 49.7876 68.9135 50.1133 68.9594 50.4365C68.9553 50.5257 68.9552 50.6125 68.9511 50.6994ZM47.4949 32.0166C47.5643 32.4146 47.6291 32.815 47.6921 33.2153C47.6819 33.278 47.6713 33.3432 47.6606 33.4059C47.5833 33.0827 47.5036 32.7571 47.4194 32.4339C47.4448 32.2916 47.4698 32.1541 47.4949 32.0166ZM44.0705 0.844958C43.533 0.85702 42.9918 0.871478 42.4569 0.890772C41.9384 0.9173 41.418 0.948664 40.8999 0.980013C40.3647 1.01137 39.905 1.05721 39.4141 1.09821C38.9188 1.14404 38.4803 1.17779 37.8844 1.25256L37.045 1.35869C36.7639 1.39487 36.4889 1.42864 36.195 1.47689C35.6181 1.56613 35.0411 1.66019 34.4661 1.76149C32.1664 2.17875 29.9019 2.7552 27.7619 3.45706C25.6173 4.15893 23.6005 4.98864 21.7605 5.90516C19.9178 6.81929 18.2519 7.81781 16.7639 8.85494C15.274 9.89447 13.9752 10.9726 12.821 12.058C10.5194 14.2383 8.80493 16.4525 7.4766 18.6136C5.74545 21.6213 4.4046 24.5397 3.305 27.405C2.21373 30.2704 1.39746 33.0803 0.891843 35.825C0.388127 38.5698 0.201497 41.2446 0.436292 43.794C0.608495 45.6536 1.00715 47.4481 1.67852 49.1437C1.6512 49.9155 1.61784 51.0033 1.59887 52.0983C1.59281 52.6892 1.58407 53.2801 1.57801 53.8228C1.57384 54.3655 1.57155 54.8575 1.57573 55.2555C1.59469 59.9105 1.85301 64.6161 2.63969 69.4328C3.03644 71.8399 3.55268 74.2735 4.29536 76.7553C5.04259 79.2396 5.9844 81.7649 7.30021 84.3505C7.65296 85.0041 7.97159 85.6457 8.37669 86.3065C8.57204 86.6346 8.76092 86.9602 8.96651 87.2882L9.61474 88.2819C9.72815 88.4483 9.82867 88.6099 9.95042 88.7788L10.3134 89.278C10.5611 89.6133 10.7898 89.9413 11.0565 90.279C11.5978 90.9519 12.1246 91.6176 12.7539 92.2929C13.3372 92.961 14.0382 93.6388 14.7179 94.3045C15.0813 94.6421 15.4629 94.9774 15.8388 95.3078C16.0337 95.4743 16.2101 95.6407 16.4199 95.8071L17.0408 96.3015L17.6704 96.796L17.9894 97.0396L18.3316 97.2832C18.7867 97.6088 19.2506 97.9272 19.7164 98.2455C20.711 98.8751 21.6953 99.4973 22.818 100.081C23.3657 100.375 23.9112 100.667 24.5093 100.94C25.0988 101.215 25.6802 101.492 26.2905 101.75C26.9118 102.006 27.5373 102.254 28.1666 102.5C28.4772 102.626 28.8046 102.737 29.1319 102.845L30.1162 103.178C32.7497 104.034 35.5467 104.717 38.3252 105.146C38.6734 105.202 39.0238 105.259 39.372 105.312L40.4064 105.44C41.0949 105.522 41.7935 105.614 42.4755 105.674C43.8293 105.778 45.2077 105.891 46.5129 105.915L47.5055 105.942C47.8347 105.952 48.1727 105.964 48.4853 105.959C49.1255 105.954 49.7635 105.947 50.4011 105.937C50.7201 105.93 51.0414 105.932 51.3562 105.915L52.2984 105.872C52.9258 105.841 53.5532 105.809 54.1805 105.773C54.8246 105.72 55.469 105.662 56.1112 105.602L57.0742 105.51C57.4016 105.474 57.7289 105.431 58.0563 105.387C58.711 105.3 59.3656 105.211 60.0162 105.12C60.6773 105.009 61.338 104.89 61.995 104.77C62.3242 104.709 62.6516 104.654 62.9812 104.584L63.9697 104.362L64.9536 104.135C65.2809 104.058 65.6083 103.983 65.9337 103.892C66.5842 103.713 67.2324 103.53 67.8769 103.344C68.2001 103.255 68.5168 103.149 68.8335 103.043L69.7799 102.724L70.7221 102.399C71.0304 102.286 71.3327 102.163 71.6369 102.044C72.2412 101.801 72.856 101.564 73.4394 101.304C74.0186 101.039 74.5936 100.771 75.1622 100.498C75.452 100.366 75.7205 100.221 75.991 100.079L76.7989 99.6445L77.5985 99.2055L78.3518 98.7472L79.099 98.2866C79.3422 98.1298 79.5982 97.9754 79.8208 97.8162C80.2825 97.4979 80.7376 97.1747 81.189 96.8515C81.4219 96.6899 81.6233 96.5259 81.8331 96.3618L82.4544 95.865L83.0692 95.3657L83.6336 94.864C84.005 94.5264 84.3911 94.1887 84.7351 93.8486L85.7384 92.8284L85.9857 92.5703L86.2125 92.3146L86.6594 91.8033C87.2765 91.1183 87.7779 90.4406 88.3067 89.7532C88.5544 89.4131 88.7808 89.0754 89.016 88.7353L89.3642 88.224L89.6767 87.7199L90.2916 86.7069L90.8374 85.706L91.106 85.2043L91.3472 84.7098L91.8194 83.7161C92.3922 82.4065 92.9107 81.1016 93.3093 79.8233C94.1359 77.2594 94.671 74.7607 95.0192 72.3126C95.3697 69.8596 95.5484 67.455 95.611 65.0792C95.735 60.3277 95.3993 55.6944 94.8535 51.107C95.4202 57.0258 95.5985 62.9519 94.9165 69.0468C94.7405 70.5736 94.5201 72.1076 94.2034 73.6608C93.8927 75.2141 93.5172 76.7794 93.0154 78.3713C92.0334 81.5454 90.6337 84.8208 88.3715 88.1758C87.245 89.8521 85.8473 91.5525 84.1309 93.2263C82.4123 94.8978 80.3431 96.5475 77.8754 98.055C75.4141 99.5649 72.5499 100.918 69.4525 101.989C66.3597 103.062 63.0608 103.848 59.8041 104.355C58.9943 104.471 58.1864 104.577 57.372 104.681C56.9627 104.736 56.5664 104.772 56.1677 104.808L54.9695 104.917L54.3694 104.968C54.168 104.984 53.9685 104.999 53.7754 105.009L52.6026 105.069C51.822 105.107 51.0433 105.148 50.2437 105.151L49.05 105.163C48.6491 105.165 48.263 105.177 47.8454 105.163C47.023 105.144 46.1984 105.117 45.3757 105.088C44.534 105.038 43.6844 104.975 42.8408 104.91C42.4213 104.883 41.9866 104.825 41.5565 104.779L40.2661 104.625C36.8163 104.174 33.2887 103.393 30.0195 102.281C26.7438 101.174 23.7621 99.7482 21.2378 98.1853C21.5633 98.1684 22.0457 98.2238 22.3017 98.1442C22.5578 98.0671 22.5806 97.8621 22.0226 97.329C24.5996 98.7858 27.5624 100.096 30.7626 101.101C33.9605 102.114 37.364 102.806 40.6837 103.192L41.9236 103.325C42.3371 103.364 42.7547 103.414 43.1575 103.434C43.9696 103.484 44.784 103.537 45.5919 103.576C46.3828 103.595 47.174 103.61 47.9652 103.624C48.1644 103.629 48.3574 103.629 48.5482 103.622L49.1232 103.614L50.271 103.593C51.0414 103.586 51.7882 103.532 52.5415 103.496L53.6707 103.431C54.0504 103.405 54.4366 103.366 54.8204 103.332C56.3441 103.209 57.903 103.007 59.4536 102.773C62.5658 102.29 65.7091 101.526 68.6488 100.501C71.5907 99.478 74.3145 98.1877 76.6605 96.7478C79.0148 95.3078 81.002 93.7328 82.666 92.1265C84.3346 90.5202 85.6921 88.8801 86.8335 87.252C87.9816 85.6191 88.8794 83.9983 89.6475 82.392C90.4092 80.7857 91.043 79.189 91.5319 77.6164C92.5329 74.4616 93.0992 71.3647 93.3742 68.3064C93.5043 66.7796 93.5779 65.2577 93.5631 63.7478C93.5548 62.238 93.4834 60.7329 93.3386 59.24C93.2756 58.4898 93.1792 57.747 93.0848 56.9993C92.9755 56.2564 92.8709 55.5111 92.732 54.7731C92.4699 53.2873 92.1384 51.8137 91.75 50.3424C92.495 50.2917 93.9743 50.1904 94.7321 50.1398C94.1905 45.9165 93.4584 41.7318 92.6145 37.564C92.1889 35.4801 91.7375 33.4011 91.2694 31.3268C90.7911 29.2767 90.3128 27.2193 89.8322 25.1547C89.7651 24.9497 89.6915 24.7374 89.6183 24.5445C89.5531 24.3805 89.4837 24.2165 89.4105 24.0549C89.3767 23.9849 89.3452 23.915 89.3137 23.8475C89.2826 23.7871 89.253 23.7269 89.2216 23.6666C89.1882 23.6063 89.1567 23.546 89.1229 23.4881L89.0956 23.4447L89.0664 23.3844L89.0076 23.2613C88.9257 23.0997 88.8396 22.9381 88.7516 22.7814C88.6613 22.6222 88.5669 22.4437 88.4702 22.2797C88.3674 22.1109 88.2668 21.9444 88.166 21.7804C88.0613 21.6068 87.952 21.4355 87.8386 21.2691C86.9427 19.9064 85.8199 18.534 84.561 17.2605C84.7017 18.9874 84.7477 20.5938 84.8045 22.0771C84.819 22.4196 84.8337 22.7621 84.8485 23.1022C84.6555 22.709 84.4601 22.3183 84.2629 21.9348C83.9818 21.3897 83.7008 20.8422 83.4174 20.2923L83.3692 20.1982C83.3545 20.1668 83.3313 20.1234 83.3397 20.1283C83.3419 20.1138 83.3397 20.0945 83.3545 20.1017L83.3711 20.1017L83.3734 20.1017L83.3651 20.0873L83.348 20.0535L83.3165 19.9859L83.1823 19.7206C83.0123 19.3685 82.809 19.0067 82.6137 18.6498C82.5317 18.4954 82.4396 18.3362 82.3474 18.1794C82.3178 17.9382 82.2886 17.697 82.2613 17.4583C82.2169 17.0362 82.171 16.6117 82.1247 16.1872L82.0345 15.5263C82.003 15.3068 81.9738 15.0873 81.9298 14.8582C81.615 14.5977 81.3024 14.3493 80.9959 14.1081C80.6769 13.8621 80.3579 13.6233 80.0473 13.3942C79.8899 13.2808 79.7366 13.1699 79.5838 13.0589C79.4241 12.9455 79.2667 12.8346 79.1093 12.7237C78.7967 12.5066 78.4925 12.2992 78.1989 12.1014C77.8481 11.906 77.4957 11.7275 77.1452 11.5611C77.1433 11.5587 77.141 11.5587 77.141 11.5563C76.4257 10.8761 75.6576 10.1912 74.7742 9.50858C74.2978 9.12267 73.7125 8.71022 73.1477 8.31226C72.8602 8.11448 72.5374 7.90946 72.2287 7.70928C71.9184 7.50909 71.6036 7.31132 71.2739 7.12078C70.9489 6.93024 70.6215 6.73968 70.29 6.55155C69.9521 6.36825 69.6099 6.18978 69.2659 6.01129C69.0937 5.92447 68.9238 5.8328 68.7474 5.74839L68.2145 5.49513C67.8579 5.3263 67.5033 5.15748 67.138 4.99829C65.6754 4.35913 64.1396 3.7899 62.5469 3.29063C62.1482 3.16521 61.7408 3.05427 61.3361 2.9385C60.931 2.82031 60.524 2.70938 60.1106 2.61049C59.6953 2.50919 59.2795 2.4103 58.8642 2.309C58.4466 2.21494 58.0248 2.12809 57.6007 2.04126L56.965 1.91343C56.753 1.87484 56.539 1.83866 56.3251 1.80007C55.895 1.72771 55.4649 1.65778 55.0343 1.58542C54.6023 1.5203 54.168 1.4624 53.7337 1.4021C53.2971 1.34663 52.8628 1.28633 52.4221 1.24533C51.9813 1.20191 51.5428 1.15849 51.1043 1.11267L50.7728 1.08373L50.4599 1.0596L49.839 1.0138C49.4255 0.98485 49.0057 0.953493 48.5968 0.929377C48.2023 0.912493 47.8078 0.893198 47.4152 0.873903C47.13 0.86426 46.8383 0.852198 46.555 0.844958L45.722 0.835299C45.1701 0.832888 44.597 0.828074 44.0705 0.844958Z" fill="#11AEAE"/>
</svg>
