<svg width="221" height="213" viewBox="0 0 221 213" fill="none" xmlns="http://www.w3.org/2000/svg">
<path d="M34.043 158.418C50.1538 102.044 131.339 55.8477 173.966 75.7271" stroke="#F2F2F2" stroke-width="2.48681" stroke-linecap="round" stroke-dasharray="2.49 8.29"/>
<path d="M207.629 89.3923C201.793 86.8831 195.957 84.3737 190.121 81.8645C189.231 76.8234 188.342 71.781 187.453 66.7407C194.178 74.2912 200.904 81.8418 207.629 89.3923ZM210.178 91.9446C210.819 91.9744 211.114 91.1989 210.689 90.7558C202.748 81.8406 194.808 72.9266 186.867 64.0116C186.408 63.496 185.559 63.9367 185.673 64.5885C186.7 70.4021 187.724 76.214 188.75 82.0267C183.826 85.2804 178.902 88.5342 173.977 91.788C173.426 92.1539 173.69 93.0734 174.379 93.052C186.312 92.6825 198.245 92.3128 210.178 91.9446ZM189.576 83.1337C195.411 85.6421 201.247 88.1524 207.083 90.6616C196.976 90.9743 186.87 91.2869 176.763 91.5996C181.033 88.7767 185.305 85.9546 189.576 83.1337Z" fill="#F2F2F2"/>
</svg>
