<svg width="423" height="429" viewBox="0 0 423 429" fill="none" xmlns="http://www.w3.org/2000/svg">
<path d="M241.145 141.063C425.725 158.611 278.862 338.931 129.536 328.169" stroke="#F2F2F2" stroke-width="2.48681" stroke-linecap="round" stroke-dasharray="2.49 8.29"/>
<path d="M242.275 142.683C317.318 200.316 342.743 4.34227 237.211 24.1287" stroke="#F2F2F2" stroke-width="2.48681" stroke-linecap="round" stroke-dasharray="2.49 8.29"/>
<path d="M101.226 334.393C107.522 333.548 113.818 332.704 120.114 331.859C123.467 335.728 126.82 339.597 130.171 343.465C120.523 340.441 110.874 337.417 101.226 334.393ZM97.7278 333.512C97.1619 333.816 97.3071 334.633 97.8999 334.795C109.292 338.366 120.684 341.936 132.076 345.506C132.734 345.713 133.236 344.899 132.804 344.398C128.937 339.937 125.073 335.477 121.207 331.016C123.761 325.695 126.315 320.374 128.869 315.053C129.154 314.456 128.455 313.802 127.875 314.175C117.826 320.621 107.777 327.067 97.7278 333.512ZM119.93 330.49C113.635 331.335 107.338 332.179 101.042 333.024C109.553 327.564 118.064 322.105 126.575 316.646C124.361 321.261 122.146 325.876 119.93 330.49Z" fill="#F2F2F2"/>
</svg>
