<svg width="158" height="77" viewBox="0 0 158 77" fill="none" xmlns="http://www.w3.org/2000/svg">
<path d="M56.4461 67.2542C56.0464 67.1171 55.6881 66.9784 55.3181 66.8397L54.215 66.4186L53.0986 65.9495L52.5404 65.7134L51.9805 65.4541L50.8608 64.9289L49.7395 64.3509L49.4604 64.2056C49.3679 64.1577 49.2738 64.1098 49.173 64.0503L48.5818 63.7101L47.9905 63.3666L47.6966 63.1932L47.3746 62.9868C46.9468 62.711 46.5207 62.4319 46.098 62.1462C45.6801 61.8522 45.2706 61.5483 44.8594 61.2428C43.2343 60.0026 41.7133 58.6087 40.3773 57.0514C39.0396 55.4957 37.8852 53.7765 36.9835 51.9236C36.0818 50.0723 35.4278 48.0888 35.0727 46.0427C34.3742 41.9421 34.8713 37.635 36.3824 33.6302C37.1354 31.6253 38.1263 29.6881 39.3038 27.8484L39.7497 27.1614C39.9033 26.9335 40.0618 26.7105 40.2204 26.4876L40.701 25.8187C40.8595 25.6057 41.0147 25.4058 41.1733 25.1994L41.6522 24.5884L42.0998 24.0483L42.5506 23.5116L43.0081 22.9947C45.4737 20.2466 48.2036 17.9164 51.1185 15.8934C54.0333 13.8719 57.1496 12.1742 60.4526 10.782C63.2568 9.59959 66.1502 8.69624 69.1228 8.06372L68.0956 8.3874L66.9825 8.79532C66.606 8.92248 66.2559 9.08928 65.8925 9.23791C65.5342 9.39315 65.1692 9.53849 64.824 9.71355L63.7803 10.2222L62.7646 10.7705C60.7548 11.8737 58.887 13.1684 57.1612 14.587C56.0861 15.2262 55.0374 15.9033 54.0151 16.6184C52.2563 17.7298 50.7452 18.9321 49.5363 20.0848C47.9047 21.2953 46.3259 22.6215 44.8346 24.116C44.4647 24.4942 44.0914 24.8642 43.7331 25.2638L43.1914 25.8567L42.6233 26.5272C42.2484 26.9599 41.8619 27.4702 41.4887 27.9574C41.2988 28.2018 41.1237 28.4578 40.9437 28.7088C40.7654 28.9631 40.5837 29.2125 40.4153 29.4734C39.0528 31.5394 37.9034 33.759 37.1288 36.1074C36.3378 38.4492 35.9199 40.9132 35.9133 43.3854C35.9133 43.3854 35.9133 43.539 35.9133 43.7686C35.9183 43.9981 35.9133 44.3053 35.9298 44.6125C35.9497 44.918 35.9695 45.2235 35.9843 45.4531C35.9926 45.5687 35.9992 45.6645 36.0058 45.7305C36.0091 45.7982 36.0157 45.8362 36.0157 45.8362C36.2007 47.4547 36.6647 49.0021 37.2295 50.2688C37.4954 50.9095 37.8241 51.4645 38.1114 51.9516C38.417 52.4306 38.7175 52.8236 38.9752 53.1258C39.317 53.5106 39.573 53.7072 39.748 53.7798L40.0288 54.2108C40.1262 54.3529 40.2303 54.4899 40.331 54.6287C40.5341 54.9061 40.7389 55.1836 40.947 55.4577L41.6093 56.2504C41.7216 56.3809 41.8289 56.5147 41.9462 56.6418L42.2996 57.02C42.5357 57.2694 42.7719 57.5204 43.013 57.7665L43.7661 58.4783L44.1443 58.8284C44.2747 58.944 44.4068 59.053 44.539 59.1653L45.335 59.8275C45.5976 60.0488 45.88 60.2486 46.1541 60.4584C46.4316 60.6632 46.7057 60.8712 46.9881 61.0694L47.8469 61.6458L48.2779 61.9298L48.4926 62.0702L48.6941 62.1908L49.4984 62.6697L49.903 62.9075C50.04 62.9884 50.1622 63.0495 50.2927 63.1206L51.0673 63.5334C51.3249 63.6721 51.5825 63.8076 51.8401 63.9298L52.6147 64.303C52.8723 64.4285 53.1316 64.5557 53.3909 64.6647C53.9061 64.8893 54.4247 65.1238 54.9383 65.3352L55.584 65.5912C55.6551 65.6539 55.7244 65.7183 55.7971 65.7811C56.6757 66.5441 57.5988 67.2608 58.5501 67.9395C57.8432 67.7282 57.1364 67.5003 56.4461 67.2542ZM43.1402 55.8194L43.8074 56.4899L44.1443 56.8218L44.4944 57.1406L45.2012 57.7698C45.4423 57.9746 45.6917 58.1694 45.9378 58.3676C46.1871 58.5625 46.4283 58.7656 46.6859 58.9489C46.9419 59.1339 47.1995 59.3189 47.4555 59.5022L47.8436 59.7763C47.9724 59.8655 48.1078 59.9497 48.2399 60.0372C48.5075 60.2073 48.7734 60.3775 49.0409 60.5476C49.1714 60.6301 49.3101 60.7226 49.4373 60.7953L49.8171 61.0133C50.0714 61.157 50.3257 61.3023 50.5801 61.4476C50.8377 61.5995 51.0805 61.7151 51.3282 61.8456C51.5759 61.9711 51.8236 62.0983 52.0714 62.2254C52.1539 62.27 52.2382 62.3113 52.3224 62.351C52.5106 62.564 52.6989 62.7771 52.8921 62.9868C52.983 63.0842 53.0787 63.18 53.1712 63.2774C52.7286 63.0644 52.2844 62.8448 51.8418 62.6152L51.1184 62.2238C50.874 62.09 50.6395 61.9728 50.3852 61.8159L49.6354 61.365C49.3861 61.2131 49.1449 61.0711 48.8724 60.8861L48.083 60.3543L47.69 60.0835L47.3085 59.7994C46.7998 59.418 46.2879 59.0365 45.809 58.617L45.0823 57.9944L44.387 57.3354C43.918 56.9028 43.4952 56.4222 43.0593 55.9548C42.2269 54.9887 41.4359 53.978 40.7786 52.8781C41.4689 53.9301 42.2897 54.8929 43.1402 55.8194ZM84.5162 32.38C84.8349 32.3173 85.0546 32.2809 85.0546 32.2809C85.0546 32.2809 85.1124 32.3222 85.1702 32.3635C85.228 32.4048 85.2841 32.4477 85.2841 32.4477C85.2841 32.4477 85.0546 32.4642 84.7111 32.5138C84.5393 32.5353 84.3444 32.565 84.1331 32.6063C83.925 32.6426 83.7037 32.6889 83.484 32.7434C83.2677 32.7929 83.0513 32.8523 82.8532 32.9135C82.655 32.9713 82.4717 33.034 82.3181 33.0902C82.1645 33.1447 82.039 33.1909 81.9498 33.2289C81.8623 33.2652 81.8127 33.285 81.8127 33.285C81.8127 33.285 81.859 33.2636 81.9399 33.2239C82.0208 33.1843 82.1381 33.1314 82.2801 33.072C82.5658 32.9481 82.9589 32.8011 83.3651 32.6756C83.773 32.5485 84.1925 32.4477 84.5162 32.38ZM88.4335 37.7358C88.4137 37.7721 88.3939 37.8101 88.3724 37.8464C88.0388 38.322 87.5516 38.6771 87.0116 38.8819C86.4765 39.0916 85.9018 39.1758 85.3403 39.1924C85.1933 39.2006 85.0463 39.1957 84.8993 39.1824C84.9109 39.1445 84.9225 39.1065 84.9291 39.0652C84.9472 38.9562 84.9439 38.8323 84.9258 38.6986C85.0331 38.6672 85.1372 38.6292 85.2379 38.5879C85.2792 38.5945 85.3172 38.6028 85.3568 38.6077C85.6111 38.6292 85.8754 38.6424 86.1446 38.6193C86.6763 38.5764 87.2461 38.4211 87.7118 38.0545C87.8555 37.9438 87.9827 37.8117 88.0983 37.6664C88.2122 37.6912 88.3245 37.7143 88.4335 37.7358ZM76.9574 43.2434C76.9657 43.2451 76.9739 43.2451 76.9822 43.2467C76.9871 43.2484 76.9888 43.2484 76.9937 43.25C76.9904 43.25 76.9871 43.2484 76.9855 43.2484C76.9772 43.2467 76.9673 43.2451 76.9574 43.2434ZM77.3736 43.3243C77.3752 43.326 77.3769 43.326 77.3785 43.326C77.3818 43.326 77.3835 43.3276 77.3835 43.3276C77.3818 43.326 77.3769 43.326 77.3736 43.3243ZM76.5809 43.2021L76.5875 43.2021L76.5858 43.2021L76.5776 43.2021C76.5792 43.2021 76.5792 43.2021 76.5809 43.2021ZM76.3579 43.2038C76.3596 43.2038 76.3596 43.2038 76.3596 43.2038L76.3695 43.2021L76.3662 43.2038L76.3579 43.2038ZM76.3579 43.2038C76.3579 43.2038 76.3563 43.2038 76.3546 43.2038L76.3497 43.2038C76.353 43.2038 76.3546 43.2038 76.3579 43.2038ZM78.8979 43.8842C78.8995 43.8842 78.9012 43.8842 78.9012 43.8858C78.9061 43.8875 78.9095 43.8891 78.9128 43.8908C78.8979 43.8825 78.8814 43.8759 78.8665 43.8677C78.8764 43.8726 78.888 43.8776 78.8979 43.8842ZM80.2422 44.6158C80.2389 44.6141 80.2372 44.6125 80.2372 44.6125C80.2372 44.6108 80.2372 44.6108 80.2356 44.6108L80.2372 44.6108L80.2372 44.6125C80.2372 44.6125 80.2389 44.6141 80.2405 44.6141C80.2438 44.6158 80.2455 44.6174 80.2488 44.6207C80.2455 44.6174 80.2422 44.6158 80.2389 44.6125C80.2389 44.6141 80.2405 44.6141 80.2422 44.6158ZM80.1976 44.5877C80.1943 44.5861 80.1926 44.5828 80.1893 44.5811C80.191 44.5828 80.1943 44.5844 80.196 44.5861L80.1976 44.5877ZM80.0556 44.4969C80.0605 44.5002 80.0638 44.5018 80.0671 44.5035C80.0655 44.5035 80.0638 44.5018 80.0622 44.5002C80.0589 44.4985 80.0556 44.4969 80.0523 44.4952C80.0539 44.4952 80.0556 44.4969 80.0556 44.4969ZM76.6882 43.2087L76.6915 43.2087C76.6915 43.2087 76.6915 43.2087 76.6932 43.2087C76.6915 43.2087 76.6899 43.2087 76.6882 43.2087ZM90.227 38.1833C90.1312 38.7514 89.9512 39.3063 89.6837 39.8183C89.4178 40.3302 89.0627 40.7959 88.6416 41.1939C88.4847 41.3442 88.3179 41.478 88.1461 41.6068C87.9843 41.5936 87.8208 41.5787 87.6557 41.5606C87.6441 41.5606 87.6325 41.5589 87.6243 41.5573C87.7729 41.4714 87.9199 41.3822 88.0619 41.2831C88.5326 40.9528 88.9504 40.54 89.284 40.0643C89.7828 39.3592 90.0619 38.5185 90.1543 37.6466C90.1709 37.6416 90.1874 37.6367 90.2006 37.6317C90.1989 37.6928 90.1956 37.7589 90.1923 37.8282C90.1841 37.9141 90.1725 38.0016 90.1675 38.0726C90.1576 38.2147 90.1675 38.2956 90.227 38.1833ZM90.1841 36.7118C90.1923 36.8341 90.2022 36.9563 90.2039 37.0785C90.1989 37.0554 90.194 37.0339 90.1874 37.0108C90.189 36.9117 90.1874 36.8109 90.1841 36.7118ZM88.3311 34.1157L88.303 34.0166C88.3278 34.0678 88.3493 34.119 88.3724 34.1702C88.3592 34.157 88.3476 34.1438 88.3344 34.1322C88.3328 34.1256 88.3328 34.1207 88.3311 34.1157ZM87.796 33.1414C87.8175 33.1744 87.839 33.2074 87.8621 33.2404C88.0322 33.5212 88.1858 33.8053 88.3014 34.0976C88.2436 34.0381 88.1825 33.977 88.1197 33.9175C88.0371 33.6698 87.9298 33.4089 87.796 33.1414ZM96.0418 32.8358C96.0418 32.8375 96.0418 32.8375 96.0418 32.8375C96.0286 32.887 96.0154 32.9366 96.0039 32.9878C95.994 33.0274 95.9774 33.0753 95.9626 33.1232C95.8007 33.2487 95.695 33.328 95.7462 33.2867L95.7462 33.2768L95.7446 33.257L95.7413 33.2173L95.7264 33.0604L95.7181 32.9646C95.7181 32.9613 95.7198 32.958 95.7198 32.9547C95.8387 32.9118 95.9461 32.8722 96.0418 32.8358ZM39.6176 46.9625C39.9215 47.927 40.3409 48.8485 40.7967 49.737L41.165 50.3893L41.3516 50.713L41.5548 51.0252L41.9643 51.6478C42.1047 51.8525 42.2599 52.0474 42.4069 52.2456C43.5993 53.8261 45.0146 55.205 46.5439 56.3858C46.9237 56.6848 47.3234 56.9572 47.7115 57.238C47.903 57.38 48.1095 57.5055 48.3093 57.636L48.9121 58.0208L49.1268 58.1546C49.5099 58.7458 49.9112 59.3238 50.3307 59.8903C50.7551 60.4617 51.1961 61.0215 51.6535 61.5698C50.7502 61.0959 49.8369 60.5773 48.8543 59.9216C48.1854 59.4956 47.5496 59.0166 46.9105 58.5377C46.2912 58.034 45.662 57.5336 45.084 56.9738C43.9114 55.8755 42.8214 54.665 41.8983 53.3207C40.9751 51.9797 40.2055 50.5182 39.644 48.9608C39.0792 47.4068 38.7274 45.7586 38.6317 44.0757L38.6019 43.2814C38.5953 43.1493 38.597 43.0172 38.6019 42.8834L38.6118 42.487C38.6168 41.9586 38.6779 41.435 38.7258 40.9132C38.6961 42.9891 38.9702 45.0419 39.6176 46.9625ZM120.88 31.6055L120.878 31.5923L120.875 31.5642L120.87 31.508L120.862 31.3957L120.842 31.1728L120.806 30.7797L120.741 30.1621L120.665 29.5461L120.588 29.049C120.489 28.395 120.353 27.7344 120.205 27.0755C119.589 24.4348 118.532 21.799 117.144 19.4622C115.759 17.1221 114.078 15.1023 112.334 13.4294C110.583 11.7531 108.775 10.422 106.993 9.30564C105.212 8.19915 103.455 7.31066 101.738 6.5675C100.879 6.19756 100.027 5.86066 99.183 5.55348C98.3391 5.24631 97.5034 4.97052 96.6744 4.71454C93.4705 3.83926 90.4169 3.32234 87.4096 3.00691C85.9084 2.85167 84.4171 2.75093 82.9242 2.69974C82.1761 2.67331 81.4279 2.6634 80.6765 2.6634C80.3 2.66175 79.9218 2.6667 79.542 2.6733L78.9722 2.68653L78.6849 2.69643L78.3876 2.70633C76.6866 2.76909 75.0301 2.92763 73.41 3.15554C71.7933 3.39005 70.2194 3.70548 68.6802 4.07541C67.146 4.45525 65.6514 4.90115 64.1866 5.39495C62.7316 5.9003 61.3064 6.45353 59.9142 7.06127C58.5286 7.67727 57.1678 8.33125 55.8433 9.04799C54.5221 9.76803 53.2224 10.5195 51.9623 11.3435C49.4372 12.9768 47.0327 14.815 44.7586 16.9057C43.6241 17.9561 42.5209 19.0576 41.459 20.245C41.1947 20.5406 40.9338 20.8494 40.6729 21.1516C40.4119 21.4522 40.156 21.771 39.9016 22.088L39.5218 22.5653L39.426 22.6859L39.322 22.8229L39.1122 23.1004L38.6977 23.6536C38.5607 23.8402 38.4285 24.0186 38.2832 24.2283C35.9893 27.4586 34.2057 31.0093 33.1735 34.7235C32.3148 37.8431 32.0274 40.9776 32.3115 43.9684C32.3296 44.1534 32.3494 44.34 32.3676 44.5266C32.3858 44.7116 32.4056 44.8982 32.4386 45.0815C32.4931 45.4498 32.5526 45.8164 32.6137 46.1797C32.6814 46.5431 32.7673 46.9014 32.8482 47.2581C32.8895 47.4365 32.9258 47.6165 32.9754 47.7916C33.0266 47.9683 33.0777 48.1433 33.1273 48.3184C33.1801 48.4934 33.2313 48.6669 33.2825 48.8419L33.3618 49.1012L33.4493 49.3572C33.5715 49.699 33.6938 50.0376 33.8176 50.3728C33.9464 50.7097 34.0951 51.0351 34.2354 51.3621L34.4518 51.8509C34.5261 52.0127 34.6103 52.1696 34.6896 52.3282C34.8481 52.6453 35.01 52.959 35.1751 53.2695C35.3502 53.575 35.5302 53.8789 35.7102 54.1778L35.9827 54.627L36.275 55.0614C36.4699 55.3504 36.6664 55.6361 36.8662 55.9185C37.0694 56.1992 37.2873 56.4701 37.4987 56.7409C37.7151 57.0101 37.9215 57.2842 38.1527 57.5386C38.6102 58.0522 39.0528 58.5691 39.5449 59.0414C41.4656 60.9687 43.624 62.5822 45.8684 63.9298C46.1508 64.0949 46.4316 64.2601 46.714 64.4269L46.818 64.488L46.9154 64.5392L47.107 64.6383L47.4902 64.8381C47.9955 65.0957 48.5256 65.3814 48.9897 65.5796C49.4653 65.791 49.9426 66.0156 50.4166 66.2105C50.8889 66.3987 51.3612 66.587 51.8335 66.7753C52.3042 66.9553 52.7716 67.1138 53.2389 67.2806C53.4718 67.3615 53.708 67.4524 53.9375 67.5201L54.6278 67.7381L55.3181 67.9528L55.6649 68.0601L56.0316 68.1658C56.5188 68.3078 57.0059 68.4482 57.503 68.5721C58.4989 68.8281 59.4964 69.0493 60.4922 69.2393C61.1346 69.6422 61.7903 70.0287 62.4624 70.3903C67.2385 72.9914 72.6553 74.5851 78.2423 74.851C80.3083 74.9484 82.3775 74.8642 84.4188 74.5867C86.46 74.3109 88.4748 73.8568 90.4334 73.2111C92.4168 72.5719 94.3293 71.7314 96.1789 70.7206C96.6413 70.4663 97.1037 70.2087 97.5595 69.9329L98.2433 69.5217C98.4695 69.3846 98.6925 69.231 98.9171 69.084L99.5876 68.6332C99.8122 68.4845 100.028 68.3145 100.25 68.1559C100.687 67.8322 101.13 67.5217 101.554 67.1667C102.42 66.4929 103.257 65.758 104.081 65.0082C104.489 64.6234 104.895 64.2386 105.303 63.8555C105.7 63.4542 106.094 63.0529 106.491 62.6515C108.051 61.0166 109.533 59.2825 110.923 57.4725C111.267 57.0167 111.62 56.5708 111.952 56.1067C112.287 55.6443 112.616 55.177 112.94 54.7063C113.26 54.2356 113.579 53.7617 113.889 53.2844L114.003 53.1044L114.089 52.9673L114.256 52.6998L114.586 52.1647C114.809 51.8063 115.009 51.4546 115.217 51.0995L115.526 50.5661L115.828 50.0178C116.028 49.6528 116.229 49.2878 116.424 48.9047L116.717 48.3366L116.862 48.0509L117.006 47.7553C117.769 46.193 118.495 44.5316 119.148 42.6357C119.311 42.1485 119.468 41.6547 119.622 41.1626C119.77 40.639 119.914 40.1106 120.053 39.5772L120.248 38.7184L120.34 38.289C120.371 38.1437 120.401 38.0066 120.428 37.8447C120.484 37.5326 120.535 37.2188 120.586 36.9051C120.636 36.5913 120.685 36.2891 120.721 35.9307C120.759 35.5872 120.794 35.242 120.826 34.8969L120.847 34.6376L120.857 34.5071L120.865 34.3634L120.888 33.792C120.903 33.4122 120.911 33.0307 120.915 32.6492C120.944 33.5443 120.872 31.3858 120.88 31.6055Z" fill="#11AEAE"/>
<path fill-rule="evenodd" clip-rule="evenodd" d="M74.7553 47.2581C118.083 67.6863 155.084 80.2649 157.4 75.3533C159.299 71.3247 137.274 56.7807 105.385 40.409C124.084 50.1738 136.506 58.1006 135.58 60.0649C134.308 62.7631 108.329 53.1884 77.5554 38.6791C46.7816 24.1698 22.8657 10.2203 24.1379 7.52204C24.8779 5.95257 33.9767 8.53543 47.5161 13.8264C21.1651 3.18939 2.13647 -2.10136 0.496805 1.37632C-1.81894 6.28796 31.4277 26.8299 74.7553 47.2581Z" fill="#D9D9D9"/>
</svg>
