<svg width="175" height="168" viewBox="0 0 175 168" fill="none" xmlns="http://www.w3.org/2000/svg">
<path d="M151.667 10.6517C151.966 10.9154 152.259 11.1792 152.551 11.4481C152.621 11.516 152.69 11.5839 152.758 11.6518C152.688 11.704 152.618 11.7588 152.551 11.8163C152.449 11.7118 152.345 11.61 152.235 11.5055C151.952 11.2418 151.671 10.9755 151.376 10.7196C149.03 8.6569 146.154 6.94145 142.904 5.76386C146.267 6.86572 149.25 8.57333 151.667 10.6517ZM169.375 59.6664C169.47 61.4654 169.537 63.2775 169.565 65.0974C169.589 66.9173 169.573 68.7503 169.507 70.5937C169.444 72.4344 169.323 74.2883 169.126 76.1578C168.931 78.0247 168.664 79.9047 168.298 81.7951C167.933 83.6881 167.463 85.5942 166.844 87.5133C166.223 89.4272 165.457 91.3541 164.468 93.2706C163.479 95.1845 162.267 97.0959 160.735 98.9262C159.211 100.754 157.324 102.496 155.121 103.981C156.94 102.689 158.535 101.195 159.877 99.6155C161.225 98.0358 162.328 96.37 163.243 94.6832C164.164 92.9991 164.881 91.2915 165.475 89.5891C166.07 87.8867 166.539 86.1895 166.926 84.5027C167.676 81.1371 168.11 77.8237 168.41 74.599C168.567 72.988 168.672 71.4005 168.781 69.8365C168.874 68.2777 168.968 66.7371 169.057 65.2253C169.168 60.9197 168.92 56.7629 168.497 52.7236C168.319 51.0526 168.11 49.4024 167.88 47.7678C168.049 47.7992 168.215 47.8253 168.381 47.8436C168.806 51.7419 169.159 55.6819 169.375 59.6664ZM135.049 19.4014C135.061 19.4301 135.073 19.4588 135.086 19.4875C134.75 19.4614 134.39 19.4458 134.021 19.4431C134.372 19.4196 134.717 19.4066 135.049 19.4014ZM166.789 40.9269C166.749 40.6919 166.705 40.4595 166.663 40.2245C166.814 40.7885 166.952 41.3603 167.073 41.9452C167.306 43.0836 167.49 44.2664 167.55 45.5328C167.311 43.9844 167.056 42.4491 166.789 40.9269ZM152.352 54.7942C152.316 54.3503 152.279 53.9038 152.238 53.4573C152.008 51.5539 151.734 49.6452 151.425 47.7313C151.423 47.7 151.419 47.666 151.418 47.6321C151.481 47.6478 151.543 47.6634 151.604 47.6791C151.848 49.6086 152.062 51.5356 152.238 53.4573C152.28 53.8072 152.321 54.1597 152.359 54.5096C152.356 54.6062 152.356 54.7002 152.352 54.7942ZM134.388 34.569C134.446 34.9998 134.5 35.4332 134.553 35.8667C134.545 35.9346 134.536 36.0051 134.527 36.073C134.462 35.7231 134.395 35.3706 134.325 35.0207C134.346 34.8666 134.367 34.7178 134.388 34.569ZM131.521 0.823748C131.071 0.836802 130.618 0.852449 130.17 0.873339C129.736 0.902063 129.3 0.936014 128.866 0.969957C128.418 1.0039 128.033 1.05352 127.622 1.09791C127.208 1.14752 126.84 1.18405 126.341 1.265L125.639 1.37989C125.403 1.41906 125.173 1.45563 124.927 1.50785C124.444 1.60446 123.961 1.70629 123.479 1.81594C121.554 2.26766 119.658 2.8917 117.866 3.65151C116.071 4.41133 114.382 5.30953 112.842 6.30173C111.299 7.29132 109.904 8.37229 108.658 9.49504C107.411 10.6204 106.323 11.7875 105.357 12.9625C103.43 15.3229 101.994 17.7199 100.882 20.0594C99.4328 23.3154 98.3101 26.4747 97.3895 29.5767C96.4758 32.6786 95.7923 35.7205 95.369 38.6918C94.9473 41.6632 94.791 44.5589 94.9876 47.3188C95.1318 49.3319 95.4656 51.2745 96.0277 53.1101C96.0048 53.9456 95.9769 55.1232 95.961 56.3086C95.9559 56.9483 95.9486 57.588 95.9435 58.1755C95.94 58.763 95.9381 59.2956 95.9416 59.7265C95.9575 64.7658 96.1738 69.86 96.8324 75.0742C97.1646 77.6801 97.5968 80.3146 98.2186 83.0014C98.8443 85.6908 99.6328 88.4246 100.734 91.2236C101.03 91.9312 101.297 92.6257 101.636 93.3412C101.799 93.6963 101.957 94.0488 102.13 94.4039L102.672 95.4796C102.767 95.6598 102.851 95.8347 102.953 96.0175L103.257 96.558C103.465 96.9209 103.656 97.276 103.879 97.6416C104.333 98.37 104.774 99.0907 105.301 99.8218C105.789 100.545 106.376 101.279 106.945 101.999C107.249 102.365 107.569 102.728 107.884 103.086C108.047 103.266 108.194 103.446 108.37 103.626L108.89 104.161L109.417 104.697L109.684 104.96L109.971 105.224C110.352 105.577 110.74 105.921 111.13 106.266C111.963 106.947 112.787 107.621 113.727 108.253C114.186 108.571 114.642 108.887 115.143 109.182C115.637 109.48 116.123 109.78 116.634 110.06C117.155 110.336 117.678 110.605 118.205 110.872C118.465 111.008 118.739 111.128 119.013 111.245L119.837 111.605C122.042 112.532 124.384 113.271 126.711 113.736C127.002 113.796 127.295 113.859 127.587 113.916L128.453 114.055C129.029 114.143 129.614 114.243 130.185 114.308C131.319 114.42 132.473 114.543 133.566 114.569L134.397 114.598C134.673 114.608 134.955 114.621 135.217 114.616C135.753 114.611 136.287 114.603 136.821 114.593C137.088 114.585 137.357 114.587 137.621 114.569L138.41 114.522C138.935 114.488 139.46 114.454 139.986 114.415C140.525 114.358 141.064 114.295 141.602 114.23L142.408 114.13C142.682 114.091 142.957 114.044 143.231 113.997C143.779 113.903 144.327 113.807 144.872 113.707C145.425 113.587 145.978 113.459 146.528 113.329C146.804 113.263 147.078 113.203 147.354 113.128L148.182 112.887L149.005 112.642C149.28 112.559 149.554 112.478 149.826 112.378C150.371 112.185 150.913 111.987 151.453 111.786C151.724 111.689 151.989 111.574 152.254 111.459L153.046 111.115L153.835 110.762C154.093 110.639 154.347 110.506 154.601 110.378C155.107 110.115 155.622 109.859 156.11 109.577C156.595 109.289 157.077 109 157.553 108.705C157.795 108.561 158.02 108.404 158.247 108.25L158.923 107.78L159.593 107.305L160.223 106.809L160.849 106.31C161.052 106.141 161.267 105.973 161.453 105.801C161.84 105.456 162.221 105.107 162.599 104.757C162.794 104.582 162.962 104.404 163.138 104.227L163.658 103.689L164.173 103.148L164.646 102.605C164.956 102.24 165.28 101.874 165.568 101.506L166.408 100.401L166.615 100.122L166.805 99.8453L167.179 99.2917C167.696 98.5502 168.115 97.8165 168.558 97.0724C168.766 96.7042 168.955 96.3386 169.152 95.9705L169.444 95.4169L169.705 94.8712L170.22 93.7746L170.677 92.691L170.902 92.1479L171.104 91.6126L171.499 90.5369C171.979 89.1191 172.413 87.7065 172.747 86.3226C173.439 83.5471 173.887 80.842 174.178 78.1918C174.472 75.5364 174.621 72.9332 174.674 70.3613C174.778 65.2175 174.497 60.2017 174.04 55.2354C174.514 61.643 174.663 68.0583 174.092 74.6565C173.945 76.3093 173.76 77.9699 173.495 79.6514C173.235 81.3329 172.921 83.0275 172.501 84.7508C171.678 88.1869 170.506 91.7327 168.612 95.3647C167.669 97.1794 166.499 99.0202 165.062 100.832C163.623 102.642 161.891 104.428 159.824 106.06C157.764 107.694 155.366 109.159 152.772 110.318C150.183 111.48 147.421 112.331 144.694 112.88C144.016 113.005 143.34 113.12 142.658 113.232C142.315 113.292 141.983 113.331 141.649 113.371L140.646 113.488L140.144 113.543C139.975 113.561 139.808 113.577 139.646 113.587L138.664 113.653C138.011 113.694 137.359 113.739 136.689 113.741L135.69 113.754C135.354 113.757 135.031 113.77 134.681 113.754C133.993 113.733 133.302 113.705 132.614 113.673C131.909 113.619 131.198 113.551 130.491 113.48C130.14 113.451 129.776 113.389 129.416 113.339L128.336 113.172C125.447 112.684 122.494 111.838 119.756 110.634C117.014 109.436 114.517 107.893 112.404 106.201C112.676 106.182 113.08 106.242 113.295 106.156C113.509 106.073 113.528 105.851 113.061 105.274C115.219 106.851 117.699 108.269 120.379 109.357C123.056 110.454 125.906 111.203 128.685 111.621L129.723 111.765C130.07 111.807 130.419 111.861 130.756 111.882C131.436 111.937 132.118 111.995 132.795 112.036C133.457 112.057 134.119 112.073 134.782 112.089C134.949 112.094 135.11 112.094 135.27 112.086L135.751 112.078L136.712 112.055C137.357 112.047 137.983 111.989 138.613 111.95L139.559 111.88C139.877 111.851 140.2 111.809 140.521 111.773C141.797 111.639 143.102 111.42 144.401 111.167C147.006 110.645 149.638 109.817 152.099 108.707C154.562 107.6 156.843 106.203 158.807 104.644C160.778 103.086 162.442 101.381 163.835 99.6416C165.232 97.9027 166.369 96.1271 167.325 94.3647C168.286 92.597 169.038 90.8424 169.681 89.1034C170.318 87.3645 170.849 85.6359 171.259 83.9335C172.097 80.5183 172.571 77.1657 172.801 73.8549C172.91 72.2021 172.972 70.5545 172.959 68.92C172.952 67.2855 172.892 65.6562 172.771 64.0399C172.718 63.2279 172.638 62.4237 172.559 61.6143C172.467 60.8101 172.38 60.0032 172.263 59.2042C172.044 57.5958 171.766 56.0005 171.441 54.4078C172.065 54.3529 173.303 54.2433 173.938 54.1884C173.484 49.6165 172.871 45.0863 172.165 40.5744C171.809 38.3184 171.431 36.0677 171.039 33.8222C170.638 31.6028 170.238 29.3756 169.835 27.1405C169.779 26.9186 169.718 26.6888 169.656 26.4799C169.602 26.3024 169.544 26.1248 169.482 25.9499C169.454 25.8742 169.428 25.7985 169.401 25.7254C169.375 25.6601 169.351 25.5948 169.324 25.5295C169.296 25.4642 169.27 25.399 169.242 25.3363L169.219 25.2893L169.194 25.224L169.145 25.0909C169.076 24.9159 169.004 24.741 168.931 24.5713C168.855 24.3989 168.776 24.2057 168.695 24.0282C168.609 23.8454 168.525 23.6652 168.44 23.4877C168.353 23.2997 168.261 23.1143 168.166 22.9341C167.416 21.4589 166.476 19.9732 165.422 18.5946C165.54 20.4641 165.578 22.203 165.626 23.8088C165.638 24.1796 165.65 24.5504 165.663 24.9185C165.501 24.4929 165.338 24.0699 165.172 23.6548C164.937 23.0647 164.702 22.472 164.465 21.8767L164.424 21.7748C164.412 21.7409 164.392 21.6939 164.399 21.6991C164.401 21.6834 164.399 21.6625 164.412 21.6704L164.426 21.6704L164.428 21.6704L164.421 21.6547L164.406 21.6181L164.38 21.545L164.268 21.2578C164.125 20.8766 163.955 20.485 163.792 20.0985C163.723 19.9314 163.646 19.7591 163.569 19.5894C163.544 19.3283 163.519 19.0672 163.497 18.8087C163.459 18.3517 163.421 17.8922 163.382 17.4326L163.307 16.7172C163.28 16.4796 163.256 16.242 163.219 15.994C162.955 15.712 162.694 15.443 162.437 15.1819C162.17 14.9156 161.903 14.6571 161.643 14.409C161.511 14.2863 161.383 14.1662 161.255 14.0461C161.121 13.9234 160.989 13.8033 160.857 13.6832C160.596 13.4482 160.341 13.2236 160.095 13.0095C159.802 12.798 159.507 12.6048 159.213 12.4246C159.211 12.422 159.21 12.422 159.21 12.4194C158.611 11.6831 157.968 10.9416 157.228 10.2027C156.829 9.78488 156.339 9.33838 155.866 8.90756C155.625 8.69344 155.355 8.47151 155.097 8.25479C154.837 8.03807 154.573 7.82398 154.297 7.61771C154.025 7.41143 153.751 7.20515 153.473 7.00148C153.191 6.80305 152.904 6.60984 152.616 6.41663C152.472 6.32263 152.33 6.2234 152.182 6.13201L151.736 5.85785C151.437 5.67507 151.14 5.49231 150.834 5.31999C149.61 4.62805 148.324 4.01183 146.99 3.47134C146.657 3.33556 146.316 3.21546 145.977 3.09013C145.638 2.96219 145.297 2.8421 144.951 2.73504C144.603 2.62538 144.255 2.51833 143.907 2.40866C143.557 2.30683 143.204 2.21282 142.849 2.11881L142.317 1.98044C142.139 1.93866 141.96 1.89949 141.781 1.85771C141.421 1.77938 141.061 1.70368 140.7 1.62534C140.339 1.55484 139.975 1.49217 139.611 1.42689C139.246 1.36684 138.882 1.30156 138.513 1.25717C138.144 1.21017 137.777 1.16317 137.41 1.11357L137.132 1.08222L136.87 1.05612L136.351 1.00652C136.004 0.975183 135.653 0.94124 135.311 0.915132C134.98 0.896852 134.65 0.875971 134.321 0.855081C134.082 0.844637 133.838 0.831575 133.601 0.823748L132.904 0.813295C132.442 0.810678 131.962 0.805468 131.521 0.823748Z" fill="#11AEAE"/>
<g clip-path="url(#clip0_464_1754)">
<path d="M77.2617 66.949L118.367 52.5439L108.68 72.4131L100.443 71.2474L93.635 75.4648L92.7384 69.8859L77.2617 66.949Z" fill="#E0E0E0"/>
<path d="M76.1758 87.7549L107.674 92.2969L95.834 99.3709L76.1758 87.7549Z" fill="#333333"/>
<path d="M97.7788 58.7255C86.1538 62.9442 76.4741 66.5536 76.2866 66.7176C75.8179 67.0926 75.7945 67.7489 76.2398 68.1005C76.4038 68.2411 80.0601 68.9208 84.3257 69.577L92.0835 70.7958V73.8661C92.0835 78.4833 92.271 78.5067 96.9585 74.7801C99.771 72.5301 100.474 72.0848 100.966 72.1786C103.709 72.7176 108.982 73.3505 109.169 73.163C109.779 72.5067 120.466 52.0458 120.396 51.6239C120.349 51.2723 120.138 51.1083 119.623 51.0848C119.177 51.038 111.021 53.8973 97.7788 58.7255ZM112.334 63.2255C110.06 67.538 108.162 71.1005 108.115 71.1473C108.021 71.2645 96.7241 69.5067 96.3491 69.3192C96.1851 69.2255 100.099 66.3895 106.193 62.2176C111.771 58.3973 116.365 55.3036 116.412 55.327C116.435 55.3739 114.607 58.9364 112.334 63.2255ZM111.982 55.7958C111.818 55.913 94.1226 68.0067 93.4429 68.452C92.857 68.8505 92.5991 68.827 87.0679 67.9598C83.9038 67.4676 81.3023 67.0223 81.3023 66.952C81.3023 66.8348 111.419 55.7723 111.865 55.7255C111.982 55.702 112.029 55.7489 111.982 55.7958ZM97.0757 71.6161C97.4507 71.7567 97.2398 71.9911 95.9507 72.9989C95.0835 73.6786 94.2632 74.2176 94.1695 74.2176C94.0523 74.2176 93.9585 73.5145 93.9585 72.6708V71.1473L95.3179 71.3114C96.0445 71.4051 96.8413 71.5458 97.0757 71.6161Z" fill="#F2F2F2"/>
<path d="M82.6629 74.0302C81.2566 75.0615 80.9519 75.7412 81.655 76.3271C82.1472 76.7255 82.8738 76.4912 84.2332 75.4365C85.1707 74.7333 85.405 74.4052 85.405 73.8662C85.405 73.2568 85.3113 73.163 84.7019 73.1162C84.1863 73.0693 83.6238 73.3271 82.6629 74.0302Z" fill="#F2F2F2"/>
<path d="M71.928 81.3662C69.4201 83.1006 67.2639 84.5303 67.1701 84.5303C67.0764 84.5303 65.342 84.2725 63.3498 83.9443C61.3576 83.6162 59.3889 83.3584 58.967 83.3584C58.3811 83.3584 57.0686 84.1553 52.967 86.9912C50.0608 88.9834 47.5998 90.624 47.4826 90.624C47.3655 90.624 44.7639 89.1943 41.717 87.46L36.1858 84.2959L20.1311 88.1865C8.8342 90.9287 3.93576 92.1943 3.63107 92.499C3.2092 92.8975 3.2092 92.9912 3.53732 93.4834C3.74826 93.7881 5.78732 95.124 8.10764 96.46C10.4045 97.8193 12.6779 99.1553 13.1936 99.4834L14.0842 100.046L8.15451 103.397C4.87326 105.249 1.80295 107.03 1.3342 107.358C0.349823 108.038 0.18576 108.741 0.912323 109.14C1.28732 109.351 14.0139 111.483 14.9279 111.483C15.1623 111.483 15.2092 114.647 15.1623 126.882L15.092 142.304L11.0842 142.374C6.63107 142.444 6.2092 142.562 6.72482 143.71L7.00607 144.296H11.1076H15.2092V149.569C15.2092 154.772 15.2092 154.843 15.7248 155.147C16.0295 155.335 27.3029 157.187 40.8733 159.296L65.4826 163.116L81.303 159.296C89.9983 157.21 97.3576 155.335 97.6623 155.147C98.178 154.843 98.178 154.772 98.178 149.569V144.296L103.99 144.249L109.78 144.179V143.358V142.538L103.967 142.468L98.178 142.421L98.2248 126.905L98.2951 111.413L103.569 110.101C108.631 108.835 108.842 108.765 108.912 108.202C109.006 107.429 108.912 107.358 103.17 103.233C98.8576 100.116 98.4592 99.7881 98.8342 99.4834C99.0451 99.2959 101.365 97.6787 103.967 95.8975C106.592 94.1162 108.795 92.4521 108.865 92.1943C108.936 91.9365 108.865 91.6084 108.655 91.3975C108.42 91.1631 103.967 90.3662 94.4045 88.8428C86.7405 87.6475 80.342 86.6162 80.1545 86.5928C79.967 86.5459 81.7951 85.1631 84.1858 83.5225C86.5998 81.8818 88.6155 80.4287 88.7092 80.2881C88.7795 80.1475 88.7795 79.7959 88.7092 79.4678C88.428 78.3662 87.5842 78.7412 82.1467 82.4443L76.967 86.0068L73.8498 85.585C72.1389 85.3506 70.6858 85.0928 70.6389 84.9756C70.5686 84.8818 72.1155 83.71 74.0842 82.374C76.0295 81.0381 77.7405 79.749 77.8811 79.5381C78.0686 79.2568 78.0686 79.0225 77.8811 78.7178C77.3186 77.8271 76.6155 78.1318 71.928 81.3662ZM63.2561 86.0068L64.7561 86.2881L63.5373 87.1553C62.3186 88.0459 62.0608 88.6318 62.5998 89.1709C63.1155 89.6865 63.7248 89.4756 65.7873 88.0928L67.8264 86.7334L71.0842 87.2021C74.1076 87.6709 74.2951 87.7178 73.8967 88.0693C73.6389 88.2803 71.6233 89.6865 69.3733 91.21L65.2951 93.9756L57.8889 92.8506C53.8108 92.2412 50.4123 91.6553 50.2951 91.585C50.2014 91.4912 52.053 90.085 54.3967 88.4443L58.6858 85.4678L60.2092 85.6084C61.053 85.6787 62.4123 85.8662 63.2561 86.0068ZM40.3576 89.0068C42.842 90.4365 44.928 91.6787 45.0217 91.749C45.1155 91.8428 38.6936 93.5068 30.7248 95.4521L16.2639 98.9678L11.9045 96.3662C9.49045 94.96 7.54514 93.6709 7.54514 93.5537C7.5217 93.4131 13.8733 91.7725 21.6311 89.8975C29.3654 87.999 35.7405 86.4521 35.7873 86.4287C35.8342 86.4053 37.8967 87.5771 40.3576 89.0068ZM91.3108 90.3896C98.7639 91.5615 104.951 92.5459 105.045 92.5693C105.233 92.6162 96.7951 98.499 96.2092 98.7334C96.0686 98.7803 89.8811 97.8896 82.4748 96.7178C75.0686 95.5693 68.8576 94.6084 68.6701 94.6084C68.3655 94.6084 68.342 94.5615 68.6467 94.2568C69.2326 93.6943 77.178 88.3037 77.4826 88.2803C77.6233 88.2803 83.8576 89.2412 91.3108 90.3896ZM55.4748 94.5381C59.3655 95.1475 62.553 95.71 62.553 95.8037C62.553 95.874 61.8264 96.4365 60.9123 97.0459C59.6233 97.8896 59.2717 98.2412 59.2717 98.71C59.2717 99.0381 59.4592 99.3896 59.7405 99.5303C60.303 99.835 60.5139 99.7412 63.3967 97.7256C64.592 96.9287 65.7873 96.249 66.092 96.249C66.9826 96.249 91.0061 100.046 91.1936 100.21C91.428 100.421 65.6936 106.679 64.9201 106.608C64.592 106.585 54.6545 105.038 42.8655 103.187C26.8108 100.679 21.6076 99.7881 22.1233 99.624C24.842 98.8975 47.3186 93.4834 47.7873 93.46C48.1155 93.4365 51.5608 93.9287 55.4748 94.5381ZM39.4201 104.687C51.8186 106.632 62.0373 108.249 62.1311 108.272C62.2248 108.296 59.6467 109.819 56.4123 111.671L50.5295 115.022L27.7717 111.483C15.2561 109.538 4.92014 107.921 4.80295 107.874C4.47482 107.804 15.9358 101.218 16.4514 101.194C16.6858 101.171 27.0217 102.765 39.4201 104.687ZM101.131 104.265C103.498 105.976 105.444 107.429 105.444 107.499C105.444 107.616 76.9436 114.554 76.5451 114.53C76.2405 114.53 67.9201 108.366 68.0373 108.249C68.1076 108.202 74.5764 106.585 82.4045 104.687C90.2326 102.765 96.678 101.194 96.7248 101.194C96.7717 101.171 98.7639 102.554 101.131 104.265ZM64.428 135.272V160.913L63.7951 160.796C63.4201 160.726 52.803 159.062 40.1701 157.093L17.2014 153.53L17.1311 132.741C17.0842 114.624 17.1311 111.952 17.4358 111.952C17.6233 111.952 25.1701 113.124 34.217 114.53C43.2639 115.96 50.8342 117.062 51.0451 116.991C51.2561 116.921 54.2795 115.233 57.7483 113.265C61.2405 111.272 64.1467 109.632 64.2639 109.632C64.3576 109.608 64.428 121.163 64.428 135.272ZM71.2248 113.241C73.803 115.116 76.0998 116.64 76.3342 116.64C76.5451 116.64 80.8576 115.632 85.8733 114.413C90.9123 113.194 95.2483 112.14 95.553 112.069L96.0686 111.952V132.812C96.0686 144.272 95.9983 153.671 95.928 153.671C95.8576 153.671 89.2483 155.241 81.2561 157.187C73.2639 159.108 66.6311 160.702 66.5139 160.702C66.3967 160.702 66.303 150.343 66.303 135.272C66.303 121.28 66.3498 109.843 66.4201 109.843C66.4905 109.843 68.6467 111.366 71.2248 113.241Z" fill="#F2F2F2"/>
<path d="M28.9668 118.233C28.6152 118.631 28.5684 119.733 28.5684 130.631C28.5684 139.913 28.6387 142.655 28.873 142.842C29.0137 142.983 33.9355 143.827 39.7949 144.741C49.7793 146.311 50.459 146.381 50.8809 146.03C51.2793 145.655 51.3027 145.139 51.3027 139.233C51.3027 133.748 51.2559 132.788 50.9277 132.483C50.4356 131.967 49.7324 132.014 49.4277 132.553C49.2871 132.834 49.1934 135.178 49.1934 138.53C49.1934 142.866 49.1231 144.061 48.8887 144.061C48.5606 144.061 32.3652 141.553 31.334 141.342L30.6777 141.202V130.678C30.6777 122.405 30.748 120.155 30.9824 120.155C31.123 120.155 34.5215 120.694 38.5293 121.327C43.5918 122.123 45.9121 122.405 46.1934 122.241C46.6856 121.983 46.7559 121.022 46.3105 120.67C46.1465 120.53 42.5371 119.873 38.2949 119.241C34.0293 118.584 30.2793 117.975 29.9512 117.905C29.5527 117.834 29.2246 117.928 28.9668 118.233Z" fill="#F2F2F2"/>
<path d="M53.0371 120.812C52.8965 120.905 49.6621 124.468 45.8418 128.757L38.9277 136.538L37.2402 134.265C35.459 131.897 35.0137 131.405 34.5215 131.405C34.1465 131.405 33.4902 132.062 33.4902 132.437C33.4902 132.741 36.8418 137.358 37.8965 138.483C38.2246 138.858 38.6699 139.14 38.9043 139.14C39.3496 139.14 54.1152 122.78 54.4434 121.913C54.7949 120.999 53.8574 120.249 53.0371 120.812Z" fill="#F2F2F2"/>
<path d="M91.4272 144.343C91.2632 144.507 91.146 145.327 91.146 146.429V148.21L90.4663 148.351C89.06 148.632 89.0132 150.39 90.396 150.39C91.4975 150.39 92.7632 149.921 93.0444 149.405C93.4428 148.679 93.2319 144.577 92.7866 144.296C92.2944 143.991 91.7553 144.015 91.4272 144.343Z" fill="#F2F2F2"/>
<path d="M79.4277 151.046L73.2168 152.616V153.436C73.2168 154.186 73.2871 154.257 73.9199 154.303C74.3184 154.35 77.4824 153.647 80.9512 152.78L87.2793 151.21V150.389C87.2793 149.616 87.2324 149.569 86.459 149.522C86.0137 149.499 82.8496 150.202 79.4277 151.046Z" fill="#F2F2F2"/>
<path d="M97.3572 80.6394C95.2009 82.1394 94.779 82.7722 95.365 83.4988C95.8103 84.0144 96.115 83.9207 98.2009 82.5144C100.474 80.991 101.013 80.4519 100.826 79.8894C100.404 78.7879 99.8181 78.9051 97.3572 80.6394Z" fill="#F2F2F2"/>
<path d="M113.226 142.819C113.085 143.054 113.085 143.476 113.202 143.757C113.366 144.249 113.554 144.296 114.937 144.296C116.343 144.296 116.484 144.249 116.741 143.71C117.163 142.772 116.671 142.421 114.913 142.421C113.741 142.421 113.39 142.515 113.226 142.819Z" fill="#F2F2F2"/>
</g>
<defs>
<clipPath id="clip0_464_1754">
<rect width="120" height="120" fill="white" transform="translate(0.443359 47.0303)"/>
</clipPath>
</defs>
</svg>
