<svg width="397" height="268" viewBox="0 0 397 268" fill="none" xmlns="http://www.w3.org/2000/svg">
<path d="M70.6848 135.558C70.4213 135.468 70.185 135.376 69.9411 135.285L69.2137 135.007L68.4776 134.698L68.1096 134.542L67.7404 134.371L67.0021 134.025L66.2628 133.644L66.0787 133.548C66.0178 133.517 65.9557 133.485 65.8893 133.446L65.4994 133.221L65.1096 132.995L64.9158 132.881L64.7034 132.744C64.4214 132.563 64.1405 132.379 63.8617 132.19C63.5862 131.996 63.3162 131.796 63.045 131.595C61.9736 130.777 60.9707 129.858 60.0897 128.831C59.2077 127.805 58.4466 126.672 57.852 125.45C57.2575 124.229 56.8263 122.921 56.5922 121.572C56.1316 118.869 56.4593 116.029 57.4557 113.388C57.9522 112.066 58.6056 110.789 59.382 109.576L59.676 109.123C59.7772 108.973 59.8818 108.826 59.9863 108.679L60.3032 108.238C60.4077 108.097 60.5101 107.965 60.6146 107.829L60.9304 107.426L61.2255 107.07L61.5228 106.716L61.8244 106.375C63.4501 104.564 65.2501 103.027 67.172 101.693C69.0939 100.36 71.1487 99.241 73.3265 98.323C75.1755 97.5433 77.0833 96.9477 79.0433 96.5307L78.366 96.7441L77.6321 97.013C77.3838 97.0969 77.1529 97.2069 76.9134 97.3049C76.6771 97.4072 76.4364 97.5031 76.2089 97.6185L75.5207 97.9539L74.851 98.3154C73.5258 99.0428 72.2942 99.8965 71.1563 100.832C70.4474 101.253 69.756 101.7 69.082 102.171C67.9223 102.904 66.9259 103.697 66.1288 104.457C65.053 105.255 64.012 106.129 63.0287 107.115C62.7848 107.364 62.5387 107.608 62.3024 107.872L61.9452 108.263L61.5707 108.705C61.3235 108.99 61.0687 109.326 60.8226 109.648C60.6974 109.809 60.5819 109.978 60.4633 110.143C60.3456 110.311 60.2259 110.475 60.1148 110.647C59.2165 112.009 58.4586 113.473 57.9479 115.021C57.4263 116.565 57.1508 118.19 57.1464 119.82C57.1464 119.82 57.1464 119.921 57.1464 120.073C57.1497 120.224 57.1464 120.427 57.1573 120.629C57.1704 120.831 57.1834 121.032 57.1932 121.184C57.1987 121.26 57.2031 121.323 57.2074 121.366C57.2096 121.411 57.2139 121.436 57.2139 121.436C57.3359 122.503 57.6419 123.524 58.0143 124.359C58.1896 124.781 58.4063 125.147 58.5958 125.468C58.7972 125.784 58.9954 126.043 59.1653 126.243C59.3907 126.496 59.5595 126.626 59.6749 126.674L59.86 126.958C59.9242 127.052 59.9928 127.142 60.0593 127.234C60.1932 127.416 60.3282 127.599 60.4654 127.78L60.9021 128.303C60.9761 128.389 61.0469 128.477 61.1242 128.561L61.3572 128.81C61.513 128.975 61.6687 129.14 61.8276 129.302L62.3242 129.772L62.5736 130.003C62.6596 130.079 62.7467 130.151 62.8338 130.225L63.3586 130.661C63.5318 130.807 63.718 130.939 63.8988 131.077C64.0817 131.212 64.2624 131.35 64.4487 131.48L65.0149 131.86L65.2991 132.048L65.4406 132.14L65.5735 132.22L66.1038 132.535L66.3706 132.692C66.461 132.746 66.5415 132.786 66.6276 132.833L67.1383 133.105C67.3081 133.196 67.478 133.286 67.6479 133.366L68.1586 133.612C68.3284 133.695 68.4994 133.779 68.6703 133.851C69.0101 133.999 69.352 134.154 69.6906 134.293L70.1164 134.462C70.1632 134.503 70.209 134.546 70.2569 134.587C70.8362 135.09 71.4449 135.563 72.0721 136.01C71.606 135.871 71.14 135.72 70.6848 135.558ZM61.9115 128.019L62.3514 128.461L62.5736 128.68L62.8044 128.89L63.2705 129.305C63.4294 129.44 63.5939 129.568 63.7561 129.699C63.9205 129.827 64.0795 129.961 64.2494 130.082C64.4182 130.204 64.588 130.326 64.7568 130.447L65.0127 130.628C65.0976 130.686 65.1869 130.742 65.274 130.8C65.4504 130.912 65.6258 131.024 65.8022 131.136C65.8882 131.191 65.9797 131.252 66.0635 131.299L66.3139 131.443C66.4816 131.538 66.6493 131.634 66.817 131.73C66.9869 131.83 67.147 131.906 67.3103 131.992C67.4736 132.075 67.637 132.159 67.8003 132.242C67.8548 132.272 67.9103 132.299 67.9658 132.325C68.09 132.466 68.2141 132.606 68.3415 132.744C68.4014 132.809 68.4645 132.872 68.5255 132.936C68.2337 132.796 67.9408 132.651 67.6489 132.499L67.172 132.241C67.0108 132.153 66.8562 132.076 66.6885 131.972L66.1942 131.675C66.0297 131.575 65.8708 131.481 65.6911 131.359L65.1706 131.009L64.9114 130.83L64.6599 130.643C64.3245 130.391 63.987 130.14 63.6712 129.863L63.192 129.453L62.7336 129.018C62.4244 128.733 62.1456 128.416 61.8581 128.108C61.3093 127.471 60.7877 126.804 60.3544 126.079C60.8095 126.773 61.3507 127.408 61.9115 128.019ZM89.193 112.564C89.4032 112.522 89.548 112.498 89.548 112.498C89.548 112.498 89.5861 112.526 89.6242 112.553C89.6623 112.58 89.6993 112.608 89.6993 112.608C89.6993 112.608 89.548 112.619 89.3215 112.652C89.2082 112.666 89.0797 112.686 88.9404 112.713C88.8032 112.737 88.6573 112.767 88.5124 112.803C88.3698 112.836 88.2271 112.875 88.0965 112.915C87.9658 112.954 87.8449 112.995 87.7437 113.032C87.6424 113.068 87.5596 113.098 87.5008 113.123C87.4431 113.147 87.4104 113.16 87.4104 113.16C87.4104 113.16 87.4409 113.146 87.4943 113.12C87.5477 113.094 87.625 113.059 87.7186 113.02C87.907 112.938 88.1662 112.841 88.434 112.759C88.703 112.675 88.9796 112.608 89.193 112.564ZM91.7759 116.095C91.7628 116.119 91.7497 116.144 91.7356 116.168C91.5156 116.482 91.1944 116.716 90.8383 116.851C90.4855 116.989 90.1066 117.045 89.7364 117.055C89.6394 117.061 89.5425 117.058 89.4456 117.049C89.4532 117.024 89.4609 116.999 89.4652 116.972C89.4772 116.9 89.475 116.818 89.463 116.73C89.5338 116.709 89.6024 116.684 89.6688 116.657C89.6961 116.661 89.7211 116.667 89.7473 116.67C89.9149 116.684 90.0892 116.693 90.2667 116.678C90.6173 116.649 90.993 116.547 91.3 116.305C91.3948 116.232 91.4786 116.145 91.5548 116.049C91.63 116.066 91.704 116.081 91.7759 116.095ZM84.2091 119.727C84.2145 119.728 84.2199 119.728 84.2254 119.729C84.2287 119.73 84.2297 119.73 84.233 119.731C84.2308 119.731 84.2287 119.73 84.2276 119.73C84.2221 119.729 84.2156 119.728 84.2091 119.727ZM84.4835 119.78C84.4846 119.781 84.4856 119.781 84.4867 119.781C84.4889 119.781 84.49 119.782 84.49 119.782C84.4889 119.781 84.4856 119.781 84.4835 119.78ZM83.9608 119.699L83.9652 119.699L83.9641 119.699L83.9586 119.699C83.9597 119.699 83.9597 119.699 83.9608 119.699ZM83.8138 119.7C83.8149 119.7 83.8149 119.7 83.8149 119.7L83.8214 119.699L83.8192 119.7L83.8138 119.7ZM83.8138 119.7C83.8138 119.7 83.8127 119.7 83.8116 119.7L83.8083 119.7C83.8105 119.7 83.8116 119.7 83.8138 119.7ZM85.4885 120.149C85.4896 120.149 85.4907 120.149 85.4907 120.15C85.494 120.151 85.4962 120.152 85.4983 120.153C85.4885 120.148 85.4776 120.144 85.4678 120.138C85.4744 120.141 85.482 120.145 85.4885 120.149ZM86.3749 120.631C86.3727 120.63 86.3716 120.629 86.3716 120.629C86.3716 120.628 86.3716 120.628 86.3705 120.628L86.3716 120.628L86.3716 120.629C86.3716 120.629 86.3727 120.63 86.3738 120.63C86.376 120.631 86.3771 120.633 86.3793 120.635C86.3771 120.633 86.3749 120.631 86.3727 120.629C86.3727 120.63 86.3738 120.63 86.3749 120.631ZM86.3455 120.613C86.3433 120.612 86.3422 120.61 86.3401 120.609C86.3411 120.61 86.3433 120.611 86.3444 120.612L86.3455 120.613ZM86.2519 120.553C86.2551 120.555 86.2573 120.556 86.2595 120.557C86.2584 120.557 86.2573 120.556 86.2562 120.555C86.254 120.554 86.2519 120.553 86.2497 120.552C86.2508 120.552 86.2519 120.553 86.2519 120.553ZM84.0316 119.704L84.0337 119.704C84.0337 119.704 84.0337 119.704 84.0348 119.704C84.0337 119.704 84.0327 119.704 84.0316 119.704ZM92.9584 116.39C92.8953 116.765 92.7766 117.131 92.6002 117.468C92.4249 117.806 92.1908 118.113 91.9131 118.375C91.8096 118.474 91.6997 118.563 91.5864 118.647C91.4797 118.639 91.3719 118.629 91.263 118.617C91.2554 118.617 91.2478 118.616 91.2423 118.615C91.3403 118.558 91.4372 118.499 91.5309 118.434C91.8412 118.216 92.1167 117.944 92.3367 117.63C92.6655 117.165 92.8495 116.611 92.9105 116.036C92.9214 116.033 92.9323 116.03 92.941 116.026C92.9399 116.067 92.9377 116.11 92.9356 116.156C92.9301 116.213 92.9225 116.27 92.9192 116.317C92.9127 116.411 92.9192 116.464 92.9584 116.39ZM92.9301 115.42C92.9356 115.501 92.9421 115.581 92.9432 115.662C92.9399 115.646 92.9367 115.632 92.9323 115.617C92.9334 115.552 92.9323 115.485 92.9301 115.42ZM91.7084 113.708L91.6899 113.643C91.7062 113.677 91.7203 113.71 91.7356 113.744C91.7269 113.735 91.7193 113.727 91.7106 113.719C91.7095 113.715 91.7095 113.711 91.7084 113.708ZM91.3556 113.066C91.3697 113.088 91.3839 113.109 91.3991 113.131C91.5113 113.316 91.6125 113.503 91.6888 113.696C91.6507 113.657 91.6104 113.617 91.569 113.578C91.5145 113.414 91.4438 113.242 91.3556 113.066ZM96.7925 112.864C96.7925 112.865 96.7925 112.865 96.7925 112.865C96.7838 112.898 96.7751 112.931 96.7674 112.964C96.7609 112.991 96.75 113.022 96.7402 113.054C96.6335 113.137 96.5638 113.189 96.5976 113.162L96.5976 113.155L96.5965 113.142L96.5943 113.116L96.5845 113.012L96.5791 112.949C96.5791 112.947 96.5801 112.945 96.5801 112.943C96.6586 112.914 96.7293 112.888 96.7925 112.864ZM59.5888 122.179C59.7892 122.815 60.0658 123.422 60.3663 124.008L60.6092 124.438L60.7322 124.652L60.8661 124.858L61.1362 125.268C61.2287 125.403 61.3311 125.532 61.428 125.662C62.2142 126.704 63.1474 127.614 64.1557 128.392C64.4062 128.589 64.6697 128.769 64.9256 128.954C65.0519 129.048 65.188 129.13 65.3198 129.216L65.7172 129.47L65.8588 129.558C66.1114 129.948 66.376 130.329 66.6526 130.703C66.9324 131.08 67.2232 131.449 67.5248 131.81C66.9292 131.498 66.327 131.156 65.6791 130.723C65.2381 130.443 64.8189 130.127 64.3975 129.811C63.9891 129.479 63.5742 129.149 63.1931 128.78C62.42 128.056 61.7013 127.257 61.0926 126.371C60.4839 125.487 59.9765 124.523 59.6063 123.496C59.2339 122.472 59.0019 121.385 58.9388 120.275L58.9192 119.752C58.9148 119.665 58.9159 119.577 58.9192 119.489L58.9257 119.228C58.929 118.879 58.9693 118.534 59.0008 118.19C58.9812 119.559 59.162 120.912 59.5888 122.179ZM113.17 112.053L113.169 112.044L113.166 112.026L113.163 111.989L113.158 111.915L113.145 111.768L113.121 111.509L113.078 111.101L113.028 110.695L112.977 110.367C112.912 109.936 112.822 109.501 112.724 109.066C112.318 107.325 111.621 105.587 110.707 104.046C109.793 102.503 108.684 101.172 107.535 100.069C106.38 98.9633 105.188 98.0856 104.013 97.3495C102.839 96.62 101.681 96.0341 100.548 95.5441C99.9819 95.3002 99.42 95.0781 98.8636 94.8755C98.3072 94.673 97.7562 94.4911 97.2095 94.3224C95.0971 93.7452 93.0837 93.4044 91.1008 93.1964C90.1109 93.0941 89.1277 93.0276 88.1433 92.9939C87.65 92.9765 87.1567 92.9699 86.6613 92.9699C86.413 92.9688 86.1637 92.9721 85.9132 92.9765L85.5375 92.9852L85.3481 92.9917L85.1521 92.9982C84.0305 93.0396 82.9383 93.1442 81.8701 93.2944C80.804 93.4491 79.7663 93.657 78.7515 93.901C77.7399 94.1514 76.7544 94.4454 75.7885 94.771C74.8292 95.1042 73.8895 95.469 72.9715 95.8697C72.0579 96.2759 71.1607 96.7071 70.2874 97.1796C69.4162 97.6544 68.5593 98.1499 67.7284 98.6932C66.0635 99.7702 64.4781 100.982 62.9786 102.361C62.2305 103.053 61.5031 103.78 60.803 104.562C60.6288 104.757 60.4567 104.961 60.2847 105.16C60.1126 105.358 59.9438 105.569 59.7761 105.778L59.5257 106.092L59.4625 106.172L59.3939 106.262L59.2556 106.445L58.9823 106.81C58.892 106.933 58.8048 107.051 58.709 107.189C57.1965 109.319 56.0205 111.66 55.3399 114.109C54.7737 116.166 54.5842 118.233 54.7715 120.205C54.7835 120.327 54.7966 120.45 54.8085 120.573C54.8205 120.695 54.8336 120.818 54.8554 120.939C54.8913 121.181 54.9305 121.423 54.9708 121.663C55.0154 121.902 55.0721 122.139 55.1254 122.374C55.1526 122.491 55.1766 122.61 55.2093 122.725C55.243 122.842 55.2768 122.957 55.3094 123.073C55.3443 123.188 55.378 123.303 55.4118 123.418L55.4641 123.589L55.5218 123.758C55.6024 123.983 55.6829 124.206 55.7646 124.427C55.8495 124.65 55.9475 124.864 56.0401 125.08L56.1827 125.402C56.2317 125.509 56.2873 125.612 56.3396 125.717C56.4441 125.926 56.5508 126.133 56.6597 126.337C56.7751 126.539 56.8938 126.739 57.0125 126.936L57.1922 127.232L57.3849 127.519C57.5134 127.709 57.643 127.898 57.7747 128.084C57.9087 128.269 58.0524 128.448 58.1918 128.626C58.3344 128.804 58.4705 128.984 58.623 129.152C58.9246 129.491 59.2164 129.832 59.5409 130.143C60.8073 131.414 62.2305 132.478 63.7104 133.366C63.8966 133.475 64.0817 133.584 64.2679 133.694L64.3365 133.734L64.4007 133.768L64.527 133.833L64.7797 133.965C65.1129 134.135 65.4624 134.323 65.7684 134.454C66.082 134.593 66.3967 134.742 66.7092 134.87C67.0206 134.994 67.3321 135.118 67.6435 135.242C67.9538 135.361 68.262 135.466 68.5702 135.576C68.7237 135.629 68.8794 135.689 69.0308 135.734L69.4859 135.877L69.9411 136.019L70.1698 136.09L70.4115 136.159C70.7327 136.253 71.054 136.346 71.3817 136.427C72.0383 136.596 72.696 136.742 73.3526 136.867C73.7762 137.133 74.2085 137.388 74.6517 137.626C77.8008 139.341 81.3725 140.392 85.0562 140.567C86.4185 140.631 87.7829 140.576 89.1288 140.393C90.4746 140.211 91.8031 139.912 93.0945 139.486C94.4023 139.065 95.6633 138.51 96.8829 137.844C97.1878 137.676 97.4926 137.506 97.7932 137.324L98.244 137.053C98.3932 136.963 98.5402 136.862 98.6883 136.765L99.1304 136.467C99.2785 136.369 99.4211 136.257 99.567 136.153C99.8556 135.939 100.147 135.735 100.427 135.501C100.998 135.056 101.55 134.572 102.093 134.077C102.362 133.824 102.63 133.57 102.899 133.317C103.16 133.053 103.421 132.788 103.682 132.523C104.711 131.445 105.688 130.302 106.605 129.109C106.831 128.808 107.064 128.514 107.283 128.208C107.504 127.903 107.721 127.595 107.934 127.285C108.145 126.974 108.356 126.662 108.56 126.347L108.635 126.228L108.692 126.138L108.802 125.962L109.02 125.609C109.167 125.373 109.299 125.141 109.436 124.907L109.639 124.555L109.839 124.193C109.97 123.953 110.103 123.712 110.232 123.459L110.425 123.085L110.52 122.896L110.615 122.701C111.118 121.671 111.597 120.576 112.027 119.326C112.135 119.005 112.239 118.679 112.34 118.355C112.438 118.009 112.533 117.661 112.624 117.309L112.753 116.743L112.814 116.46C112.834 116.364 112.854 116.274 112.871 116.167C112.908 115.961 112.942 115.754 112.976 115.547C113.009 115.34 113.041 115.141 113.065 114.905C113.09 114.678 113.113 114.451 113.134 114.223L113.148 114.052L113.154 113.966L113.16 113.872L113.175 113.495C113.185 113.244 113.19 112.993 113.193 112.741C113.212 113.331 113.164 111.908 113.17 112.053Z" fill="#11AEAE"/>
<path d="M30.3908 124.962C30.276 124.922 30.173 124.882 30.0668 124.843L29.7498 124.722L29.4292 124.587L29.2688 124.519L29.108 124.445L28.7863 124.294L28.4642 124.128L28.384 124.086C28.3575 124.072 28.3304 124.058 28.3015 124.041L28.1317 123.944L27.9618 123.845L27.8774 123.795L27.7849 123.736C27.662 123.657 27.5396 123.576 27.4182 123.494C27.2981 123.41 27.1805 123.323 27.0624 123.235C26.5955 122.879 26.1586 122.478 25.7748 122.031C25.3906 121.584 25.059 121.09 24.7999 120.558C24.5409 120.026 24.353 119.456 24.251 118.868C24.0504 117.691 24.1932 116.453 24.6272 115.303C24.8436 114.727 25.1282 114.17 25.4665 113.642L25.5946 113.445C25.6387 113.379 25.6842 113.315 25.7298 113.251L25.8678 113.059C25.9134 112.998 25.9579 112.94 26.0035 112.881L26.1411 112.705L26.2696 112.55L26.3991 112.396L26.5306 112.248C27.2388 111.458 28.023 110.789 28.8603 110.208C29.6977 109.627 30.5929 109.139 31.5417 108.739C32.3472 108.4 33.1784 108.14 34.0323 107.959L33.7372 108.052L33.4175 108.169C33.3093 108.205 33.2087 108.253 33.1044 108.296C33.0014 108.341 32.8966 108.382 32.7974 108.433L32.4976 108.579L32.2058 108.736C31.6285 109.053 31.0919 109.425 30.5962 109.833C30.2874 110.016 29.9861 110.211 29.6925 110.416C29.1872 110.735 28.7531 111.081 28.4059 111.412C27.9372 111.76 27.4836 112.14 27.0552 112.57C26.949 112.678 26.8418 112.785 26.7388 112.9L26.5832 113.07L26.42 113.262C26.3123 113.387 26.2013 113.533 26.0941 113.673C26.0395 113.743 25.9893 113.817 25.9375 113.889C25.8863 113.962 25.8341 114.034 25.7857 114.109C25.3944 114.702 25.0642 115.34 24.8417 116.014C24.6144 116.687 24.4944 117.395 24.4925 118.105C24.4925 118.105 24.4925 118.149 24.4925 118.215C24.4939 118.281 24.4925 118.369 24.4973 118.458C24.503 118.545 24.5086 118.633 24.5129 118.699C24.5153 118.732 24.5172 118.76 24.5191 118.779C24.52 118.798 24.5219 118.809 24.5219 118.809C24.5751 119.274 24.7084 119.719 24.8706 120.082C24.947 120.267 25.0414 120.426 25.1239 120.566C25.2117 120.703 25.2981 120.816 25.3721 120.903C25.4703 121.014 25.5438 121.07 25.5941 121.091L25.6747 121.215C25.7027 121.256 25.7326 121.295 25.7615 121.335C25.8199 121.415 25.8787 121.494 25.9385 121.573L26.1287 121.801C26.161 121.838 26.1918 121.877 26.2255 121.913L26.327 122.022C26.3949 122.093 26.4627 122.166 26.532 122.236L26.7483 122.441L26.8569 122.541C26.8944 122.575 26.9324 122.606 26.9703 122.638L27.199 122.828C27.2744 122.892 27.3555 122.949 27.4343 123.01C27.514 123.068 27.5927 123.128 27.6739 123.185L27.9206 123.351L28.0444 123.432L28.106 123.473L28.1639 123.507L28.395 123.645L28.5112 123.713C28.5506 123.736 28.5857 123.754 28.6231 123.774L28.8456 123.893C28.9196 123.933 28.9937 123.972 29.0677 124.007L29.2902 124.114C29.3642 124.15 29.4386 124.187 29.5131 124.218C29.6611 124.282 29.8101 124.35 29.9576 124.41L30.1431 124.484C30.1635 124.502 30.1835 124.521 30.2043 124.539C30.4567 124.758 30.7219 124.964 30.9952 125.159C30.7921 125.098 30.5891 125.032 30.3908 124.962ZM26.5685 121.677L26.7602 121.87L26.8569 121.965L26.9575 122.056L27.1606 122.237C27.2298 122.296 27.3015 122.352 27.3721 122.409C27.4438 122.465 27.513 122.523 27.587 122.576C27.6606 122.629 27.7346 122.682 27.8081 122.735L27.9196 122.814C27.9566 122.839 27.9955 122.863 28.0335 122.889C28.1103 122.937 28.1867 122.986 28.2635 123.035C28.301 123.059 28.3409 123.085 28.3774 123.106L28.4865 123.169C28.5596 123.21 28.6326 123.252 28.7057 123.294C28.7797 123.337 28.8494 123.371 28.9206 123.408C28.9918 123.444 29.0629 123.481 29.1341 123.517C29.1578 123.53 29.182 123.542 29.2062 123.553C29.2603 123.614 29.3144 123.676 29.3699 123.736C29.3959 123.764 29.4235 123.791 29.45 123.819C29.3229 123.758 29.1953 123.695 29.0681 123.629L28.8603 123.517C28.7901 123.478 28.7228 123.445 28.6497 123.399L28.4343 123.27C28.3627 123.226 28.2934 123.186 28.2152 123.132L27.9884 122.98L27.8755 122.902L27.7659 122.82C27.6198 122.711 27.4727 122.601 27.3351 122.481L27.1264 122.302L26.9267 122.112C26.7919 121.988 26.6705 121.85 26.5453 121.716C26.3062 121.438 26.0789 121.148 25.8901 120.832C26.0884 121.134 26.3242 121.411 26.5685 121.677ZM38.4542 114.944C38.5458 114.926 38.6089 114.915 38.6089 114.915C38.6089 114.915 38.6255 114.927 38.6421 114.939C38.6587 114.951 38.6748 114.963 38.6748 114.963C38.6748 114.963 38.6089 114.968 38.5102 114.982C38.4608 114.988 38.4049 114.997 38.3441 115.009C38.2844 115.019 38.2208 115.032 38.1577 115.048C38.0956 115.062 38.0334 115.079 37.9765 115.097C37.9195 115.114 37.8669 115.132 37.8228 115.148C37.7787 115.163 37.7426 115.177 37.717 115.188C37.6918 115.198 37.6776 115.204 37.6776 115.204C37.6776 115.204 37.6909 115.198 37.7141 115.186C37.7374 115.175 37.7711 115.16 37.8119 115.143C37.8939 115.107 38.0068 115.065 38.1235 115.029C38.2407 114.992 38.3612 114.963 38.4542 114.944ZM39.5795 116.482C39.5738 116.493 39.5681 116.504 39.5619 116.514C39.4661 116.651 39.3262 116.753 39.171 116.811C39.0173 116.872 38.8522 116.896 38.6909 116.901C38.6487 116.903 38.6065 116.902 38.5643 116.898C38.5676 116.887 38.5709 116.876 38.5728 116.864C38.578 116.833 38.5771 116.797 38.5718 116.759C38.6027 116.75 38.6326 116.739 38.6615 116.727C38.6734 116.729 38.6843 116.731 38.6957 116.733C38.7687 116.739 38.8446 116.743 38.922 116.736C39.0747 116.724 39.2384 116.679 39.3722 116.574C39.4134 116.542 39.45 116.504 39.4832 116.462C39.5159 116.469 39.5482 116.476 39.5795 116.482ZM36.2829 118.064C36.2852 118.065 36.2876 118.065 36.29 118.065C36.2914 118.066 36.2919 118.066 36.2933 118.066C36.2923 118.066 36.2914 118.066 36.2909 118.066C36.2885 118.065 36.2857 118.065 36.2829 118.064ZM36.4024 118.088C36.4029 118.088 36.4034 118.088 36.4038 118.088C36.4048 118.088 36.4053 118.089 36.4053 118.089C36.4048 118.088 36.4034 118.088 36.4024 118.088ZM36.1747 118.052L36.1766 118.052L36.1761 118.052L36.1737 118.052C36.1742 118.052 36.1742 118.052 36.1747 118.052ZM36.1106 118.053C36.1111 118.053 36.1111 118.053 36.1111 118.053L36.114 118.052L36.113 118.053L36.1106 118.053ZM36.1106 118.053C36.1106 118.053 36.1102 118.053 36.1097 118.053L36.1083 118.053C36.1092 118.053 36.1097 118.053 36.1106 118.053ZM36.8403 118.248C36.8408 118.248 36.8412 118.248 36.8412 118.249C36.8427 118.249 36.8436 118.25 36.8445 118.25C36.8403 118.248 36.8355 118.246 36.8313 118.244C36.8341 118.245 36.8374 118.247 36.8403 118.248ZM37.2264 118.459C37.2255 118.458 37.225 118.458 37.225 118.458C37.225 118.457 37.225 118.457 37.2245 118.457L37.225 118.457L37.225 118.458C37.225 118.458 37.2255 118.458 37.226 118.458C37.2269 118.459 37.2274 118.459 37.2283 118.46C37.2274 118.459 37.2264 118.459 37.2255 118.458C37.2255 118.458 37.226 118.458 37.2264 118.459ZM37.2136 118.451C37.2127 118.45 37.2122 118.449 37.2113 118.449C37.2117 118.449 37.2127 118.45 37.2132 118.45L37.2136 118.451ZM37.1728 118.424C37.1743 118.425 37.1752 118.426 37.1762 118.426C37.1757 118.426 37.1752 118.426 37.1747 118.425C37.1738 118.425 37.1728 118.424 37.1719 118.424C37.1724 118.424 37.1728 118.424 37.1728 118.424ZM36.2055 118.054L36.2065 118.054C36.2065 118.054 36.2065 118.054 36.2069 118.054C36.2065 118.054 36.206 118.054 36.2055 118.054ZM40.0947 116.611C40.0672 116.774 40.0155 116.933 39.9386 117.08C39.8622 117.228 39.7602 117.361 39.6393 117.476C39.5942 117.519 39.5463 117.557 39.4969 117.594C39.4504 117.59 39.4035 117.586 39.356 117.581C39.3527 117.581 39.3494 117.58 39.347 117.58C39.3897 117.555 39.4319 117.53 39.4727 117.501C39.6079 117.406 39.728 117.288 39.8238 117.151C39.9671 116.949 40.0472 116.707 40.0738 116.457C40.0786 116.455 40.0833 116.454 40.0871 116.452C40.0866 116.47 40.0857 116.489 40.0847 116.509C40.0824 116.533 40.079 116.559 40.0776 116.579C40.0748 116.62 40.0776 116.643 40.0947 116.611ZM40.0824 116.188C40.0847 116.223 40.0876 116.258 40.088 116.293C40.0866 116.287 40.0852 116.281 40.0833 116.274C40.0838 116.245 40.0833 116.217 40.0824 116.188ZM39.5501 115.442L39.542 115.414C39.5491 115.429 39.5553 115.443 39.5619 115.458C39.5581 115.454 39.5548 115.45 39.551 115.447C39.5505 115.445 39.5505 115.444 39.5501 115.442ZM39.3964 115.162C39.4025 115.172 39.4087 115.181 39.4153 115.191C39.4642 115.272 39.5083 115.353 39.5415 115.437C39.5249 115.42 39.5074 115.402 39.4893 115.385C39.4656 115.314 39.4348 115.239 39.3964 115.162ZM41.7651 115.075C41.7651 115.075 41.7651 115.075 41.7651 115.075C41.7613 115.089 41.7575 115.104 41.7542 115.118C41.7513 115.13 41.7466 115.143 41.7423 115.157C41.6958 115.193 41.6654 115.216 41.6801 115.204L41.6801 115.201L41.6797 115.196L41.6787 115.184L41.6744 115.139L41.6721 115.112C41.6721 115.111 41.6726 115.11 41.6726 115.109C41.7067 115.096 41.7375 115.085 41.7651 115.075ZM25.5566 119.133C25.6439 119.41 25.7644 119.674 25.8953 119.93L26.0011 120.117L26.0547 120.21L26.1131 120.3L26.2307 120.479C26.2711 120.537 26.3156 120.593 26.3579 120.65C26.7004 121.104 27.107 121.5 27.5462 121.84C27.6554 121.926 27.7702 122.004 27.8817 122.084C27.9367 122.125 27.996 122.161 28.0534 122.199L28.2265 122.309L28.2882 122.348C28.3983 122.518 28.5136 122.684 28.6341 122.846C28.756 123.01 28.8826 123.171 29.0141 123.329C28.7546 123.193 28.4922 123.044 28.2099 122.855C28.0178 122.733 27.8352 122.595 27.6516 122.458C27.4737 122.313 27.2929 122.169 27.1269 122.009C26.79 121.693 26.4769 121.345 26.2118 120.959C25.9466 120.574 25.7255 120.154 25.5642 119.707C25.4019 119.26 25.3009 118.787 25.2734 118.303L25.2648 118.075C25.2629 118.037 25.2634 117.999 25.2648 117.961L25.2677 117.847C25.2691 117.695 25.2867 117.545 25.3004 117.395C25.2919 117.991 25.3706 118.581 25.5566 119.133ZM48.9001 114.721L48.8996 114.717L48.8987 114.709L48.8972 114.693L48.8949 114.661L48.8892 114.597L48.8787 114.484L48.8602 114.307L48.8384 114.13L48.8161 113.987C48.7876 113.799 48.7487 113.609 48.7061 113.42C48.5291 112.661 48.2255 111.904 47.827 111.233C47.429 110.561 46.946 109.981 46.445 109.5C45.9422 109.018 45.4227 108.636 44.9108 108.315C44.3994 107.998 43.8947 107.742 43.4013 107.529C43.1546 107.423 42.9098 107.326 42.6674 107.238C42.425 107.149 42.1849 107.07 41.9468 106.997C41.0264 106.745 40.1492 106.597 39.2854 106.506C38.8541 106.461 38.4257 106.432 37.9969 106.418C37.782 106.41 37.5671 106.407 37.3512 106.407C37.243 106.407 37.1344 106.408 37.0253 106.41L36.8616 106.414L36.7791 106.417L36.6937 106.42C36.2051 106.438 35.7292 106.483 35.2638 106.549C34.7994 106.616 34.3473 106.707 33.9052 106.813C33.4644 106.922 33.0351 107.05 32.6143 107.192C32.1963 107.337 31.7869 107.496 31.387 107.671C30.989 107.848 30.5981 108.035 30.2176 108.241C29.8381 108.448 29.4647 108.664 29.1028 108.901C28.3774 109.37 27.6867 109.898 27.0334 110.499C26.7075 110.8 26.3906 111.117 26.0856 111.458C26.0097 111.543 25.9347 111.631 25.8597 111.718C25.7848 111.805 25.7113 111.896 25.6382 111.987L25.5291 112.124L25.5016 112.159L25.4717 112.198L25.4114 112.278L25.2924 112.437C25.253 112.491 25.215 112.542 25.1733 112.602C24.5143 113.53 24.002 114.55 23.7055 115.617C23.4588 116.513 23.3762 117.413 23.4578 118.273C23.4631 118.326 23.4688 118.379 23.474 118.433C23.4792 118.486 23.4849 118.54 23.4944 118.592C23.51 118.698 23.5271 118.803 23.5447 118.908C23.5641 119.012 23.5888 119.115 23.612 119.218C23.6239 119.269 23.6343 119.321 23.6486 119.371C23.6633 119.422 23.678 119.472 23.6922 119.522C23.7074 119.572 23.7221 119.622 23.7368 119.673L23.7596 119.747L23.7847 119.821C23.8198 119.919 23.8549 120.016 23.8905 120.112C23.9275 120.209 23.9702 120.303 24.0105 120.397L24.0727 120.537C24.094 120.583 24.1182 120.628 24.141 120.674C24.1865 120.765 24.233 120.855 24.2805 120.944C24.3307 121.032 24.3825 121.12 24.4342 121.205L24.5124 121.334L24.5964 121.459C24.6524 121.542 24.7088 121.624 24.7662 121.705C24.8246 121.786 24.8872 121.864 24.9479 121.942C25.0101 122.019 25.0694 122.098 25.1358 122.171C25.2672 122.318 25.3944 122.467 25.5357 122.602C26.0875 123.156 26.7075 123.62 27.3522 124.007C27.4333 124.054 27.514 124.102 27.5951 124.15L27.625 124.167L27.653 124.182L27.708 124.21L27.8181 124.268C27.9632 124.342 28.1155 124.424 28.2488 124.481C28.3855 124.541 28.5226 124.606 28.6587 124.662C28.7944 124.716 28.9301 124.77 29.0658 124.824C29.201 124.876 29.3352 124.921 29.4695 124.969C29.5364 124.993 29.6042 125.019 29.6702 125.038L29.8685 125.101L30.0668 125.162L30.1664 125.193L30.2717 125.224C30.4116 125.264 30.5516 125.305 30.6944 125.34C30.9804 125.414 31.267 125.477 31.5531 125.532C31.7376 125.648 31.9259 125.759 32.119 125.863C33.491 126.61 35.047 127.068 36.6519 127.144C37.2454 127.172 37.8398 127.148 38.4262 127.068C39.0126 126.989 39.5913 126.858 40.154 126.673C40.7237 126.489 41.2731 126.248 41.8044 125.957C41.9373 125.884 42.0701 125.81 42.201 125.731L42.3974 125.613C42.4624 125.574 42.5265 125.53 42.591 125.487L42.7836 125.358C42.8481 125.315 42.9103 125.266 42.9738 125.221C43.0996 125.128 43.2267 125.039 43.3486 124.937C43.5972 124.743 43.8377 124.532 44.0745 124.317C44.1916 124.206 44.3083 124.095 44.4255 123.985C44.5394 123.87 44.6528 123.755 44.7666 123.64C45.2149 123.17 45.6405 122.672 46.0399 122.152C46.1386 122.021 46.2401 121.893 46.3355 121.759C46.4318 121.627 46.5262 121.492 46.6192 121.357C46.7112 121.222 46.8027 121.086 46.8919 120.949L46.9247 120.897L46.9493 120.858L46.9972 120.781L47.0921 120.627C47.1562 120.524 47.2136 120.423 47.2734 120.321L47.3621 120.168L47.4489 120.01C47.5063 119.906 47.5642 119.801 47.6201 119.691L47.7041 119.527L47.7459 119.445L47.7871 119.36C48.0063 118.912 48.215 118.434 48.4024 117.89C48.4494 117.75 48.4945 117.608 48.5386 117.467C48.5813 117.316 48.6226 117.164 48.6624 117.011L48.7184 116.764L48.745 116.641C48.754 116.599 48.7625 116.56 48.7701 116.514C48.7862 116.424 48.8009 116.334 48.8156 116.244C48.8299 116.153 48.8441 116.067 48.8545 115.964C48.8654 115.865 48.8754 115.766 48.8844 115.667L48.8906 115.592L48.8934 115.555L48.8958 115.513L48.9025 115.349C48.9067 115.24 48.9091 115.131 48.91 115.021C48.9186 115.278 48.8977 114.658 48.9001 114.721Z" fill="#11AEAE"/>
<path d="M4.27444 109.984C4.21119 109.962 4.15447 109.94 4.09593 109.918L3.92133 109.852L3.74465 109.778L3.65631 109.74L3.56771 109.699L3.3905 109.616L3.21303 109.525L3.16886 109.502C3.15422 109.494 3.13933 109.486 3.12338 109.477L3.02981 109.423L2.93624 109.369L2.88972 109.341L2.83875 109.309C2.77106 109.265 2.70363 109.221 2.63672 109.176C2.57059 109.129 2.50578 109.081 2.4407 109.033C2.18351 108.836 1.94279 108.616 1.73135 108.369C1.51964 108.123 1.33695 107.851 1.19424 107.558C1.05153 107.265 0.948036 106.951 0.891842 106.627C0.781285 105.978 0.859955 105.296 1.09911 104.663C1.21829 104.345 1.37511 104.039 1.56146 103.748L1.63203 103.639C1.65634 103.603 1.68143 103.568 1.70652 103.532L1.78258 103.426C1.80767 103.393 1.83224 103.361 1.85733 103.328L1.93312 103.232L2.00395 103.146L2.07531 103.061L2.14771 102.979C2.53793 102.545 2.96996 102.176 3.43127 101.856C3.89258 101.536 4.38578 101.267 4.90851 101.047C5.35231 100.86 5.81023 100.717 6.28068 100.616L6.11811 100.668L5.94195 100.732C5.88236 100.752 5.82695 100.779 5.76945 100.802C5.71273 100.827 5.65497 100.85 5.60035 100.878L5.43517 100.958L5.27443 101.045C4.95634 101.219 4.66074 101.424 4.38761 101.649C4.21746 101.75 4.0515 101.857 3.88971 101.97C3.61135 102.146 3.3722 102.336 3.18089 102.519C2.92265 102.71 2.67279 102.92 2.43678 103.157C2.37823 103.217 2.31916 103.275 2.26244 103.339L2.17672 103.432L2.08681 103.539C2.02747 103.607 1.96632 103.688 1.90725 103.765C1.87719 103.804 1.84949 103.844 1.821 103.884C1.79277 103.924 1.76402 103.963 1.73736 104.005C1.52173 104.332 1.33982 104.683 1.21724 105.055C1.09205 105.425 1.02592 105.815 1.02488 106.207C1.02488 106.207 1.02488 106.231 1.02488 106.267C1.02566 106.303 1.02488 106.352 1.02749 106.401C1.03063 106.449 1.03376 106.497 1.03611 106.534C1.03742 106.552 1.03847 106.567 1.03951 106.578C1.04004 106.588 1.04108 106.594 1.04108 106.594C1.07035 106.851 1.1438 107.095 1.23319 107.296C1.27526 107.397 1.32728 107.485 1.37276 107.562C1.42111 107.638 1.46868 107.7 1.50945 107.748C1.56355 107.809 1.60406 107.84 1.63177 107.852L1.6762 107.92C1.69162 107.942 1.70809 107.964 1.72403 107.986C1.75618 108.03 1.78859 108.074 1.82152 108.117L1.92633 108.243C1.9441 108.263 1.96109 108.284 1.97964 108.305L2.03558 108.364C2.07295 108.404 2.11033 108.444 2.14849 108.483L2.26767 108.595L2.32752 108.651C2.34817 108.669 2.36908 108.686 2.38999 108.704L2.51597 108.809C2.55753 108.844 2.60222 108.875 2.64561 108.909C2.68952 108.941 2.7329 108.974 2.7776 109.005L2.91351 109.096L2.98172 109.141L3.0157 109.164L3.04759 109.183L3.17487 109.258L3.23891 109.296C3.2606 109.309 3.27994 109.319 3.30059 109.33L3.42317 109.395C3.46394 109.417 3.50472 109.439 3.54549 109.458L3.66807 109.517C3.70884 109.537 3.74988 109.557 3.79091 109.574C3.87246 109.61 3.95453 109.647 4.03581 109.68L4.13801 109.721C4.14925 109.731 4.16022 109.741 4.17172 109.751C4.31077 109.872 4.45687 109.985 4.60742 110.093C4.49555 110.059 4.38369 110.023 4.27444 109.984ZM2.16861 108.174L2.2742 108.28L2.32752 108.333L2.38293 108.383L2.4948 108.483C2.53296 108.515 2.57242 108.546 2.61137 108.578C2.65083 108.608 2.68899 108.641 2.72977 108.67C2.77028 108.699 2.81105 108.728 2.85156 108.757L2.91298 108.801C2.93337 108.815 2.9548 108.828 2.97571 108.842C3.01805 108.869 3.06013 108.896 3.10247 108.923C3.12312 108.936 3.14508 108.95 3.1652 108.962L3.22532 108.996C3.26557 109.019 3.30582 109.042 3.34607 109.065C3.38684 109.089 3.42526 109.107 3.46447 109.128C3.50367 109.148 3.54288 109.168 3.58208 109.188C3.59515 109.195 3.60848 109.202 3.62181 109.208C3.6516 109.242 3.6814 109.275 3.71198 109.309C3.72635 109.324 3.74151 109.339 3.75615 109.355C3.6861 109.321 3.6158 109.286 3.54575 109.25L3.43127 109.188C3.39259 109.167 3.35547 109.148 3.31522 109.123L3.19657 109.052C3.1571 109.028 3.11894 109.005 3.07581 108.976L2.95088 108.892L2.88868 108.849L2.8283 108.804C2.7478 108.744 2.66678 108.683 2.59098 108.617L2.47598 108.519L2.36595 108.414C2.29172 108.346 2.22481 108.27 2.15581 108.196C2.02408 108.043 1.89888 107.883 1.79486 107.709C1.90411 107.875 2.03401 108.028 2.16861 108.174ZM8.71687 104.465C8.76732 104.455 8.80208 104.449 8.80208 104.449C8.80208 104.449 8.81123 104.456 8.82038 104.462C8.82952 104.469 8.83841 104.476 8.83841 104.476C8.83841 104.476 8.80208 104.478 8.74771 104.486C8.72053 104.489 8.68969 104.494 8.65624 104.501C8.6233 104.506 8.58828 104.514 8.55352 104.522C8.51928 104.53 8.48504 104.54 8.45368 104.549C8.42231 104.558 8.3933 104.568 8.369 104.577C8.34469 104.586 8.32483 104.593 8.31071 104.599C8.29686 104.605 8.28902 104.608 8.28902 104.608C8.28902 104.608 8.29634 104.605 8.30914 104.598C8.32195 104.592 8.34051 104.584 8.36299 104.574C8.4082 104.555 8.47041 104.531 8.5347 104.512C8.59926 104.491 8.66565 104.476 8.71687 104.465ZM9.33683 105.312C9.3337 105.318 9.33056 105.324 9.32716 105.33C9.27437 105.405 9.19727 105.461 9.1118 105.494C9.02712 105.527 8.93616 105.54 8.8473 105.543C8.82404 105.544 8.80077 105.543 8.77751 105.541C8.77934 105.535 8.78117 105.529 8.78222 105.523C8.78509 105.506 8.78457 105.486 8.78169 105.465C8.79868 105.46 8.81515 105.454 8.83109 105.447C8.83763 105.448 8.84364 105.45 8.84991 105.45C8.89016 105.454 8.93198 105.456 8.97458 105.452C9.05874 105.445 9.14891 105.421 9.22262 105.363C9.24536 105.345 9.26548 105.324 9.28378 105.301C9.30181 105.305 9.31958 105.309 9.33683 105.312ZM7.5206 106.184C7.52191 106.184 7.52322 106.184 7.52452 106.185C7.52531 106.185 7.52557 106.185 7.52635 106.185C7.52583 106.185 7.52531 106.185 7.52505 106.185C7.52374 106.185 7.52217 106.184 7.5206 106.184ZM7.58647 106.197C7.58673 106.197 7.58699 106.197 7.58725 106.197C7.58777 106.197 7.58804 106.197 7.58804 106.197C7.58778 106.197 7.58699 106.197 7.58647 106.197ZM7.46101 106.178L7.46206 106.178L7.46179 106.178L7.46049 106.178C7.46075 106.178 7.46075 106.178 7.46101 106.178ZM7.42573 106.178C7.42599 106.178 7.42599 106.178 7.42599 106.178L7.42756 106.178L7.42703 106.178L7.42573 106.178ZM7.42573 106.178C7.42573 106.178 7.42546 106.178 7.4252 106.178L7.42442 106.178C7.42494 106.178 7.4252 106.178 7.42573 106.178ZM7.82771 106.285C7.82797 106.285 7.82823 106.285 7.82823 106.286C7.82901 106.286 7.82954 106.286 7.83006 106.287C7.82771 106.285 7.82509 106.284 7.82274 106.283C7.82431 106.284 7.82614 106.284 7.82771 106.285ZM8.04046 106.401C8.03994 106.401 8.03968 106.401 8.03968 106.401C8.03968 106.4 8.03967 106.4 8.03941 106.4L8.03968 106.4L8.03968 106.401C8.03968 106.401 8.03994 106.401 8.0402 106.401C8.04072 106.401 8.04098 106.402 8.04151 106.402C8.04098 106.402 8.04046 106.401 8.03994 106.401C8.03994 106.401 8.0402 106.401 8.04046 106.401ZM8.0334 106.397C8.03288 106.397 8.03262 106.396 8.0321 106.396C8.03236 106.396 8.03288 106.396 8.03314 106.397L8.0334 106.397ZM8.01093 106.382C8.01171 106.383 8.01223 106.383 8.01276 106.383C8.01249 106.383 8.01223 106.383 8.01197 106.383C8.01145 106.383 8.01093 106.382 8.0104 106.382C8.01066 106.382 8.01093 106.382 8.01093 106.382ZM7.478 106.179L7.47852 106.179C7.47852 106.179 7.47852 106.179 7.47878 106.179C7.47852 106.179 7.47826 106.179 7.478 106.179ZM9.62068 105.383C9.60552 105.473 9.57703 105.561 9.53469 105.642C9.49261 105.723 9.43641 105.797 9.36977 105.86C9.34494 105.883 9.31854 105.905 9.29136 105.925C9.26574 105.923 9.23987 105.921 9.21373 105.918C9.2119 105.918 9.21007 105.917 9.20876 105.917C9.23229 105.904 9.25555 105.889 9.27803 105.874C9.35252 105.822 9.41864 105.756 9.47144 105.681C9.55037 105.569 9.59454 105.436 9.60918 105.298C9.61179 105.297 9.61441 105.297 9.6165 105.296C9.61623 105.306 9.61571 105.316 9.61519 105.327C9.61388 105.341 9.61205 105.354 9.61127 105.366C9.6097 105.388 9.61127 105.401 9.62068 105.383ZM9.61388 105.15C9.61519 105.17 9.61676 105.189 9.61702 105.208C9.61624 105.205 9.61545 105.201 9.61441 105.198C9.61467 105.182 9.61441 105.166 9.61388 105.15ZM9.32063 104.739L9.31619 104.724C9.32011 104.732 9.3235 104.74 9.32716 104.748C9.32507 104.746 9.32324 104.744 9.32115 104.742C9.32089 104.741 9.32089 104.74 9.32063 104.739ZM9.23595 104.585C9.23935 104.591 9.24274 104.596 9.2464 104.601C9.27332 104.645 9.29763 104.69 9.31593 104.737C9.30678 104.727 9.29711 104.718 9.28718 104.708C9.27411 104.669 9.25712 104.628 9.23595 104.585ZM10.5409 104.537C10.5409 104.537 10.5409 104.537 10.5409 104.537C10.5389 104.545 10.5368 104.553 10.5349 104.561C10.5334 104.567 10.5308 104.575 10.5284 104.582C10.5028 104.602 10.4861 104.615 10.4942 104.608L10.4942 104.607L10.4939 104.604L10.4934 104.597L10.491 104.572L10.4897 104.557C10.4897 104.557 10.49 104.556 10.49 104.556C10.5088 104.549 10.5258 104.543 10.5409 104.537ZM1.61112 106.773C1.65921 106.925 1.7256 107.071 1.79774 107.212L1.85602 107.315L1.88555 107.366L1.9177 107.416L1.98252 107.514C2.00474 107.547 2.02931 107.577 2.05257 107.609C2.24127 107.859 2.46526 108.077 2.70729 108.264C2.7674 108.311 2.83065 108.354 2.89207 108.399C2.92239 108.421 2.95506 108.441 2.98669 108.462L3.08209 108.523L3.11607 108.544C3.1767 108.637 3.24021 108.729 3.3066 108.819C3.37377 108.909 3.44356 108.998 3.51596 109.084C3.37299 109.009 3.22845 108.927 3.07294 108.824C2.96709 108.756 2.86646 108.68 2.76531 108.605C2.6673 108.525 2.56772 108.446 2.47624 108.357C2.29067 108.183 2.11817 107.992 1.97207 107.779C1.82596 107.567 1.70417 107.335 1.6153 107.089C1.52592 106.843 1.47024 106.582 1.45509 106.316L1.45038 106.19C1.44933 106.169 1.44959 106.148 1.45038 106.127L1.45195 106.064C1.45273 105.981 1.4624 105.898 1.46998 105.815C1.46528 106.144 1.50866 106.469 1.61112 106.773ZM14.4719 104.342L14.4716 104.34L14.4711 104.336L14.4703 104.327L14.469 104.309L14.4659 104.274L14.4601 104.212L14.4499 104.114L14.4379 104.016L14.4256 103.938C14.4099 103.834 14.3885 103.73 14.365 103.625C14.2675 103.207 14.1002 102.79 13.8807 102.42C13.6614 102.05 13.3953 101.73 13.1193 101.466C12.8423 101.2 12.5561 100.99 12.2741 100.813C11.9923 100.638 11.7142 100.497 11.4424 100.38C11.3065 100.321 11.1716 100.268 11.0381 100.219C10.9045 100.171 10.7723 100.127 10.6411 100.086C10.134 99.9479 9.65074 99.8661 9.17479 99.8161C8.93721 99.7916 8.70119 99.7756 8.46492 99.7675C8.34652 99.7633 8.22812 99.7618 8.1092 99.7618C8.04961 99.7615 7.98975 99.7623 7.92964 99.7633L7.83947 99.7654L7.79399 99.767L7.74695 99.7686C7.47774 99.7785 7.21559 99.8036 6.95919 99.8397C6.70331 99.8768 6.45423 99.9267 6.21064 99.9852C5.96783 100.045 5.73129 100.116 5.49946 100.194C5.2692 100.274 5.04364 100.362 4.82331 100.458C4.60402 100.555 4.38865 100.659 4.17904 100.772C3.96995 100.886 3.76425 101.005 3.56483 101.136C3.1652 101.394 2.78465 101.685 2.42475 102.016C2.2452 102.182 2.0706 102.356 1.90254 102.544C1.86072 102.591 1.81943 102.64 1.77813 102.688C1.73684 102.735 1.69633 102.786 1.65608 102.836L1.59596 102.911L1.5808 102.931L1.56434 102.952L1.53114 102.996L1.46554 103.084C1.44385 103.113 1.42294 103.141 1.39994 103.175C1.0369 103.686 0.754626 104.248 0.591272 104.836C0.455362 105.329 0.409883 105.825 0.454838 106.299C0.457713 106.328 0.460848 106.358 0.463723 106.387C0.466598 106.416 0.469736 106.446 0.474963 106.475C0.483589 106.533 0.492997 106.591 0.502668 106.649C0.513383 106.706 0.526975 106.763 0.539782 106.819C0.546316 106.848 0.552067 106.876 0.559908 106.904C0.56801 106.932 0.57611 106.96 0.583951 106.987C0.592315 107.015 0.600418 107.042 0.608521 107.07L0.621065 107.111L0.634917 107.152C0.654259 107.206 0.673601 107.259 0.693204 107.312C0.713591 107.366 0.737113 107.417 0.759329 107.469L0.793567 107.546C0.805329 107.572 0.818659 107.597 0.831205 107.622C0.856296 107.672 0.881909 107.722 0.908045 107.771C0.93575 107.819 0.964239 107.867 0.992728 107.915L1.03585 107.986L1.08212 108.054C1.11296 108.1 1.14406 108.145 1.17568 108.19C1.20783 108.234 1.24233 108.277 1.27579 108.32C1.31003 108.363 1.3427 108.406 1.37929 108.446C1.45169 108.528 1.52173 108.61 1.59962 108.684C1.90359 108.989 2.24519 109.245 2.60039 109.458C2.64508 109.484 2.68952 109.51 2.73421 109.537L2.75067 109.546L2.7661 109.554L2.79641 109.57L2.85705 109.602C2.93703 109.642 3.02093 109.688 3.09437 109.719C3.16964 109.752 3.24518 109.788 3.32019 109.819C3.39494 109.849 3.46969 109.878 3.54444 109.908C3.61893 109.937 3.6929 109.962 3.76687 109.988C3.80372 110.001 3.84109 110.015 3.87742 110.026L3.98667 110.061L4.09593 110.095L4.15081 110.112L4.20884 110.128C4.28594 110.151 4.36304 110.173 4.44171 110.193C4.59931 110.233 4.75718 110.268 4.91478 110.298C5.01645 110.362 5.12022 110.423 5.22659 110.48C5.98247 110.892 6.83975 111.144 7.72395 111.186C8.05091 111.202 8.37841 111.188 8.70145 111.145C9.0245 111.101 9.34337 111.029 9.65335 110.927C9.96725 110.826 10.2699 110.693 10.5626 110.533C10.6358 110.492 10.709 110.452 10.7811 110.408L10.8893 110.343C10.9252 110.321 10.9604 110.297 10.996 110.274L11.1021 110.202C11.1376 110.179 11.1719 110.152 11.2069 110.127C11.2762 110.076 11.3462 110.026 11.4134 109.97C11.5503 109.864 11.6829 109.747 11.8133 109.629C11.8778 109.568 11.9421 109.507 12.0067 109.446C12.0694 109.383 12.1319 109.319 12.1946 109.256C12.4416 108.997 12.676 108.722 12.8961 108.436C12.9505 108.364 13.0064 108.293 13.0589 108.22C13.112 108.147 13.164 108.073 13.2152 107.998C13.2659 107.924 13.3164 107.849 13.3655 107.773L13.3836 107.745L13.3972 107.723L13.4236 107.681L13.4758 107.596C13.5111 107.539 13.5427 107.484 13.5757 107.427L13.6245 107.343L13.6724 107.256C13.704 107.198 13.7359 107.141 13.7667 107.08L13.813 106.99L13.836 106.945L13.8587 106.898C13.9795 106.651 14.0945 106.388 14.1977 106.088C14.2236 106.011 14.2484 105.933 14.2727 105.855C14.2963 105.772 14.319 105.688 14.3409 105.604L14.3718 105.468L14.3864 105.4C14.3914 105.377 14.3961 105.355 14.4003 105.33C14.4092 105.28 14.4173 105.231 14.4254 105.181C14.4332 105.131 14.441 105.083 14.4468 105.027C14.4528 104.972 14.4583 104.918 14.4633 104.863L14.4667 104.822L14.4682 104.801L14.4695 104.779L14.4732 104.688C14.4755 104.628 14.4769 104.568 14.4774 104.507C14.4821 104.649 14.4706 104.307 14.4719 104.342Z" fill="#11AEAE"/>
<path d="M144.088 142.067C199.795 179.161 296.643 167.473 350.911 119.049" stroke="#F2F2F2" stroke-width="2.48681" stroke-linecap="round" stroke-dasharray="2.49 8.29"/>
<path d="M376.737 96.6463C372.197 101.09 367.657 105.533 363.117 109.977C364.104 115 365.091 120.024 366.077 125.046C369.631 115.579 373.184 106.113 376.737 96.6463ZM378.195 93.347C378.783 93.0881 379.337 93.7052 379.1 94.2719C374.905 105.449 370.71 116.626 366.514 127.803C366.272 128.449 365.322 128.344 365.193 127.695C364.056 121.902 362.918 116.111 361.78 110.319C356.014 109.058 350.248 107.797 344.482 106.537C343.836 106.394 343.751 105.441 344.402 105.213C355.666 101.258 366.931 97.303 378.195 93.347ZM362.151 108.989C366.691 104.547 371.23 100.102 375.77 95.6589C366.23 99.0087 356.69 102.359 347.149 105.708C352.15 106.803 357.151 107.897 362.151 108.989Z" fill="#F2F2F2"/>
</svg>
